<?xml version="1.0" encoding="utf-8"?>
<!-- Generator: Adobe Illustrator 24.2.1, SVG Export Plug-In . SVG Version: 6.00 Build 0)  -->
<svg version="1.1" id="lfgl" xmlns="http://www.w3.org/2000/svg" xmlns:xlink="http://www.w3.org/1999/xlink" x="0px" y="0px"
	 viewBox="0 0 1920 1080" style="enable-background:new 0 0 1920 1080;" preserveAspectRatio="xMidYMax slice" xml:space="preserve">
<style type="text/css">
	.llst0{fill:none;}
	.llst1{fill:#060706;}
	.llst2{fill:#0F1813;}
	.llst3{fill:#131A14;}
	.llst4{fill:#2B3721;}
	.llst5{fill:#505744;}
	.llst6{fill:#484F3A;}
	.llst7{fill:#616654;}
	.llst8{fill:#404733;}
</style>
<rect x="373" y="0.4" class="llst0" width="1547" height="1081.8"/>
<g>
	<path class="llst1" d="M698.3,418.4c9.1-4.4,127,9.1,152.2,30.2c0.5-41.4-11.8-66.3-11.8-66.3s-125.8-5.9-132.8-11.8
		s90.8-62.5,126.5-6.5c4.5-22.9-32.2-83.4-94.3-57.2c-62.1,26.2-90.5,32.3-106,50.8s-13,39.6-28.4,26.8
		c-19.7-16.5,1.7-48.1-1.4-73.7c18.6-4,37-9.6,53.8,1.5c-11.7-39.3,29.8-68.3,5-116.9c-24-47.1-97.2-77.4-94.6-83.4
		c2.6-6,24,7.2,69.1,35.1c47.1,29.1,52,66.5,52,66.5s28.4-23.4,27.9-45.5c-0.5-22-17-40-76-82.8c-31.2-22.6-63.7-33.8-86.3-41.9
		V27.7c15.9,6.7,34.3,16.9,44.5,22.9c20.6,12,79.6,41.2,125.2,89.3c5.9-47,1.9-92.4,1.9-92.4s-32.6-41.6-99.5-63.8
		C562-37.3,498.3-34.6,497-43c-1.3-8.3,38.7-6.5,118.4,13.3c85.3,21.2,108.3,63.3,108.3,63.3S710.8-19.9,688-65.3
		c-28.9-20-97.1-36.8-112.1-32.6c-14.8,4.2-12.5,0.1-6.4-2.4c25-10.3,125.7,23.4,125.7,23.4S673.6-112.3,632-152
		c-39.8-37.9-90.4-15.2-118.2,0.9c-27.3,15.8-37-1.2-15.2-18.7c22.1-17.7,48-24.3,100.8-17.6c-6.6-11.7-56.6-61.5-101.9-51
		c-20.3,4.8-41.6,71.1-49,67.3c-7.3-3.8,34.2-70.4,34.2-70.4s-57.8-19.5-106.4-1.3C322-222.5,364.7-141.3,363.1-114
		c-4.6-1.9-9.8-4.3-15.5-7c-11-12.8-27.4-23.2-48.2-23.5c-37.7-16.9-78.9-29.1-105-6.5c-54.2,47.1-56.5,88.3-56.5,88.3
		s4.6-0.6,11.7-1.5c-3.6,7.5-6.7,10.7-15.1,3.6c-28.7-24,29.7-80.1-26.9-102.8C44.7-188.7-14.6-156-14.6-156s30.7-13.4,49.4,10.4
		s13.7,34.8,1.5,30s-125.3-92.9-162-6.9c0,0,71.5-8.6,89.9,6.8s53.1,38.4,49.9,42.3C10.9-69.6-101-127.6-135.7-100
		c-34.8,27.6-50.7,61.3-45.5,93.3c18.1-25.6,36.5-41.7,72-44.8c35.3-3.2,130,14.4,94.5,20.5S-151.2-11.2-177,10.9
		s-16.6,59.7-11.4,87.3c23-27.5,48.3-45.1,89.3-62c33-13.6,82.4-25.3,101-23.2v10.9C-19.1,34-78.5,44.6-98,49.7
		c-24,6.3-95.6,44.3-96,56.7s1.7,49.2,18,59.6c19.7-43.7,36.7-66.2,72.8-78.6C-70.2,76.1-11,57,1.9,61.4v6.7
		c-12.8,11.8-70.9,32.4-95,43.4c-27.8,12.8-87.8,35.9-78.3,62.8s17,34.5,13,56.5c41.2-24.6,71.8-63.7,93.4-79.2
		c21.7-15.5,53.1-37.8,61.3-28.5s-33.3,31.3-53.5,43.2c-20.2,11.8-86.1,45.8-80.8,72.2c5.3,26.4,25.4,49.5,45.4,42.4
		c-18.1-3.7-20.4-23-1.9-45c18.4-22,58-47,64.9-41.2c6.9,5.7-39.6,36.9-57.3,70.4s20.6,22.7,24,60.2c22.1-14.1,43.1-23.3,54.3-7.5
		C-5.4,304-1.8,288,1.8,273.9V896c-16.4-1.3-31.4,1.8-43.3,12.1C-95.7,955.2-98,996.4-98,996.4s91.8-12.4,91.8-2.9
		c0,9.4-97.1,19.4-116,38.3c-18.8,18.8-7.4,109.2,3.5,120.1c23.5-52.4,48.3-74.8,85.4-88.9c18.2-6.9,31.1-6.3,35.1-1.6v7.8
		c-2.6,4.8-9.3,10.6-21,16.7c-38.3,20-98.3,58.3-74.8,109.5s53,82.4,53,82.4s21.2-99.5,49.4-118.3c28.3-18.8,48.4-74.2,53.9-68.7
		s-37.5,59.9-52.3,71.7c-14.8,11.9-46.9,75.3-40.4,107.1c39.4,35,97.4,75.6,97.4,75.6s-31.5-38.6-2.6-117.4
		c28.8-78.9,54.2-117.2,63.6-112.4c9.4,4.7-37.7,62.4-54.2,126s10.6,103.9,10.6,103.9s65.9,17.4,102.4,39.7
		c-23.5-51.2-26.5-117.7-26.5-139.5s13-82.4,31.8-77.1s-18.8,60-10,121.9c8.8,61.8,20.6,87.1,44.2,94.8
		c23.5,7.7,67.7,10.6,67.7,10.6s-39.4-39.4-39.4-86.5s0-70.1,8.8-70.1s13.1,84.9,48,119.8s75.1-9.6,108.7,12.5
		c-11.7-39.3,29.8-68.3,5-116.9c-24-47.1-97.2-77.4-94.6-83.4s24,7.2,69.1,35.1c47.1,29.1,52,66.5,52,66.5s28.4-23.4,27.9-45.5
		c-0.5-22-17-40-76-82.8c-55.8-40.4-116.1-44.3-115.3-59.6c0.8-15.2,53.3,13.4,73.6,25.2c20.6,12,79.6,41.2,125.2,89.3
		c3-23.7,3.5-47.1,3.2-64.3c4.7,0.2,97.2,5.7,109.3,56.5c57.4-48.6,163.4-123.6,92.7-174.8c-70.6-51.2-102.4-54.2-95.4-73.9
		c7.1-19.7,106-9.1,135.1,43.9c0-70.6-48.6-118.3-101.6-132.5c-15.9-37.1,45-18.5,79.5-13.2c34.4,5.3,109.5,60,109.5,60v-87.4
		c0,0-90.1-30.9-150.1-30.9s-46.8,0-46.8-13.2s93.6-50.3,208.4-3.5c-9.7-53.9-33.6-89.2-80.4-89.2c-17.3,0-38.2,3.5-58.3,7.4
		c10.7-9.4,20.5-15.5,25.9-15.9c-0.4-4.5-0.9-9-1.6-13.4c8.2-1.1,15.4-1.3,20.7-0.2c-5.7-10.7-16-23.9-29.4-36.7
		c-9.8-29.7-25.4-54.4-44.4-70.3c-29-24.2-34.4-38.2-30-43.4c4.4-5.3,64.6,33.3,85.5,74.4s22.1,88.5,22.1,88.5s44.1-66.9,53.8-78.4
		c9.6-11.5-32.4-63.6-55.1-82.6c-22.7-19-53.6-30.7-46.1-39.6s114.1,47.2,126.3,111.1c18.2-48.3,23.5-101.4,23.5-101.4
		s-35.7-16.3-84.7-29.1C709.7,434,689.2,422.8,698.3,418.4z M490.2,1134.3c-0.3-16.7-1.2-27.7-1.2-27.7s-1.7-2.2-5.1-5.8
		c1.1-3,2.2-6.1,3.3-9.1c0.4,0.7,0.6,1,0.6,1s-0.1-0.6-0.4-1.6c2.4-6.2,4.9-12,7.4-16.4h11.5
		C509.6,1094.7,492.2,1130.3,490.2,1134.3z M652.6,691.9c-10.8,2-19.8,3.4-25.6,3.1c-0.4-3-0.9-6.1-1.4-9.2
		c5.1-3.5,13.3-7.6,23.2-11.8C650.3,679.9,651.6,685.9,652.6,691.9z M577.6,576.6c-9.7-18.2-14.7-31.9-5.2-32.8
		c12.3-1.1,26.9,8.6,38.8,26.8C599.9,570.3,588.6,572.1,577.6,576.6z"/>
	<g>
		<path class="llst2" d="M258.9,56.2c-26.5-26.5,36.7-77.1-17.7-104.8c-60.5-30.8-122.5-3.5-122.5-3.5s31.8-10.6,48.3,14.7
			s10.6,35.9-1.2,30C154.1-13.3,49.3-111,5.1-28.6c0,0,72-2.2,88.9,14.7s49.5,43,45.9,46.5C136.4,36.2,30.1-31.5-6.9-7.1
			c-37.1,24.4-56,56.5-53.6,88.9c20.3-23.8,40-38.3,75.6-38.3s128.3,25.9,92.4,28.8C71.6,75.3-30.2,80-57.9,99.8
			c-27.7,19.7-21.8,58-19.1,86c25.3-25.3,52.1-40.6,94.5-53.9c42.4-13.2,109.8-21.2,109.8-9.4s-85.4,18.8-109.8,23
			c-24.4,4.1-99.2,35.6-100.7,48s-2.6,49.2,12.7,60.9C-47,212.5-28.1,191.6,9,182.5s106.3-24.7,109.2-14.4
			c2.9,10.3-72.4,29.1-101.3,39.4c-28.8,10.3-90.7,28-83.6,55.6c7.1,27.7,13.8,35.9,7.9,57.4c43.3-20.9,77.1-57.1,100.1-70.6
			s56.2-33,63.6-23c7.4,10-35.9,28.3-57.1,38.3c-21.2,10-89.8,38-86.8,64.8c2.9,26.8,20.9,51.5,41.5,46.2
			c-17.7-5.3-18.3-24.7,2.1-45c20.3-20.3,62-41.7,68.3-35.3c6.3,6.3-42.7,33.3-63.3,65.1s18.5,24.4,18.5,62.1
			c23.3-12.1,45-19.4,54.8-2.6c11.2-33.8,25.9-81.2,32.4-77.7s10.9,19.1,5.3,43c-5.6,23.8-1.8,63-1.8,63l36.9-7.5
			c0,0,21.2-45.5,11-84.8s-13.2-108.2,5.7-73.3c19,34.9,21.6,94-7.9,148.4c37.1-15,90.1-29.6,90.1-29.6s4-58.3-11.9-97.1
			c-15.9-38.9-47.7-92.3-29.1-92.3c18.5,0,40.2,24.7,48.6,64.9c8.4,40.2,26.1,88.3,15.5,129.8c19.4-30.9,57.8-58.3,70.2-58.3
			c0-51.7-17-98.2-43.7-125c-26.7-26.7-30.9-41.1-26.1-45.9c4.9-4.9,61.4,38.9,78.6,81.7s14.1,90.1,14.1,90.1s49.9-62.7,60.5-73.3
			s-26.6-66.2-47.5-87.1s-50.6-35.3-42.4-43.6c8.2-8.2,109.5,57.1,116,121.9c22.4-46.5,32.4-98.9,32.4-98.9s-34.1-19.4-81.8-36.5
			s-67.1-30-57.7-33.6c9.4-3.5,125.7,20.3,148.9,43.6c4.1-41.2-5.9-67.1-5.9-67.1S368.4,58,361.9,51.5s96-54.2,126.6,4.7
			c6.5-22.4-24.7-86-88.9-65.3C335.4,11.4,306.5,15,289.5,32C272.4,49.1,273,70.3,258.9,56.2z"/>
		<path class="llst3" d="M78,406.7c-55.4-39.6-111.9-56.5-156.6-11.8s-73,137.8-49.5,195.4C-98.7,526.8-5.6,485.5,8.5,485.5
			s-50.6,47.1-78.9,75.4c-28.3,28.3-65.3,94.8-14.1,146c37.7-74.2,103.6-182.5,141.3-159c0,0-126,117.7-126,174.3
			c37.1,37.1,45.9,48.3,45.9,48.3s25.3-67.7,43.6-86s50.6-94.2,68.3-86S-19.1,759.2-2.1,776.3c17.1,17.1,45.9,27.1,45.9,27.1
			s22.4-78.6,30.3-59.2c7.9,19.4-15,64.5-15,64.5s97.1,4.4,109.5,56.5C226,816.7,332,741.6,261.3,690.4
			c-70.6-51.2-102.4-54.2-95.4-73.9c7.1-19.7,106-9.1,135.1,43.9c0-70.6-48.6-118.3-101.6-132.5c-15.9-37.1,45-18.5,79.5-13.2
			c34.4,5.3,109.5,60,109.5,60v-87.4c0,0-90.1-30.9-150.1-30.9s-46.8,0-46.8-13.2s93.6-50.3,208.4-3.5
			c-9.7-53.9-33.6-89.2-80.4-89.2s-121,25.6-129.8,16.8s85.7-45,116.6-38.9c-21.2-39.7-106.5-114.8-174.7-69.8
			S95.2,402.5,95.2,402.5S92,416.7,78,406.7z"/>
		<path class="llst3" d="M485.7,314.9c-55.4-39.6-111.9-56.5-156.6-11.8s-73,137.8-49.4,195.4c29.4-63.6,122.5-104.8,136.6-104.8
			s-50.6,47.1-78.9,75.4s-65.3,94.8-14.1,146c37.7-74.2,103.6-182.5,141.3-159c0,0-126,117.7-126,174.3
			c37.1,37.1,45.9,48.3,45.9,48.3s25.3-67.7,43.6-85.9c18.3-18.3,50.6-94.2,68.3-86c17.7,8.2-107.7,160.7-90.7,177.8
			c17.1,17.1,45.9,27.1,45.9,27.1s22.4-78.6,30.3-59.2c7.9,19.4-15,64.5-15,64.5s97.1,4.4,109.5,56.5
			c57.4-48.6,163.4-123.6,92.7-174.8c-70.6-51.2-102.4-54.2-95.4-73.9c7.1-19.7,106-9.1,135.1,43.9c0-70.6-48.6-118.3-101.6-132.5
			c-15.9-37.1,45-18.5,79.5-13.2c34.4,5.3,109.5,60,109.5,60v-87.4c0,0-90.1-30.9-150.1-30.9s-46.8,0-46.8-13.2s93.6-50.3,208.4-3.5
			c-9.7-53.9-33.6-89.2-80.4-89.2c-46.8,0-121,25.6-129.8,16.8c-8.8-8.8,85.7-45,116.6-38.9c-21.2-39.7-106.5-114.8-174.7-69.8
			S503,310.8,503,310.8S499.7,324.9,485.7,314.9z"/>
		<path class="llst3" d="M494.9,587.7c-55.4-39.6-111.9-56.5-156.6-11.8s-73,137.8-49.5,195.5c29.4-63.6,122.5-104.8,136.6-104.8
			s-50.6,47.1-78.9,75.4c-28.3,28.3-65.3,94.8-14.1,146C370,813.7,436,705.4,473.7,729c0,0-126,117.7-126,174.3
			c37.1,37.1,45.9,48.3,45.9,48.3s25.3-67.7,43.6-85.9c18.3-18.3,50.6-94.2,68.3-86c17.7,8.2-107.7,160.7-90.7,177.8
			c17.1,17.1,45.9,27.1,45.9,27.1s22.4-78.6,30.3-59.2c7.9,19.4-15,64.5-15,64.5s97.1,4.4,109.5,56.5
			c57.4-48.6,163.4-123.6,92.7-174.8c-70.6-51.2-102.4-54.2-95.4-73.9c7.1-19.7,106-9.1,135.1,43.9c0-70.6-48.6-118.3-101.6-132.5
			c-15.9-37.1,45-18.5,79.5-13.2c34.4,5.3,109.5,60,109.5,60v-87.4c0,0-90.1-30.9-150.1-30.9s-46.8,0-46.8-13.2s93.6-50.3,208.4-3.5
			c-9.7-53.9-33.6-89.2-80.4-89.2c-46.8,0-121,25.6-129.8,16.8s85.7-45,116.6-38.9c-21.2-39.7-106.5-114.8-174.7-69.8
			s-36.4,143.9-36.4,143.9S508.9,597.7,494.9,587.7z"/>
		<path class="llst2" d="M449.1,1192.4c-11.7-39.3,29.8-68.3,5-116.9c-24-47.1-97.2-77.4-94.6-83.4c2.6-6,24,7.2,69.1,35.1
			c47.1,29.1,52,66.5,52,66.5s28.4-23.4,27.9-45.5c-0.5-22-17-40-76-82.8c-55.8-40.4-116.1-44.3-115.3-59.6
			c0.8-15.2,53.3,13.4,73.6,25.2c20.6,12,79.6,41.2,125.2,89.3c5.9-47,1.9-92.4,1.9-92.4s-32.6-41.6-99.5-63.8
			c-63.3-21-127-18.3-128.3-26.7c-1.3-8.3,38.7-6.5,118.4,13.3c85.3,21.2,108.3,63.3,108.3,63.3s-13-53.6-35.8-99
			c-28.9-20-97.1-36.8-112.1-32.6c-14.8,4.2-12.5,0.1-6.4-2.4c25-10.3,125.7,23.4,125.7,23.4s-21.5-35.4-63.2-75
			c-39.8-37.9-90.4-15.2-118.2,0.9c-27.3,15.8-37-1.2-15.2-18.7c22.1-17.7,48-24.3,100.8-17.6c-6.6-11.7-56.6-61.5-101.9-51
			c-20.3,4.8-41.6,71.1-49,67.3c-7.3-3.8,34.2-70.4,34.2-70.4s-57.8-19.5-106.4-1.3c-54.3,20.3-11.6,101.5-13.2,128.8
			c-41.4-16.8-125.7-74.4-168.7-37c-54,47-56.4,88.2-56.4,88.2s91.8-12.4,91.8-2.9c0,9.4-97.1,19.4-116,38.3
			c-18.8,18.8-7.4,109.2,3.5,120.1c23.5-52.4,48.3-74.8,85.4-88.9c37.1-14.1,52.4,2.9,14.1,23c-38.3,20-98.3,58.3-74.8,109.5
			s53,82.4,53,82.4s21.2-99.5,49.4-118.3c28.3-18.8,48.4-74.2,53.9-68.7S53.8,972,39,983.8c-14.7,11.8-46.8,75.2-40.3,107
			c39.4,35,97.4,75.6,97.4,75.6s-31.5-38.6-2.6-117.4c28.8-78.9,54.2-117.2,63.6-112.4c9.4,4.7-37.7,62.4-54.2,126
			s10.6,103.9,10.6,103.9s65.9,17.4,102.4,39.7c-23.5-51.2-26.5-117.7-26.5-139.5s13-82.4,31.8-77.1c18.8,5.3-18.8,60-10,121.9
			c8.8,61.8,20.6,87.1,44.2,94.8c23.5,7.7,67.7,10.6,67.7,10.6s-39.4-39.4-39.4-86.5s0-70.1,8.8-70.1s13.1,84.9,48,119.8
			C375.3,1214.8,415.6,1170.4,449.1,1192.4z"/>
		<path class="llst4" d="M449.1,962.1c-11.7-39.3,29.8-68.3,5-116.9c-24-47.1-97.2-77.4-94.6-83.4c2.6-6,24,7.2,69.1,35.1
			c47.1,29.1,52,66.5,52,66.5s28.4-23.4,27.9-45.5c-0.5-22-17-40-76-82.8c-55.8-40.4-116.1-44.3-115.3-59.6
			c0.8-15.2,53.3,13.4,73.6,25.2c20.6,12,79.6,41.2,125.2,89.3c5.9-47,1.9-92.4,1.9-92.4s-32.6-41.6-99.5-63.8
			c-63.3-21-127-18.3-128.3-26.6s38.7-6.5,118.4,13.3c85.3,21.2,108.3,63.3,108.3,63.3s-12.9-53.5-35.7-98.9
			c-28.9-20-97.1-36.8-112.1-32.6c-14.8,4.2-12.5,0.1-6.4-2.4c25-10.3,125.7,23.4,125.7,23.4S466.7,537.7,425,498
			c-39.8-37.9-90.4-15.2-118.2,0.9c-27.3,15.8-37-1.2-15.2-18.7c22.1-17.7,48-24.3,100.8-17.6c-6.6-11.7-56.6-61.5-101.9-51
			c-20.3,4.8-41.6,71.1-49,67.3c-7.3-3.8,34.2-70.4,34.2-70.4s-57.8-19.5-106.4-1.3C115,427.5,157.7,508.7,156.1,536
			c-41.4-16.8-125.7-74.4-168.7-37c-54,47-56.4,88.3-56.4,88.3s91.8-12.4,91.8-2.9c0,9.4-97.1,19.4-116,38.3
			c-18.8,18.8-7.4,109.2,3.5,120.1c23.5-52.4,48.3-74.8,85.4-88.9s52.4,2.9,14.1,23c-38.3,20-98.3,58.3-74.8,109.5s53,82.4,53,82.4
			s21.2-99.5,49.4-118.3c28.3-18.8,48.4-74.3,53.9-68.7c5.5,5.5-37.5,59.9-52.3,71.7C24.3,765.2-7.8,828.6-1.3,860.4
			c39.4,35,97.4,75.6,97.4,75.6s-31.5-38.6-2.6-117.4c28.8-78.9,54.2-117.2,63.6-112.4c9.4,4.7-37.7,62.4-54.2,126
			s10.6,103.9,10.6,103.9s65.9,17.4,102.4,39.7c-23.5-51.2-26.5-117.7-26.5-139.5s13-82.4,31.8-77.1c18.8,5.3-18.8,60-10,121.9
			c8.8,61.8,20.6,87.1,44.2,94.8c23.5,7.7,67.7,10.6,67.7,10.6s-39.4-39.4-39.4-86.5s0-70.1,8.8-70.1s13.1,84.9,48,119.8
			C375.3,984.5,415.6,940,449.1,962.1z"/>
		<path class="llst4" d="M679.1,406.7c55.4-39.6,111.9-56.5,156.6-11.8c44.7,44.7,73,137.8,49.5,195.5
			c-29.4-63.6-122.4-104.8-136.6-104.8s50.6,47.1,78.9,75.4c28.3,28.3,65.3,94.8,14.1,146C803.9,632.8,738,524.5,700.3,548
			c0,0,126,117.7,126,174.3c-37.1,37.1-45.9,48.3-45.9,48.3s-25.3-67.7-43.6-86c-18.2-18.3-50.6-94.2-68.3-86
			s107.7,160.7,90.7,177.8c-17.1,17.1-45.9,27.1-45.9,27.1s-22.4-78.6-30.3-59.2c-7.9,19.4,15,64.5,15,64.5s-97.1,4.4-109.5,56.5
			c-57.4-48.6-163.4-123.6-92.7-174.8c70.6-51.2,102.4-54.2,95.4-73.9c-7.1-19.7-106-9.1-135.1,43.9c0-70.6,48.6-118.3,101.6-132.5
			c15.9-37.1-45-18.5-79.5-13.2c-34.4,5.3-109.5,60-109.5,60v-87.4c0,0,90.1-30.9,150.1-30.9c60.1,0,46.8,0,46.8-13.2
			S472,393,357.2,439.8c9.7-53.9,33.6-89.2,80.4-89.2s121,25.6,129.8,16.8c8.8-8.8-85.7-45-116.6-38.9
			c21.2-39.7,106.5-114.8,174.7-69.8s36.4,143.9,36.4,143.9S665.1,416.7,679.1,406.7z"/>
		<path class="llst5" d="M435.2-44c-46.9-25.9-92.7-34-123.6,5.1S267,75.5,290.7,118.5C308,66.1,377,25.4,388.1,24.1
			s-35.3,41.5-54.9,66.1c-19.5,24.7-42.5,80.1,2.2,115.5c22.7-61.5,64.4-152.2,96.1-137.2c0,0-87.8,103.6-82.7,147.8
			c32.4,25.6,40.3,33.6,40.3,33.6s13.6-55.3,26.3-71.2c12.6-15.9,31-78.3,45.6-73.5s-69.6,135.6-54.7,147.4
			c14.9,11.8,38.4,17,38.4,17s10.3-63.5,18.3-49.1c8,14.5-5.9,51.8-5.9,51.8s76.4-5.4,90.8,34.2c40.5-43.2,116.6-111.6,56.6-145.3
			c-59.9-33.6-85.1-33.1-81.4-49.1c3.7-16.1,95.4,9.3,123.1,48.1C716.6,91.3,584.1,46,541.3,39.8c-15.8-27.6,33.5-18.6,61-17.6
			c27.4,1,91.1,37,91.1,37l-8-68.4c0,0-73.3-16-120.3-10.5s-36.6,4.3-37.8-6.1S596-73.7,690-47.6c-12.5-41.3-34.4-66.7-71-62.5
			c-36.6,4.3-92.3,31.1-100,25s62.9-43,87.7-41c-20.2-29.2-93.8-80.1-143-38.7S448.4-48.9,448.4-48.9S447.1-37.4,435.2-44z"/>
		<path class="llst6" d="M287.3,289.9c-26.5-26.5,36.7-77.1-17.7-104.8c-60.5-30.8-122.5-3.5-122.5-3.5s31.8-10.6,48.3,14.7
			s10.6,35.9-1.2,30S77.6,122.7,33.5,205.1c0,0,72-2.2,88.9,14.7s49.4,43,45.9,46.5S58.5,202.1,21.4,226.6
			c-37.1,24.4-55.9,56.5-53.6,88.9c20.3-23.8,40-38.3,75.7-38.3s128.3,25.9,92.4,28.8c-35.9,3-137.7,7.8-165.4,27.5
			s-21.8,58-19.1,86c25.3-25.3,52.1-40.6,94.5-53.9c42.4-13.2,109.8-21.2,109.8-9.4s-85.4,18.8-109.8,23
			c-24.4,4.1-99.2,35.6-100.7,48s-2.6,49.2,12.7,60.9c23.5-41.8,42.4-62.7,79.5-71.8s106.3-24.7,109.2-14.4
			c2.9,10.3-72.4,29.1-101.3,39.4c-28.8,10.3-90.7,28-83.6,55.6c7.1,27.7,13.8,35.9,7.9,57.4c43.3-20.9,77.1-57.1,100.1-70.6
			s56.2-33,63.6-23S97.4,489,76.2,499s-89.8,38-86.8,64.8c2.9,26.8,20.9,51.5,41.5,46.2c-17.7-5.3-18.2-24.7,2.1-45
			s62-41.7,68.3-35.3c6.3,6.3-42.7,33.3-63.3,65.1s18.5,24.4,18.5,62.1c23.3-12.1,45-19.4,54.8-2.6c11.2-33.8,25.9-81.2,32.4-77.7
			c6.5,3.5,10.9,19.1,5.3,43c-5.6,23.8-1.8,63-1.8,63l36.9-7.5c0,0,21.2-45.5,11-84.8s-13.2-108.2,5.7-73.3
			c19,34.9,21.6,94-7.9,148.4c37.1-15,90.1-29.6,90.1-29.6s4-58.3-11.9-97.1c-15.9-38.9-47.7-92.3-29.1-92.3
			c18.5,0,40.2,24.7,48.6,64.9s26,88.3,15.5,129.8c19.4-30.9,57.8-58.3,70.2-58.3c0-51.7-17-98.2-43.7-125
			c-26.7-26.7-30.9-41.1-26.1-45.9c4.9-4.9,61.4,38.9,78.6,81.7s14.1,90.1,14.1,90.1s49.9-62.7,60.5-73.3
			c10.6-10.6-26.6-66.2-47.5-87.1s-50.6-35.3-42.4-43.6c8.2-8.2,109.5,57.1,116,121.9c22.4-46.5,32.4-98.9,32.4-98.9
			s-34.1-19.4-81.8-36.5s-67.1-30-57.7-33.6c9.4-3.5,125.7,20.3,148.9,43.6c4.1-41.2-5.9-67.1-5.9-67.1S396.9,292,390.4,285.6
			c-6.5-6.5,96-54.2,126.6,4.7c6.5-22.4-24.7-86-88.9-65.3c-64.2,20.6-93,24.1-110.1,41.2C300.8,282.8,301.4,304,287.3,289.9z"/>
		<g>
			<g>
				<path class="llst7" d="M584.4,330.1c0,0,20.9,67.6,70.2,82.6C614.6,362.8,628.4,366.3,584.4,330.1z"/>
			</g>
			<g>
				<path class="llst7" d="M606.2,407c-1.2-1.7-44-33.9-39.2-97C580.8,329,606.2,407,606.2,407z"/>
			</g>
			<g>
				<path class="llst7" d="M573.6,421c0,0-34.8-91.7-25.6-137.5C562.1,320.4,573.6,421,573.6,421z"/>
			</g>
			<g>
				<path class="llst7" d="M552.3,416.7c0,0-32.4-25.8-31.4-62.7c0.9-36.9,1.2-77.6,10.9-97.6c8.8,22.7,4.2,73.7,5.8,92
					C539,366.8,535.5,401,552.3,416.7z"/>
			</g>
			<g>
				<path class="llst7" d="M513.7,430.3c0,0-31.8-82.2-28.6-109.3c3.2-27.1,32-88.1,32-88.1s-3.2,64.2-9.9,87.3
					S513.7,430.3,513.7,430.3z"/>
			</g>
			<g>
				<path class="llst7" d="M479,400.2c0,0-30.9-72-20.9-106.3s45.2-86.1,45.2-86.1s0.4,23.2-6,45.3c-6.4,22-20.1,72.2-25.2,89.9
					C467,360.6,479,400.2,479,400.2z"/>
			</g>
			<g>
				<path class="llst7" d="M438.7,363.3c0,0-31.8-33.6-15.6-65.6c16.2-32,46-106.2,68-121.5c-1.7,29.2-21.9,62.1-33.6,83.7
					C445.8,281.5,427.2,332.1,438.7,363.3z"/>
			</g>
			<g>
				<path class="llst7" d="M392.5,310.6c0,0-8.3-45,14.2-73.8c22.6-28.9,73.8-85.7,73.8-85.7s-7.9,27.2-28.6,59.2
					C431.3,242.2,399.3,287.2,392.5,310.6z"/>
			</g>
			<g>
				<path class="llst7" d="M354.3,304.2c0,0,22.8-81.1,56.7-115.2s54.9-63.3,59.7-59.4c-12.2,29.5-23.1,52.9-44.3,74.1
					C405.2,225,366.5,280.1,354.3,304.2z"/>
			</g>
			<g>
				<path class="llst7" d="M464.2,106.5c0,0-57.6,66.9-76.1,89.1s-56.7,77-56.7,77s31.7-94.9,84.4-133.9
					C438.7,121.7,464.2,106.5,464.2,106.5z"/>
			</g>
			<g>
				<path class="llst7" d="M460.5,87.3c-16.7,16.9-80.8,58.4-107.5,85.4c-26.7,26.9-21.9,88.7-21.9,88.7s-21.8-74.4,25.5-110.1
					C403.8,115.7,435.2,91,460.5,87.3z"/>
			</g>
			<g>
				<path class="llst7" d="M324.6,216.4c0,0-13.5-117.5,127.8-148.7c-45.2,30.5-78.5,45.3-90,60.2
					C346.4,148.7,324.6,216.4,324.6,216.4z"/>
			</g>
			<g>
				<path class="llst7" d="M673.2,389.3c-1.8-1.3-36.8-80.1-105.6-79.6C600.3,322,673.2,389.3,673.2,389.3z"/>
			</g>
			<g>
				<path class="llst7" d="M681.8,354.3c0,0-28.3-62.2-131.7-72.5C589.9,302.5,607.1,300.9,681.8,354.3z"/>
			</g>
			<g>
				<path class="llst7" d="M693.8,337.6c0,0-5.9-45.7-66.3-60.1c-42.3-10.1-67.4-22.8-92.9-20.5c23.5,13.4,75.1,25.9,95.7,32.1
					C650.7,295.4,674.7,318.9,693.8,337.6z"/>
			</g>
			<g>
				<path class="llst7" d="M682.6,312c0,0-28.7-54.3-59.4-63c-30.7-8.7-102.9-17.7-102.9-17.7s58.8,21.3,86.6,25.6
					C634.7,261.2,682.6,312,682.6,312z"/>
			</g>
			<g>
				<path class="llst7" d="M675.8,287.5c0,0-15.3-48.1-66.3-66c-38.8-13.6-80.4-16.7-103.3-14.2c24.9,15.7,82.4,21.2,111.3,32.2
					C638.1,245.1,675.8,287.5,675.8,287.5z"/>
			</g>
			<g>
				<path class="llst7" d="M659.5,258.1c0,0-30.9-60.5-71-68.8c-40.6-8.4-54.1-12.3-93.1-12.9c32.4,10.7,48.1,20.4,76.1,23.3
					C599.4,202.7,633.9,233.6,659.5,258.1z"/>
			</g>
			<g>
				<path class="llst7" d="M659.2,218.3c0,0-50.9-58-99.9-68.1c-39.9-8.2-75.7,0.1-75.7,0.1s23.1,14.2,66.3,16
					C593.1,168.1,631.8,211,659.2,218.3z"/>
			</g>
			<g>
				<path class="llst7" d="M639.8,199c0,0-18.2-65.4-100.7-73.8c-52.5-5.4-43-3.7-62.8,0.1C491.9,141.1,561,118.3,639.8,199z"/>
			</g>
			<g>
				<path class="llst7" d="M459.7,86c25.4,1.1,54.2-0.5,84.3-3.9c29.3-3.3,121.2,44.1,121.2,44.1s-63.6-72.2-129.8-56
					C508.3,75.8,481,70.3,459.7,86z"/>
			</g>
			<g>
				<path class="llst7" d="M467.3,111.2c0,0,41.1-1.2,86.6,1.3c45.5,2.6,90.1,39.7,90.1,39.7S602,90.1,532.2,94
					C462.4,97.8,467.3,111.2,467.3,111.2z"/>
			</g>
			<g>
				<path class="llst7" d="M642.3,109.5c0,0-34.5-57.6-67.5-64.4c-40.5-8.4-95.6,3.4-119.4,24.3c52.5-10.2,69-12.2,78.9-15.5
					C575.1,41.9,642.3,109.5,642.3,109.5z"/>
			</g>
			<g>
				<path class="llst7" d="M629.6,66.5c0,0-40.6-81.4-179.1-17.4C503,38.9,529.4,36.8,555,35.4C564.8,32.1,629.6,66.5,629.6,66.5z"/>
			</g>
			<g>
				<path class="llst7" d="M448.7,51.3C322.2,77.5,309.8,136,301.6,148c-20.1,29.3,19.5,82.5,19.5,82.5s-27.5-48.6-3.6-86.2
					c23.9-37.7,44.4-52.1,79.5-65.3C431.9,65.8,448.7,51.3,448.7,51.3z"/>
			</g>
			<g>
				<path class="llst7" d="M443.3,17.9c0,0,0.3,1.3,1,3.7c0.6,2.4,1.6,6,2.9,10.5s2.9,10,4.7,16.3c1.9,6.3,4,13.4,6.5,21.1
					c2.4,7.7,5.1,16,8.1,24.8c1.5,4.4,3,8.9,4.6,13.5s3.2,9.3,4.9,14.1c1.7,4.8,3.5,9.6,5.3,14.5c1.9,4.9,3.7,9.8,5.6,14.7
					c3.9,9.9,7.9,19.9,12.1,29.8l3.1,7.4c1.1,2.5,2.2,4.9,3.3,7.4c2.1,4.9,4.4,9.8,6.6,14.6c4.5,9.6,9.1,19,13.7,28
					c2.3,4.5,4.7,8.8,7,13.1c2.4,4.3,4.7,8.4,7,12.4s4.7,7.8,6.9,11.5c2.3,3.7,4.6,7.2,6.8,10.6c1.1,1.7,2.2,3.3,3.3,4.9
					s2.2,3.1,3.2,4.6c2,3.1,4.1,5.9,6.1,8.5c3.7,5.4,7.3,9.9,10.1,13.7c1.4,1.9,2.7,3.5,3.8,5c1.1,1.4,2.1,2.7,2.9,3.7
					c0.8,1,1.3,1.8,1.7,2.3s0.6,0.8,0.6,0.8l0,0c0.1,0.1,0.1,0.2,0,0.3c-0.1,0.1-0.2,0.1-0.3,0c0,0-0.3-0.2-0.8-0.7
					c-0.5-0.4-1.2-1.1-2.2-1.9s-2.1-1.9-3.5-3.2c-1.4-1.3-2.9-2.7-4.6-4.5c-1.7-1.7-3.4-3.7-5.4-5.8c-1-1-2-2.2-3-3.4
					c-1-1.2-2-2.4-3.1-3.7c-4.3-5.1-8.6-11.2-13.3-17.9c-2.3-3.4-4.7-6.9-7.1-10.6c-2.4-3.7-4.8-7.5-7.3-11.5
					c-2.4-4-4.9-8.1-7.4-12.4c-2.4-4.3-4.9-8.6-7.4-13.1c-4.9-9-9.8-18.3-14.5-27.9c-2.4-4.8-4.7-9.6-7-14.6
					c-1.1-2.5-2.3-4.9-3.4-7.4l-3.3-7.4c-4.4-9.9-8.6-20-12.7-29.9c-2-5-3.9-9.9-5.9-14.8c-1.9-4.9-3.8-9.7-5.5-14.5
					c-1.8-4.8-3.5-9.5-5.2-14.1s-3.3-9.1-4.8-13.5c-3.1-8.8-5.8-17.2-8.3-25s-4.7-14.9-6.6-21.2s-3.6-11.9-4.9-16.5
					s-2.3-8.2-2.9-10.7c-0.7-2.5-1-3.8-1-3.8c-0.7-2.6,0.9-5.3,3.5-5.9C439.9,13.7,442.6,15.3,443.3,17.9L443.3,17.9z"/>
			</g>
		</g>
		<g>
			<g>
				<path class="llst7" d="M318.3,828.1c0,0-23.8,79.6,9.1,120.4C323.9,877.1,333.6,887.8,318.3,828.1z"/>
			</g>
			<g>
				<path class="llst7" d="M289.5,917.6c0-2.4-16.7-57.3,26.3-118.9C315.8,825.2,289.5,917.6,289.5,917.6z"/>
			</g>
			<g>
				<path class="llst7" d="M253,915c0,0,26.7-111.3,62.8-153.1C305.2,806.7,253,915,253,915z"/>
			</g>
			<g>
				<path class="llst7" d="M237.5,899.6c0,0-11.8-43,11.8-80.1s48.9-78.3,69.5-93.6c-6.5,27.7-41.8,77.1-51.8,96.5
					C256.9,841.9,232.8,874.9,237.5,899.6z"/>
			</g>
			<g>
				<path class="llst7" d="M196.1,893.4c0,0,23.5-100.1,43-126c19.4-25.9,81.7-73,81.7-73S278.5,758,258.5,778
					C238.4,798,196.1,893.4,196.1,893.4z"/>
			</g>
			<g>
				<path class="llst7" d="M185,844.8c0,0,18-89.2,47.7-118.9s91.8-64.1,91.8-64.1s-14,23.8-33,42.9c-19.1,19.1-61.7,63-77,78.3
					C199.1,798.3,185,844.8,185,844.8z"/>
			</g>
			<g>
				<path class="llst7" d="M173.2,786.4c0,0-6.5-50.6,27.1-74.8c33.6-24.1,104.8-84.2,133-88.3c-19.4,28.8-57,51.8-80.3,67.7
					S182.6,748.7,173.2,786.4z"/>
			</g>
			<g>
				<path class="llst7" d="M166.2,708.9c0,0,20.6-50,57.7-67.7s116-48.9,116-48.9s-23.5,23.5-60.9,45.3
					C241.5,659.4,186.5,688.6,166.2,708.9z"/>
			</g>
			<g>
				<path class="llst7" d="M137.5,682.5c0,0,69.5-70.6,119.5-87.7c50-17.1,85.9-35.9,87.7-29.4c-28.6,23.7-52.4,41.8-83.6,52.4
					S162.8,664.3,137.5,682.5z"/>
			</g>
			<g>
				<path class="llst7" d="M353.4,538.5c0,0-90.5,38.2-119.9,51.1c-29.4,13-96,48.8-96,48.8s85.7-80.1,154.7-92.4
					C322.2,540.7,353.4,538.5,353.4,538.5z"/>
			</g>
			<g>
				<path class="llst7" d="M362,517.1c-24.7,8.6-105.1,17.5-144.5,31.1C178,561.7,144,627,144,627s27.2-87,89.6-98.7
					C296.1,516.5,338.2,507.7,362,517.1z"/>
			</g>
			<g>
				<path class="llst7" d="M166.2,577.9c0,0,60.9-126.5,200.9-85c-57.5,7.6-95.1,5.4-114.1,14.6C226.7,520.3,166.2,577.9,166.2,577.9z
					"/>
			</g>
			<g>
				<path class="llst7" d="M357.8,934.4c-0.7-2.2,17.9-100.5-41.2-135.6C336.9,828.2,357.8,934.4,357.8,934.4z"/>
			</g>
			<g>
				<path class="llst7" d="M386.6,903.3c0,0,14.1-77.9-67.9-142C340,803,355.7,810.3,386.6,903.3z"/>
			</g>
			<g>
				<path class="llst7" d="M407.2,892.5c0,0,23.1-49.5-19.7-95.5c-29.9-32.2-43.6-58.2-66.8-69.1c11.9,25.8,48.3,65.2,62,82.3
					C396.4,827.3,402.4,863.7,407.2,892.5z"/>
			</g>
			<g>
				<path class="llst7" d="M413.5,860.7c0,0,8.9-70.1-12-94.9c-20.9-24.8-77.1-71.4-77.1-71.4s37.2,52.1,58.3,70.9
					S413.5,860.7,413.5,860.7z"/>
			</g>
			<g>
				<path class="llst7" d="M422.7,832.2c0,0,16.6-56.8-16-101.5c-24.8-34-58.4-58.7-79.6-68c11.6,28.8,57.4,64.3,75.3,90.5
					C416.6,769.6,422.7,832.2,422.7,832.2z"/>
			</g>
			<g>
				<path class="llst7" d="M426.9,793.9c0,0,10.9-77.5-18.4-106.7c-29.5-29.5-38.7-40.5-71.7-61.4c21,27.7,28.5,45.7,50.7,63.1
					C409.7,706.4,420.1,755.7,426.9,793.9z"/>
			</g>
			<g>
				<path class="llst7" d="M451.1,753.3c0,0-7.8-85.3-43.4-121c-29-29-64.8-39.2-64.8-39.2s11,26.4,46.8,50.6
					C425.6,668,432.2,731.6,451.1,753.3z"/>
			</g>
			<g>
				<path class="llst7" d="M446.5,723.6c0,0,24.7-75.9-40.6-127.3c-41.6-32.7-34.4-26.1-53.8-32.4C355.7,588,428.9,600.7,446.5,723.6z
					"/>
			</g>
			<g>
				<path class="llst7" d="M362.2,515.3c21.1,14.2,46.6,27.6,74.4,39.7c27.1,11.8,76.5,107.8,76.5,107.8s-9.9-106.5-76.5-124.3
					C410,530.2,390.1,510.5,362.2,515.3z"/>
			</g>
			<g>
				<path class="llst7" d="M353.1,544.9c0,0,35.9,20,73.2,46.2c37.4,26.2,52.6,87.1,52.6,87.1s2.4-84.9-59.6-117.2
					C357.2,528.8,353.1,544.9,353.1,544.9z"/>
			</g>
			<g>
				<path class="llst7" d="M503.8,633.9c0,0,5.9-76.4-18.1-100.4c-29.5-29.5-83.8-46.1-117-37.2c51.2,16.8,66.5,23.4,77,25.1
					C488,530.3,503.8,633.9,503.8,633.9z"/>
			</g>
			<g>
				<path class="llst7" d="M519.4,583.6c0,0-2.8-103.8-160.6-110.6c51.2,16.8,93.3,28.4,116,40.3C485.2,515,519.4,583.6,519.4,583.6z"
					/>
			</g>
			<g>
				<path class="llst7" d="M374.1,474.4c-124.3-39-171,14.1-185.4,22.1c-35.2,19.4-34.2,94-34.2,94s6.4-63.7,50.1-89.6
					s70.1-29.9,108.2-25.2C350.8,480.4,374.1,474.4,374.1,474.4z"/>
			</g>
			<g>
				<path class="llst7" d="M377.6,478c0,0-1.6,5.3-4.4,14.7c-1.4,4.7-3,10.4-4.9,16.9c-1.9,6.5-4,13.9-6.2,22s-4.5,16.8-6.9,26.1
					s-4.9,19.1-7.3,29.2c-2.5,10.2-4.9,20.7-7.2,31.4c-2.3,10.7-4.6,21.7-6.6,32.6c-2.1,10.9-4.1,21.9-5.8,32.8
					c-1.8,10.8-3.2,21.5-4.6,31.9c-0.6,5.2-1.3,10.3-1.7,15.3c-0.2,2.5-0.5,5-0.7,7.4s-0.4,4.9-0.6,7.2c-0.8,9.5-1.2,18.6-1.5,26.9
					c-0.1,4.2-0.1,8.2-0.2,12c0,3.8,0,7.4,0,10.8c0,3.4,0.1,6.6,0.1,9.5c-0.1,2.9,0.1,5.6,0.1,8.1c0.1,2.4,0,4.6,0.1,6.5
					s0.1,3.5,0.1,4.8s0,2.3,0,3s0,1,0,1l0,0c0,0.1-0.1,0.2-0.2,0.2s-0.2-0.1-0.2-0.2c0,0-0.1-0.3-0.2-1c-0.2-0.7-0.4-1.6-0.7-2.9
					c-0.6-2.6-1.4-6.4-2.1-11.2c-0.4-2.4-0.8-5.1-1.1-8.1c-0.3-3-0.6-6.2-0.8-9.6c-0.1-3.4-0.4-7.1-0.5-10.9c0-3.8-0.1-7.9-0.1-12.1
					c0.1-8.4,0.3-17.6,0.9-27.2c0.1-2.4,0.3-4.9,0.4-7.3c0.2-2.5,0.4-5,0.6-7.5c0.3-5.1,0.9-10.2,1.4-15.5
					c1.1-10.5,2.3-21.3,3.8-32.3s3.2-22.1,5.1-33.1c1.9-11.1,4-22.1,6.2-32.9c2.2-10.8,4.4-21.5,6.8-31.7
					c2.3-10.3,4.6-20.2,6.9-29.5c2.3-9.4,4.6-18.2,6.8-26.3c2.2-8.1,4.2-15.6,6-22.2c1.8-6.6,3.5-12.3,4.9-17
					c2.8-9.4,4.4-14.8,4.4-14.8c0.8-2.8,3.8-4.4,6.6-3.6S378.4,475.1,377.6,478L377.6,478z"/>
			</g>
		</g>
		<g>
			<g>
				<path class="llst8" d="M94.1,954.9c0,0,12.5,82.1,59.7,104.9C120.1,996.8,133.5,1002.4,94.1,954.9z"/>
			</g>
			<g>
				<path class="llst8" d="M106.4,1048.2c-1-2.1-39.6-44.6-27-118.8C90.7,953.3,106.4,1048.2,106.4,1048.2z"/>
			</g>
			<g>
				<path class="llst8" d="M72.2,1061.4c0,0-23.3-112-8.6-165.2C73.2,941.1,72.2,1061.4,72.2,1061.4z"/>
			</g>
			<g>
				<path class="llst8" d="M51.6,1054.1c0,0-29-33.8-23.6-77.4c5.5-43.6,10.7-91.7,22.8-114.3c6,27.8-4.9,87.6-5.6,109.4
					C44.5,993.6,36.8,1033.7,51.6,1054.1z"/>
			</g>
			<g>
				<path class="llst8" d="M11.5,1066.2c0,0-21.5-100.5-15-132.3C3.1,902.2,39.2,833,39.2,833s-11.1,75.6-20.6,102.2
					C9.1,961.8,11.5,1066.2,11.5,1066.2z"/>
			</g>
			<g>
				<path class="llst8" d="M-19.3,1026.9c0,0-21.9-88.3-7.7-127.9c14.2-39.6,55.6-97.2,55.6-97.2s-2.4,27.5-11.5,52.9
					C8,880.2-6.7,905.9-14,926.3C-21.3,946.6-19.3,1026.9-19.3,1026.9z"/>
			</g>
			<g>
				<path class="llst8" d="M-51.1,989c0,0-27.5-43-7.5-79.2C-38.5,873.7,0.2,789,24,773.2c-5.2,34.4-29.4,71.2-43.7,95.5
					S-58.7,950.9-51.1,989z"/>
			</g>
			<g>
				<path class="llst8" d="M-89.9,929.4c0,0-2.7-54,23.2-85.9c26-31.8,84-93.7,84-93.7s-11.2,31.3-35.7,67S-80.3,902.4-89.9,929.4z"/>
			</g>
			<g>
				<path class="llst8" d="M-129.1,918.8c0,0,37.3-89.3,70.6-130.4c56.9-70.3,66.7-64.1,66.7-64.1s-29.5,60.2-53.2,83.1
					C-68.6,830.4-114,891.5-129.1,918.8z"/>
			</g>
			<g>
				<path class="llst8" d="M2.2,696.5c0,0-65.5,73.2-86.6,97.5s-89.4,76.7-89.4,76.7S-72.1,750.4-50,729.5
					C-27.8,708.6,2.2,696.5,2.2,696.5z"/>
			</g>
			<g>
				<path class="llst8" d="M1.7,664.7c0,0-95.6,71.9-125.5,101s-66.7,55.9-66.7,55.9s31.5-52,80.9-91.9
					C-9.1,648.4,1.7,664.7,1.7,664.7z"/>
			</g>
			<g>
				<path class="llst8" d="M-174.8,772.7c0,0,46.9-119.8,177.9-145.9c-45.3,29.2-83.4,51.8-100.2,67.5
					C-104.8,701.6-174.8,772.7-174.8,772.7z"/>
			</g>
			<g>
				<path class="llst8" d="M168.7,1045.3c-1.5-1.9-18-100.5-85.6-113C112.3,952.9,168.7,1045.3,168.7,1045.3z"/>
			</g>
			<g>
				<path class="llst8" d="M178.4,1009.5c0,0-13.7-78-112.9-109.7C99.9,931.6,117.2,933,178.4,1009.5z"/>
			</g>
			<g>
				<path class="llst8" d="M190.9,991.6c0,0,4.6-54.4-51.5-82.8c-39.2-19.8-61-39.5-86.6-41.7c20.1,20.1,67.9,44.5,86.6,55.7
					C158.2,934.2,176.4,966.2,190.9,991.6z"/>
			</g>
			<g>
				<path class="llst8" d="M211.7,989.8c0,0-12.6-77.7-66.7-118.1c-25.9-19.4-105-37.3-105-37.3s59.7,36.4,85.9,47
					C171.9,899.9,211.7,989.8,211.7,989.8z"/>
			</g>
			<g>
				<path class="llst8" d="M227.6,944c0,0-17-57.9-63-88.5c-35-23.3-107.3-49.7-130.4-51c20.9,23,88,40.6,113.8,59
					C167,873.8,227.6,944,227.6,944z"/>
			</g>
			<g>
				<path class="llst8" d="M210.8,895.6c0,0-16.6-61-54.1-78.3c-37.9-17.5-73.3-38.3-129.4-44c29.3,18.7,69.2,38.4,96,47.1
					C150.2,828.9,191.2,862.1,210.8,895.6z"/>
			</g>
			<g>
				<path class="llst8" d="M205,847.8c0,0-56.7-84-97.3-90.4C67.2,750.8,24,746.2,24,746.2s41.7,18.9,83.7,29.2
					C149.7,785.8,179.8,834,205,847.8z"/>
			</g>
			<g>
				<path class="llst8" d="M194.6,822.3c0,0-32.4-77.6-84.4-87.4c-86-16.1-97.3-9.5-97.3-9.5s29.4,17.7,105.6,27.6
					C148.9,756,161.9,810.8,194.6,822.3z"/>
			</g>
			<g>
				<path class="llst8" d="M-1.6,665.1c0,0,54.1,7.4,83.7,9.1c29.6,1.7,91.7,68.3,91.7,68.3S151.5,666,72.2,661.2
					C44.5,659.5-1.6,665.1-1.6,665.1z"/>
			</g>
			<g>
				<path class="llst8" d="M8.3,694.8c28.2,15,67.2,6.4,110.8,18c44.1,11.7,71.9,91.7,71.9,91.7s-7.1-93.8-76.5-102.6
					C45.1,693,28.6,685.5,8.3,694.8z"/>
			</g>
			<g>
				<path class="llst8" d="M176.5,692.6c0,0-112.3-109.1-179.8-61.3C76.8,619.8,176.5,692.6,176.5,692.6z"/>
			</g>
			<g>
				<path class="llst8" d="M178.4,660.9c0,0-49.5-108.7-187.5-56.7c53.8-1.9,81.3-4.1,110.6,2.5C111.9,609.1,178.4,660.9,178.4,660.9z
					"/>
			</g>
			<g>
				<path class="llst8" d="M-3.8,589.6c0,0,0.2,1.5,0.5,4.2c0.3,2.8,0.8,6.8,1.4,12c0.7,5.2,1.5,11.4,2.5,18.6
					c1,7.2,2.2,15.3,3.5,24.1c1.4,8.8,2.9,18.4,4.6,28.4c0.9,5,1.7,10.2,2.7,15.5c0.9,5.3,2,10.7,3,16.1c1,5.5,2.2,11,3.3,16.7
					c1.2,5.6,2.4,11.3,3.6,17c2.5,11.4,5.1,23,8,34.6c0.7,2.9,1.4,5.8,2.1,8.7c0.7,2.9,1.5,5.7,2.2,8.6c1.4,5.7,3,11.4,4.6,17.1
					c1.5,5.7,3.2,11.2,4.8,16.7s3.4,10.9,5,16.2c1.7,5.3,3.5,10.5,5.2,15.6c1.8,5.1,3.6,10,5.3,14.8c1.8,4.8,3.6,9.4,5.4,13.9
					c1.8,4.4,3.6,8.7,5.4,12.8c0.8,2.1,1.8,4,2.6,6c0.9,1.9,1.8,3.8,2.6,5.7c1.6,3.7,3.3,7.2,4.9,10.4c3,6.6,6,12.2,8.2,16.9
					c1.1,2.4,2.2,4.4,3.1,6.2s1.7,3.3,2.3,4.6c0.6,1.3,1.1,2.2,1.4,2.9s0.5,1,0.5,1l0,0c0.1,0.1,0,0.3-0.1,0.3s-0.2,0-0.3-0.1
					c0,0-0.2-0.3-0.7-0.9c-0.4-0.6-1.1-1.4-2-2.5s-1.9-2.5-3.1-4.2c-1.2-1.6-2.6-3.5-4-5.8c-1.4-2.2-3-4.7-4.7-7.3
					c-0.9-1.3-1.7-2.8-2.5-4.3s-1.7-3-2.6-4.6c-3.6-6.4-7.2-13.8-11-22c-1.8-4.1-3.8-8.4-5.7-12.8c-1.9-4.5-3.8-9.1-5.7-13.9
					c-1.9-4.8-3.8-9.7-5.7-14.8c-1.8-5.1-3.8-10.3-5.6-15.6s-3.7-10.7-5.4-16.2s-3.6-11.1-5.2-16.7c-1.7-5.6-3.4-11.3-5-17.1
					c-0.8-2.9-1.6-5.7-2.4-8.6c-0.8-2.9-1.6-5.8-2.3-8.7c-3.1-11.6-5.9-23.2-8.6-34.7c-1.3-5.7-2.6-11.5-3.9-17.1
					c-1.2-5.7-2.4-11.2-3.5-16.7s-2.2-10.9-3.2-16.2s-2-10.5-2.9-15.6c-1.9-10.1-3.4-19.7-4.9-28.6c-1.4-8.9-2.7-17-3.7-24.2
					s-1.9-13.5-2.6-18.7s-1.1-9.3-1.5-12.1c-0.3-2.8-0.5-4.3-0.5-4.3c-0.3-2.9,1.8-5.5,4.7-5.8C-6.8,584.5-4.1,586.6-3.8,589.6
					L-3.8,589.6z"/>
			</g>
		</g>
		<g>
			<g>
				<path class="llst8" d="M441.9,1010c0,0-12.5,82.1-59.7,104.9C415.9,1051.8,402.5,1057.4,441.9,1010z"/>
			</g>
			<g>
				<path class="llst8" d="M429.7,1103.2c1-2.1,39.6-44.6,27-118.8C445.3,1008.4,429.7,1103.2,429.7,1103.2z"/>
			</g>
			<g>
				<path class="llst8" d="M463.8,1116.4c0,0,23.3-112,8.6-165.2C462.8,996.2,463.8,1116.4,463.8,1116.4z"/>
			</g>
			<g>
				<path class="llst8" d="M484.4,1109.1c0,0,29-33.8,23.6-77.4c-5.5-43.6-10.7-91.7-22.8-114.3c-6,27.8,4.9,87.6,5.6,109.4
					C491.5,1048.7,499.2,1088.8,484.4,1109.1z"/>
			</g>
			<g>
				<path class="llst8" d="M524.5,1121.2c0,0,21.5-100.5,15-132.3C533,957.2,496.8,888,496.8,888s11.1,75.6,20.6,102.2
					C526.9,1016.9,524.5,1121.2,524.5,1121.2z"/>
			</g>
			<g>
				<path class="llst8" d="M555.3,1082c0,0,21.9-88.3,7.7-127.9c-14.2-39.6-55.6-97.2-55.6-97.2s2.4,27.5,11.5,52.9
					c9.1,25.4,23.8,51.1,31.1,71.5S555.3,1082,555.3,1082z"/>
			</g>
			<g>
				<path class="llst8" d="M587.1,1044.1c0,0,27.5-43,7.5-79.2S535.8,844,512,828.2c5.2,34.4,29.4,71.2,43.7,95.5
					C570,948.1,594.7,1006,587.1,1044.1z"/>
			</g>
			<g>
				<path class="llst8" d="M626,984.5c0,0,2.7-54-23.2-85.9c-26-31.8-84-93.7-84-93.7s11.2,31.3,35.7,67S616.3,957.4,626,984.5z"/>
			</g>
			<g>
				<path class="llst8" d="M665.1,973.9c0,0-37.3-89.3-70.6-130.4c-56.9-70.3-66.7-64.1-66.7-64.1s29.5,60.2,53.2,83.1
					C604.6,885.4,650,946.6,665.1,973.9z"/>
			</g>
			<g>
				<path class="llst8" d="M533.9,751.6c0,0,65.5,73.2,86.6,97.5s89.4,76.7,89.4,76.7S608.1,805.4,586,784.5
					C563.8,763.7,533.9,751.6,533.9,751.6z"/>
			</g>
			<g>
				<path class="llst8" d="M534.3,719.8c0,0,95.6,71.9,125.5,101s66.7,55.9,66.7,55.9s-31.5-52-80.9-91.9
					C545.1,703.5,534.3,719.8,534.3,719.8z"/>
			</g>
			<g>
				<path class="llst8" d="M710.8,827.8c0,0-46.9-119.8-177.9-145.9c45.3,29.2,83.4,51.8,100.2,67.5
					C640.8,756.6,710.8,827.8,710.8,827.8z"/>
			</g>
			<g>
				<path class="llst8" d="M367.4,1100.3c1.5-1.9,18-100.5,85.6-113C423.7,1008,367.4,1100.3,367.4,1100.3z"/>
			</g>
			<g>
				<path class="llst8" d="M357.6,1064.6c0,0,13.7-78,112.9-109.7C436.1,986.6,418.9,988.1,357.6,1064.6z"/>
			</g>
			<g>
				<path class="llst8" d="M345.1,1046.7c0,0-4.6-54.4,51.5-82.8c39.2-19.8,61-39.5,86.6-41.7c-20.1,20.1-67.9,44.5-86.6,55.7
					C377.8,989.2,359.6,1021.2,345.1,1046.7z"/>
			</g>
			<g>
				<path class="llst8" d="M324.3,1044.9c0,0,12.6-77.7,66.7-118.1c25.9-19.4,105-37.3,105-37.3s-59.7,36.4-85.9,46.9
					C364.1,955,324.3,1044.9,324.3,1044.9z"/>
			</g>
			<g>
				<path class="llst8" d="M308.4,999c0,0,17-57.9,63-88.5c35-23.3,107.3-49.7,130.4-51c-20.9,23-88,40.6-113.8,59
					C369,928.8,308.4,999,308.4,999z"/>
			</g>
			<g>
				<path class="llst8" d="M325.2,950.6c0,0,16.6-61,54.1-78.3c37.9-17.5,73.3-38.3,129.4-44c-29.3,18.7-69.2,38.4-96,47.1
					C385.9,884,344.8,917.1,325.2,950.6z"/>
			</g>
			<g>
				<path class="llst8" d="M331,902.8c0,0,56.7-84,97.3-90.5s83.7-11.1,83.7-11.1s-41.7,18.9-83.7,29.2
					C386.3,840.9,356.2,889.1,331,902.8z"/>
			</g>
			<g>
				<path class="llst8" d="M341.4,877.3c0,0,32.4-77.6,84.4-87.3c86-16.1,97.3-9.5,97.3-9.5s-29.4,17.7-105.6,27.6
					C387.1,811.1,374.1,865.9,341.4,877.3z"/>
			</g>
			<g>
				<path class="llst8" d="M537.6,720.1c0,0-54.1,7.4-83.7,9.1c-29.6,1.7-91.7,68.3-91.7,68.3s22.3-76.5,101.6-81.3
					C491.6,714.6,537.6,720.1,537.6,720.1z"/>
			</g>
			<g>
				<path class="llst8" d="M527.7,749.8c-28.2,15-67.2,6.4-110.8,18c-44.1,11.7-71.9,91.7-71.9,91.7s7.1-93.8,76.5-102.6
					C490.9,748.1,507.4,740.5,527.7,749.8z"/>
			</g>
			<g>
				<path class="llst8" d="M359.6,747.6c0,0,112.3-109.1,179.8-61.3C459.2,674.9,359.6,747.6,359.6,747.6z"/>
			</g>
			<g>
				<path class="llst8" d="M357.6,716c0,0,49.5-108.7,187.5-56.7c-53.8-1.9-81.3-4.1-110.6,2.5C424.1,664.1,357.6,716,357.6,716z"/>
			</g>
			<g>
				<path class="llst8" d="M553.9,627.8c0,0-0.2,1.6-0.5,4.5c-0.4,2.9-0.9,7.2-1.6,12.7c-0.7,5.4-1.6,12-2.7,19.6
					c-1.1,7.6-2.4,16.1-3.9,25.4c-1.5,9.3-3.2,19.3-5.1,29.9c-1,5.3-2,10.7-3.1,16.3c-0.5,2.8-1.1,5.6-1.6,8.4
					c-0.6,2.8-1.2,5.7-1.7,8.6c-2.3,11.5-4.9,23.4-7.6,35.4c-1.4,6-2.8,12.1-4.3,18.1c-1.5,6.1-3,12.2-4.6,18.2
					c-1.6,6.1-3.2,12.1-4.9,18.1c-0.8,3-1.7,6-2.5,9c-0.9,3-1.8,6-2.6,8.9c-0.9,3-1.7,5.9-2.6,8.8c-0.9,2.9-1.8,5.8-2.7,8.7
					c-1.8,5.8-3.7,11.5-5.6,17c-3.8,11.2-7.6,21.9-11.5,31.9c-3.9,10.1-7.8,19.5-11.7,28.1c-1.8,4.3-3.9,8.4-5.7,12.3
					c-0.9,1.9-1.9,3.8-2.8,5.6c-1,1.8-1.9,3.5-2.8,5.2s-1.8,3.3-2.7,4.9c-0.9,1.6-1.7,3.1-2.6,4.5c-1.8,2.8-3.3,5.4-4.9,7.7
					c-0.8,1.2-1.4,2.3-2.1,3.3s-1.4,1.9-2,2.8c-1.3,1.7-2.3,3.2-3.2,4.4c-0.9,1.2-1.6,2.1-2,2.7c-0.5,0.6-0.7,0.9-0.7,0.9l-0.4-0.3
					c0,0,0.2-0.4,0.5-1c0.3-0.7,0.8-1.7,1.5-3s1.5-2.9,2.5-4.8c0.5-0.9,1-2,1.6-3c0.6-1.1,1.1-2.3,1.7-3.5c1.2-2.5,2.5-5.2,4-8.1
					c1.5-2.9,2.9-6.2,4.5-9.6c0.8-1.7,1.7-3.5,2.5-5.3s1.7-3.7,2.5-5.7c1.7-3.9,3.6-7.9,5.4-12.2c3.6-8.6,7.3-18,11-28
					c3.6-10.1,7.3-20.7,10.7-31.9c1.7-5.6,3.5-11.2,5.1-17c0.8-2.9,1.7-5.8,2.5-8.7s1.6-5.9,2.4-8.8c0.8-3,1.6-5.9,2.4-8.9
					s1.5-6,2.3-9c1.6-6,3-12.1,4.5-18.1s2.8-12.1,4.3-18.2c1.3-6.1,2.7-12.1,4-18.1c2.5-12,5-23.8,7.1-35.3c0.5-2.9,1.1-5.7,1.6-8.5
					s1-5.6,1.5-8.4c1-5.5,1.9-11,2.8-16.2c0.9-5.3,1.8-10.4,2.6-15.4s1.6-9.8,2.3-14.4c1.4-9.2,2.7-17.7,3.7-25.2
					c1.1-7.5,1.9-14.1,2.6-19.5c0.7-5.4,1.2-9.6,1.6-12.5c0.3-2.9,0.5-4.4,0.5-4.4L553.9,627.8z"/>
			</g>
			<g>
				<path class="llst8" d="M538.2,660.9c129,17.9,173.4,96.8,183.1,110.2c23.6,32.6-5.8,77.7-5.8,77.7s19.2-38.6-9.2-80.6
					c-28.4-42.1-74.5-71-110.9-83C558.8,673.1,538.2,660.9,538.2,660.9z"/>
			</g>
		</g>
	</g>
</g>
</svg>
