<?xml version="1.0" encoding="utf-8"?>
<!-- Generator: Adobe Illustrator 24.2.1, SVG Export Plug-In . SVG Version: 6.00 Build 0)  -->
<svg version="1.1" id="Layer_1" xmlns="http://www.w3.org/2000/svg" xmlns:xlink="http://www.w3.org/1999/xlink" x="0px" y="0px"
	 viewBox="0 0 1920 1080" style="enable-background:new 0 0 1920 1080;" preserveAspectRatio="xMidYMax slice" xml:space="preserve">
<style type="text/css">
	.newst0{fill:#C7C6C6;}
	.newst1{fill-rule:evenodd;clip-rule:evenodd;fill:#FFFFFF;}
	.newst2{opacity:0.39;fill-rule:evenodd;clip-rule:evenodd;fill:#FFFFFF;}
	.newst3{opacity:0.16;fill-rule:evenodd;clip-rule:evenodd;fill:#FFFFFF;}
	.newst4{opacity:0.43;fill-rule:evenodd;clip-rule:evenodd;fill:#FFFFFF;}
	.newst5{fill:#215F76;}
	.newst6{filter:url(#Adobe_OpacityMaskFilter);}
	.newst7{fill:url(#SVGID_2_);}
	.newst8{opacity:0.76;mask:url(#SVGID_1_);}
	.newst9{fill:#32333B;}
	.newst10{fill:#202026;}
	.newst11{fill:#C5D3D5;}
	.newst12{fill:#2B2C33;}
	.newst13{fill:#3B3B45;}
	.newst14{fill:#3F3F4A;}
	.newst15{fill:#484854;}
	.newst16{fill:#437640;}
	.newst17{fill:#D7E6E8;}
	.newst18{fill:#1A2718;}
	.newst19{fill:#3D3725;}
	.newst20{fill:#274026;}
	.newst21{fill-rule:evenodd;clip-rule:evenodd;fill:#1A2718;}
	.newst22{fill:#162216;}
	.newst23{fill:#243620;}
	.newst24{fill:#B4A492;}
	.newst25{fill:#352114;}
	.newst26{fill:#867059;}
	.newst27{fill:#0B0907;}
	.newst28{fill:#AB9177;}
	.newst29{fill:#2A1E14;}
	.newst30{fill:#715540;}
	.newst31{fill:none;}
	.newst32{fill:#1B2C1B;}
	.newst33{fill-rule:evenodd;clip-rule:evenodd;fill:#243620;}
	.newst34{fill:#262417;}
	.newst35{fill:#1F331F;}
	.newst36{fill-rule:evenodd;clip-rule:evenodd;fill:#1B2918;}
	.newst37{fill:#1B2918;}
	.newst38{fill:#102210;}
	.newst39{fill:#0F210F;}
	.newst40{fill:#0E200E;}
	.newst41{fill:url(#SVGID_3_);}
	.newst42{fill:#111B13;}
	.newst43{fill:url(#SVGID_4_);}
	.newst44{fill:url(#SVGID_5_);}
	.newst45{fill:url(#SVGID_6_);}
	.newst46{fill:url(#SVGID_7_);}
	.newst47{fill:url(#SVGID_8_);}
	.newst48{fill:#478353;}
	.newst49{fill:#3E7048;}
	.newst50{fill:#335D36;}
	.newst51{fill:#294A2F;}
	.newst52{fill:#2A2F04;}
	.newst53{fill:#181700;}
	.newst54{fill:#2A2F05;}
	.newst55{fill:#262F0E;}
	.newst56{fill:#2A2F03;}
	.newst57{fill:none;stroke:#1F1C11;stroke-width:0.7414;stroke-miterlimit:10;}
	.newst58{fill:#423A21;}
	.newst59{fill:#1F1C11;}
	.newst60{fill:#494A2C;}
	.newst61{fill:#1D2C1D;}
	.newst62{fill:#2C4226;}
	.newst63{opacity:0.6;}
	.newst64{fill:#A7A9AC;}
	.newst65{fill:#282919;}
	.newst66{fill-rule:evenodd;clip-rule:evenodd;fill:#2C4226;}
	.newst67{fill:none;stroke:#B8BBDE;stroke-width:5;stroke-linecap:round;stroke-miterlimit:10;}
	.newst68{fill:none;stroke:#B8BBDE;stroke-width:5;stroke-linecap:round;stroke-linejoin:round;stroke-miterlimit:10;}
	.newst69{fill:#34343E;}
	.newst70{fill-rule:evenodd;clip-rule:evenodd;}
	.newst71{fill:#0F1510;}
	.newst72{fill:#C7E4F7;}
	.newst73{opacity:0.74;}
	.newst74{opacity:0.33;}
	.newst75{opacity:0.58;fill-rule:evenodd;clip-rule:evenodd;fill:#FFFFFF;}
	.newst76{opacity:0.43;}
	.newst77{fill:#216B80;}
	.newst78{opacity:0.52;}
	.newst79{opacity:0.73;}
	.newst80{fill:#ABADA9;}
	.circle{fill:#FFFFFF;}
	.newst82{fill:#C5C4C4;}
	.newst83{fill:#8C9685;}
	.newst84{fill:none;stroke:#E0E0E0;stroke-width:4.9652;stroke-linecap:round;stroke-miterlimit:10;}
	.newst85{fill:#E0DFDF;}
</style>
<filter id="glow1" y="-10" height="40" x="-10" width="150">
	<feGaussianBlur stdDeviation="20"  result="blur1"/>
	<feMerge>
		<feMergeNode in="blur1" />
		<feMergeNode in="SourceGraphic" />
	</feMerge>
</filter>
<filter id="glow2" y="-10" height="40" x="-10" width="150">
	<feGaussianBlur stdDeviation="5"  result="blur1"/>
	<feMerge>
		<feMergeNode in="blur1" />
		<feMergeNode in="SourceGraphic" />
	</feMerge>
</filter>
<g id="bulb">
<path class="newst0" d="M960,376.5c-60.5,0-101.2,5-101.2,5s36.4,74.7,37.9,151.5l0.8,0.6h0l11.2,8.8v0l0,0l0,0v9.1
	c0.6,0.5,2,0.8,4.1,1.2v13.3l3.9,2.6l-0.1,0.2l0,0l-3.7,4.6c0,0,0,0,0,0.1c0,0,0,0,0,0c0,0,0.1,0.1,0.1,0.1c0,0,0,0.1,0.1,0.1
	c0,0.1,0.1,0.1,0.1,0.2c0,0,0.1,0.1,0.1,0.1c0.1,0.1,0.1,0.2,0.2,0.3c0,0.1,0.1,0.1,0.1,0.2c0.1,0.1,0.1,0.2,0.2,0.3
	c0,0.1,0.1,0.1,0.1,0.2c0.1,0.1,0.2,0.2,0.2,0.3c0,0,0.1,0.1,0.1,0.1c1.3,1.9,3,4.7,3.3,6.2c0.4,2.6-4.7,5.1-4.7,7.4
	c0,0.2,0,0.3,0.1,0.5c0,0.1,0,0.1,0.1,0.2c0,0.1,0.1,0.2,0.1,0.4c0,0.1,0.1,0.1,0.1,0.2c0.1,0.1,0.1,0.2,0.2,0.4
	c0,0.1,0.1,0.1,0.1,0.2c0.1,0.1,0.2,0.3,0.3,0.4c0,0.1,0.1,0.1,0.1,0.2c0.1,0.2,0.3,0.4,0.4,0.5c0.1,0.2,0.3,0.3,0.4,0.5
	c0,0,0,0,0,0.1c0.4,0.5,0.8,1,1.2,1.5h0c0.9,1.1,1.6,2.2,1.6,3.2c0,0.4-0.1,0.8-0.3,1.3c-0.2,0.4-0.5,1.2-1,2.1
	c-1.4,2.5-3.4,5.3-3.4,6.4c0,0.8,1.3,2,2.6,3.3l0,0c0.1,0.1,0.3,0.3,0.4,0.4c0.1,0.1,0.1,0.1,0.2,0.2c0.1,0.1,0.2,0.2,0.3,0.4
	c0.1,0.1,0.1,0.1,0.2,0.2c0.1,0.1,0.2,0.2,0.3,0.3c0.1,0.1,0.1,0.2,0.2,0.2c0.1,0.1,0.2,0.2,0.3,0.3c0.1,0.1,0.1,0.2,0.2,0.2
	c0.1,0.1,0.1,0.2,0.2,0.3c0.1,0.1,0.1,0.2,0.2,0.2c0.1,0.1,0.1,0.2,0.2,0.3c0,0.1,0.1,0.2,0.1,0.2c0.1,0.1,0.1,0.2,0.1,0.4
	c0,0.1,0,0.1,0.1,0.2c0,0.2,0.1,0.4,0.1,0.5c0,0.3-0.1,0.6-0.1,0.8c0,0,0,0,0,0c-0.3,0.9-1,1.6-1.7,2.2c0,0,0,0,0,0
	c-0.7,0.6-1.5,1.2-1.8,2.1c0,0.1,0,0.1,0,0.2c0,0.1-0.1,0.2-0.1,0.3c0,0.1,0,0.3,0,0.5c0,0.1,0,0.2,0,0.4c0,0,0,0.1,0,0.1
	c0,0.1,0.1,0.2,0.1,0.3c0,0,0,0.1,0.1,0.1c0.1,0.1,0.1,0.3,0.2,0.4c0,0,0,0.1,0.1,0.1c0.1,0.2,0.2,0.3,0.3,0.5c0,0,0.1,0.1,0.1,0.1
	c0.1,0.2,0.3,0.4,0.4,0.5c0,0,0.1,0.1,0.1,0.1c0.2,0.2,0.3,0.4,0.5,0.6c0.1,0.1,0.1,0.1,0.2,0.2c0.2,0.2,0.4,0.4,0.6,0.6
	c0.1,0.1,0.2,0.2,0.3,0.2c0.2,0.2,0.4,0.4,0.6,0.5c0,0,0.1,0.1,0.1,0.1c0,0,0,0,0,0c2.4,2,6.2,4.2,11.9,6l14.4,15.7h33.3l10.2-15.8
	c4.4-1.6,7.7-3.5,10.2-5.4c0,0,0,0,0,0c0.8-0.6,1.5-1.3,2.2-1.9c0,0,0.1-0.1,0.1-0.1c0.2-0.2,0.4-0.4,0.5-0.6c0,0,0.1-0.1,0.1-0.1
	c0.2-0.2,0.3-0.4,0.5-0.6c0,0,0.1-0.1,0.1-0.1c0.7-0.8,1.2-1.6,1.7-2.4c0,0,0-0.1,0.1-0.1c0.1-0.2,0.2-0.3,0.3-0.5
	c0-0.1,0.1-0.1,0.1-0.2c0.1-0.1,0.2-0.3,0.2-0.4c0-0.1,0.1-0.1,0.1-0.2c0.1-0.1,0.1-0.3,0.2-0.4c0-0.1,0.1-0.1,0.1-0.2
	c0.1-0.1,0.1-0.3,0.2-0.4c0,0,0-0.1,0-0.1c0.2-0.4,0.3-0.8,0.4-1.2c0-0.1,0-0.1,0.1-0.2c0-0.1,0-0.2,0.1-0.2c0-0.1,0-0.1,0.1-0.2
	c0-0.1,0-0.1,0-0.2c0-0.1,0-0.2,0.1-0.3c0,0,0,0,0-0.1c0,0,0,0,0,0c0.1-0.5,0.1-0.9,0.1-1.2c0-2.5-3.7-3.1-3.7-6
	c0-0.5,0.1-0.9,0.4-1.4c0,0,0,0,0,0c0,0,0,0,0,0c1.3-2.5,5.1-5.1,5.1-6.5c0-0.6-0.6-1.6-1.3-2.8c-1.2-2.3-2.9-5.3-3.2-5.8
	c-0.1-0.4-0.2-0.8-0.2-1.1c0-0.3,0.1-0.6,0.2-0.9c0-0.1,0.1-0.2,0.1-0.3c0,0,0-0.1,0.1-0.1c0.1-0.1,0.1-0.2,0.2-0.3
	c0,0,0.1-0.1,0.1-0.1c0.1-0.1,0.1-0.2,0.2-0.3c0-0.1,0.1-0.1,0.1-0.2c0.1-0.1,0.1-0.2,0.2-0.3c0.1-0.1,0.1-0.1,0.2-0.2
	c0.1-0.1,0.1-0.2,0.2-0.3c1.4-1.8,3.2-3.6,3.2-5c0-1.6-2.4-3.2-3.8-5c0,0,0,0,0,0c-0.1-0.1-0.2-0.3-0.3-0.4c0,0,0,0,0,0
	c-0.1-0.2-0.2-0.3-0.3-0.5c0,0,0,0,0-0.1c-0.1-0.1-0.1-0.2-0.1-0.4c0,0,0-0.1,0-0.1c0-0.1,0-0.2-0.1-0.3c0,0,0-0.1,0-0.1
	c0-0.1,0-0.3,0-0.4c0-0.2,0.1-0.3,0.1-0.5c0-0.1,0.1-0.2,0.1-0.4c0-0.1,0-0.1,0.1-0.2c0.1-0.2,0.1-0.3,0.2-0.5c0,0,0,0,0-0.1
	c0.1-0.2,0.2-0.4,0.3-0.6c1.4-2.7,3.8-6,3.8-6v-14.4c2.1-0.3,3.5-0.7,4.1-1.2v-9.1l0,0l11.2-8.8c0.8-0.4,0.8-0.6,0.8-0.6
	c1.4-76.8,37.8-151.5,37.8-151.5S1020.5,376.5,960,376.5z"/>
	<path class="newst80" d="M1007.2,567.3v-14.4c-12.4,2-47.2,1.9-47.2,1.9s-34.8,0.1-47.2-1.9v13.3l3.9,2.6l-3.9,4.8
		c0,0,4.3,5.6,4.7,8.2c0.4,2.6-4.7,5.1-4.7,7.4c0,2.2,4.7,5.6,4.7,8.1c0,2.5-4.7,8.1-4.7,9.8c0,1.7,5.5,5.1,5.5,7.9s-3.7,3.4-3.7,6
		c0,1.6,3.8,7.1,15.6,11l14.4,15.7h33.3l10.2-15.8c15.6-5.6,17.5-15.4,17.5-17.1c0-2.5-3.7-3.1-3.7-6s5.5-6.2,5.5-7.9
		s-4.7-7.3-4.7-9.8c0-2.5,4.7-5.8,4.7-8.1c0-2.3-5.1-4.8-4.7-7.4C1003,572.9,1007.2,567.3,1007.2,567.3z"/>
	<circle class="circle" cx="960" cy="333.1" r="110.9" filter="url(#glow1)"/>
	<path class="newst0" d="M1061.2,381.7c0,0-36.4,74.7-37.8,151.5c0,0-1.1,5-63.3,5c-48.6,0-59.9-3.1-62.5-4.4h0l-0.8-0.6
		c-1.4-76.8-37.9-151.5-37.9-151.5s40.7-5,101.2-5C1020.5,376.7,1061.2,381.7,1061.2,381.7z"/>
	<path class="newst31" d="M908.7,542.6c0,0,0.7,0.3,2.8,0.7L908.7,542.6z"/>
	<path class="newst82" d="M960,538.2c-48.6,0-59.9-3.1-62.5-4.4l11.2,8.8l2.8,0.7c5.1,1,18.1,2.6,48.5,2.6s43.4-1.6,48.5-2.6l2.8-0.7
		l11.2-8.8C1019.9,535.1,1008.6,538.2,960,538.2z"/>
	<path class="newst0" d="M1008.5,543.2c-5.1,1-18.1,2.6-48.5,2.6s-43.4-1.6-48.5-2.6c-2.1-0.4-2.8-0.7-2.8-0.7v9.1
		c0.6,0.5,2,0.8,4.1,1.2c12.4,2,47.2,1.9,47.2,1.9s34.8,0.1,47.2-1.9c2.1-0.3,3.5-0.7,4.1-1.2v-9.1
		C1011.3,542.6,1010.6,542.9,1008.5,543.2z"/>
	<path class="newst0" d="M971.9,575.5c0,0-29.6-2.2-55.4-6.6l-3.7,4.6c0,0,0.6,0.8,1.4,2C933,579.1,971.9,575.5,971.9,575.5z"/>
	<path class="newst0" d="M1006.6,581.3c-1.4-1.9-4.4-3.8-4-5.8c0.1-0.6,0.4-1.4,0.9-2.3c-26.5,11.2-54.6,9.5-82.7,7.7
		C948.2,588.6,978.2,587.3,1006.6,581.3z"/>
	<path class="newst0" d="M1002.7,590.1c0.8-2.3,4.3-5.1,4.5-7c-30.6,6.9-62.4,8.4-94.4,5.7c0,0.1-0.1,0.3-0.1,0.4
		c0,1.4,1.7,3.2,3.1,4.9C945,596.8,975.1,598.3,1002.7,590.1z"/>
	<path class="newst0" d="M1007.2,600.7c0-0.8-4-7.7-4.5-8.7c-24.5,7-57.2,10.6-85.5,6.4c-0.5,1.4-3.3,6.4-4.3,8
		C942.5,609.2,978,609.9,1007.2,600.7z"/>
	<path class="newst83" d="M1002.2,607.2c-0.1,0-0.2,0.1-0.4,0.1C1001.9,607.3,1002,607.3,1002.2,607.2
		C1002.1,607.2,1002.2,607.2,1002.2,607.2z"/>
	<path class="newst0" d="M1005.4,615.8c-29.3,6-60.3,10.7-88.9,2.1c-1,0.8-1.9,1.6-1.9,2.9c0,0.8,1,2.7,3.7,4.9
		c26.3,3.1,49.4,4.9,79.9,0.5C1003.3,622.2,1004.9,617.9,1005.4,615.8z"/>
	<path class="newst0" d="M918.1,615.7c27.5,0.1,57.4,1,83.7-8.4c-28.1,7.2-57.3,4.6-86.5,3c1.4,1.5,2.9,3.1,2.9,4.6
		C918.2,615.2,918.2,615.4,918.1,615.7z"/>
	<g filter="url(#glow2)">
		<path class="newst84" d="M966,527.3c-11,0-20-8.9-20-19.9v-10.7"/>
		<path class="newst84" d="M966,517.3c-5.5,0-10-4.4-10-9.9v-10.7"/>
		<line class="newst84" x1="965.9" y1="496.6" x2="965.9" y2="507.3"/>
	</g>
	<g>
		<g>
			<g>
				<path class="newst85" d="M895.3,480.8c-1.8-7.6-3.7-15.1-5.7-22.7c-2-7.5-4.1-15-6.4-22.4c-2.2-7.4-4.6-14.8-7.1-22.2
					c-2.5-7.4-5-14.7-7.5-22.1c3.4,7,6.4,14.2,9.2,21.5c2.8,7.3,5.3,14.7,7.6,22.2c2.2,7.5,4.2,15,5.9,22.7
					C893,465.3,894.3,473,895.3,480.8z"/>
			</g>
		</g>
		<g>
			<path class="newst85" d="M903.9,480.8c-1.6-7.6-3.3-15.1-5-22.6c-1.8-7.5-3.6-15-5.5-22.4c-1.9-7.4-4-14.9-6.1-22.3l-6.4-22.2
				c3,7.1,5.7,14.4,8.1,21.7c2.5,7.3,4.6,14.7,6.6,22.2c1.9,7.5,3.7,15,5.1,22.6C902,465.4,903.1,473.1,903.9,480.8z"/>
		</g>
		<g>
			<path class="newst85" d="M912.5,480.8l-4.4-22.5c-1.5-7.5-3-14.9-4.7-22.4c-1.6-7.4-3.4-14.9-5.1-22.3l-5.3-22.3
				c2.6,7.2,5,14.5,7.1,21.8c2.1,7.4,4,14.8,5.6,22.3c1.6,7.5,3.1,15,4.2,22.6C911.1,465.5,912,473.1,912.5,480.8z"/>
		</g>
		<g>
			<path class="newst85" d="M921.2,480.8l-3.7-22.4c-1.3-7.5-2.5-14.9-3.9-22.4c-1.3-7.4-2.7-14.9-4.1-22.3c-1.4-7.4-2.8-14.9-4.2-22.3
				c2.2,7.3,4.2,14.6,6,22c1.8,7.4,3.3,14.8,4.6,22.3c1.3,7.5,2.5,15,3.4,22.5C920.1,465.6,920.8,473.2,921.2,480.8z"/>
		</g>
		<g>
			<path class="newst85" d="M929.8,480.8c-1.1-7.5-2.1-14.9-3.1-22.4l-3.1-22.3l-3.2-22.3c-1.1-7.4-2.1-14.9-3.1-22.4
				c1.8,7.3,3.5,14.7,4.8,22.1c1.4,7.4,2.6,14.9,3.7,22.3c1,7.5,1.9,15,2.6,22.5C929.2,465.7,929.6,473.2,929.8,480.8z"/>
		</g>
		<g>
			<path class="newst85" d="M938.4,480.8c-0.9-7.5-1.7-14.9-2.5-22.4l-2.3-22.3l-2.2-22.4c-0.7-7.5-1.4-14.9-2-22.4
				c1.4,7.4,2.7,14.8,3.7,22.2c1.1,7.4,1.9,14.9,2.7,22.3c0.7,7.5,1.4,14.9,1.8,22.4C938.2,465.8,938.4,473.3,938.4,480.8z"/>
		</g>
		<g>
			<path class="newst85" d="M947.1,480.8c-0.7-7.4-1.3-14.9-1.8-22.3c-0.5-7.4-1-14.9-1.5-22.3c-0.4-7.5-0.9-14.9-1.2-22.4
				c-0.4-7.5-0.7-14.9-0.8-22.4c1,7.4,1.9,14.8,2.6,22.3c0.7,7.4,1.2,14.9,1.7,22.3c0.4,7.5,0.8,14.9,1,22.4
				C947.2,465.8,947.2,473.3,947.1,480.8z"/>
		</g>
		<g>
			<path class="newst85" d="M955.7,480.8c-0.6-7.4-1-14.9-1.3-22.3c-0.3-7.4-0.5-14.9-0.7-22.4c-0.1-7.5-0.2-14.9-0.2-22.4
				c0-7.5,0.1-14.9,0.4-22.4c0.6,7.4,1,14.9,1.3,22.3c0.3,7.5,0.5,14.9,0.7,22.4c0.1,7.5,0.2,14.9,0.2,22.4
				C956.1,465.8,956,473.3,955.7,480.8z"/>
		</g>
		<g>
			<path class="newst85" d="M964.3,480.8c-0.3-7.5-0.4-14.9-0.4-22.4c0-7.5,0.1-14.9,0.2-22.4c0.2-7.5,0.4-14.9,0.7-22.4
				c0.3-7.5,0.7-14.9,1.3-22.3c0.3,7.5,0.4,14.9,0.4,22.4c0,7.5-0.1,14.9-0.2,22.4c-0.2,7.5-0.4,14.9-0.7,22.4
				C965.3,465.9,964.9,473.3,964.3,480.8z"/>
		</g>
		<g>
			<path class="newst85" d="M973,480.8c-0.2-7.5-0.1-15,0.1-22.4c0.2-7.5,0.5-14.9,1-22.4c0.5-7.5,1-14.9,1.7-22.3
				c0.7-7.4,1.5-14.9,2.6-22.3c-0.2,7.5-0.4,14.9-0.8,22.4c-0.4,7.5-0.8,14.9-1.2,22.4c-0.5,7.4-0.9,14.9-1.5,22.3
				C974.3,465.9,973.7,473.3,973,480.8z"/>
		</g>
		<g>
			<path class="newst85" d="M981.6,480.8c0-7.5,0.2-15,0.7-22.5c0.4-7.5,1-15,1.8-22.4c0.8-7.5,1.6-14.9,2.7-22.3
				c1-7.4,2.3-14.8,3.7-22.2c-0.6,7.5-1.2,14.9-2,22.4l-2.2,22.4l-2.3,22.3C983.3,465.9,982.5,473.3,981.6,480.8z"/>
		</g>
		<g>
			<path class="newst85" d="M990.2,480.8c0.2-7.5,0.6-15.1,1.3-22.6c0.7-7.5,1.6-15,2.6-22.5c1.1-7.5,2.3-14.9,3.7-22.3
				c1.4-7.4,3-14.8,4.8-22.1c-1,7.5-2,14.9-3.1,22.4l-3.2,22.3l-3.1,22.3C992.3,465.8,991.3,473.3,990.2,480.8z"/>
		</g>
		<g>
			<path class="newst85" d="M998.8,480.8c0.4-7.6,1-15.1,2-22.7c0.9-7.5,2.1-15,3.4-22.5c1.4-7.5,2.9-14.9,4.6-22.3
				c1.7-7.4,3.7-14.7,6-22c-1.4,7.5-2.8,14.9-4.2,22.3c-1.4,7.4-2.8,14.9-4.1,22.3c-1.4,7.4-2.6,14.9-3.9,22.4L998.8,480.8z"/>
		</g>
		<g>
			<path class="newst85" d="M1007.5,480.8c0.6-7.6,1.4-15.2,2.6-22.8c1.2-7.6,2.6-15.1,4.2-22.6c1.7-7.5,3.5-14.9,5.6-22.3
				c2.1-7.4,4.4-14.6,7.1-21.8l-5.3,22.3c-1.8,7.4-3.5,14.8-5.1,22.3c-1.7,7.4-3.2,14.9-4.7,22.4L1007.5,480.8z"/>
		</g>
		<g>
			<path class="newst85" d="M1016.1,480.8c0.8-7.7,1.9-15.3,3.3-22.9c1.4-7.6,3.1-15.1,5.1-22.6c2-7.5,4.1-14.9,6.6-22.2
				c2.4-7.3,5.1-14.6,8.1-21.7l-6.4,22.2c-2.1,7.4-4.2,14.8-6.1,22.3c-2,7.4-3.8,14.9-5.5,22.4
				C1019.4,465.7,1017.7,473.2,1016.1,480.8z"/>
		</g>
		<g>
			<g>
				<path class="newst85" d="M1024.7,480.8c0.9-7.7,2.3-15.5,4-23.1c1.7-7.6,3.7-15.2,5.9-22.7c2.3-7.5,4.8-14.9,7.6-22.2
					c2.8-7.3,5.8-14.5,9.2-21.5c-2.5,7.4-5.1,14.7-7.5,22.1c-2.4,7.4-4.8,14.8-7.1,22.2c-2.3,7.4-4.4,14.9-6.4,22.4
					C1028.5,465.6,1026.6,473.2,1024.7,480.8z"/>
			</g>
		</g>
	</g>
</g>
<script type="text/javascript">

<!-- let circle2 = document.querySelector('.circle');
circles.push(circle2);
let bulb = document.getElementById('bulb');
bulb.style.transform = `translateY(${YScroll/-10}px)`;

bulb.addEventListener('click', changeColor)
bulb.style.transform = `translateY(${YScroll/-10}px)`;

document.addEventListener('scroll', (e) => {
	bulb.style.transform = `translateY(${YScroll/-10}px)`;
}); -->

</script>
</svg>