<?xml version="1.0" encoding="utf-8"?>
<!-- Generator: Adobe Illustrator 24.2.1, SVG Export Plug-In . SVG Version: 6.00 Build 0)  -->
<svg version="1.1" id="rfgl" xmlns="http://www.w3.org/2000/svg" xmlns:xlink="http://www.w3.org/1999/xlink" x="0px" y="0px"
	 viewBox="0 0 1920 1080" style="enable-background:new 0 0 1920 1080;" preserveAspectRatio="xMidYMax slice" xml:space="preserve">
<style type="text/css">
	.rlst0{fill:none;}
	.rlst1{fill:#060706;}
	.rlst2{fill:#0F1813;}
	.rlst3{fill:#131A14;}
	.rlst4{fill:#2B3721;}
	.rlst5{fill:#484F3A;}
	.rlst6{fill:#505744;}
	.rlst7{fill:#616654;}
	.rlst8{fill:#535B4A;}
	.rlst9{fill:#404733;}
</style>
<rect x="-1.8" y="0.4" class="rlst0" width="1547" height="1081.8"/>
<g>
	<path class="rlst1" d="M2114.7,954.6c37.1,14.1,61.9,36.5,85.4,89c10.9-10.9,22.4-101.3,3.5-120.2s-116.1-28.9-116.1-38.3
		c0-9.4,91.9,2.9,91.9,2.9s-2.4-41.2-56.6-88.4c-43-37.4-127.4,20.2-168.8,37c-1.5-27.2,41.2-108.5-13.2-128.8
		c-5.2-1.9-10.4-3.4-15.7-4.6V257.6c1.2-1.1,2.4-2.1,3.6-3.2c2-10,0.3-23.2-3.6-36.8v-7.3c8.9,27.4,14.2,52.4,14.2,52.4
		s29.5-31.2,53-82.5c22.1-48-29.2-84.6-67.2-105.5V45.4c2.1,0.6,4.3,1.4,6.6,2.2c37.1,14.1,61.9,36.5,85.4,89
		c10.9-10.9,22.4-101.3,3.5-120.2c-13.3-13.3-65.9-22.3-95.5-29.7v-12.1c27.1,0.5,71.4,6.5,71.4,6.5s-2.4-41.2-56.6-88.4
		c-43-37.4-127.4,20.2-168.8,37c-1.5-27.2,41.2-108.5-13.2-128.8c-48.6-18.2-106.5,1.3-106.5,1.3s41.6,66.7,34.2,70.5
		s-28.7-62.6-49-67.4c-14.3-3.3-29.1-0.6-42.9,5c-10.2-0.6-21.5,1.1-33.8,6.3c-62.1,26.2-90.6,32.3-106.1,50.8s-13,39.6-28.4,26.8
		c-28.8-24.1,29.7-80.1-26.9-102.9c-63-25.3-122.4,7.3-122.4,7.3s30.7-13.4,49.4,10.4c18.7,23.8,13.7,34.9,1.5,30
		c-12.3-4.8-125.4-92.9-162.1-6.9c0,0,71.5-8.6,89.9,6.8s53.1,38.4,49.9,42.3c-3.2,3.8-115.1-54.2-149.9-26.6s-50.7,61.3-45.5,93.4
		c18.1-25.6,36.5-41.7,72-44.9s130.2,14.4,94.7,20.5s-136.6,19.9-162.5,42c-25.8,22.1-16.6,59.7-11.4,87.4
		c23-27.5,48.3-45.1,89.4-62.1S1299-40,1300.1-28.2c1,11.7-83.4,26.4-107.4,32.6c-24,6.3-95.7,44.3-96.1,56.8s1.7,49.2,18,59.6
		c19.8-43.7,36.7-66.3,72.8-78.6c36.2-12.4,103.7-34.1,107.6-24.1c3.8,10-69.6,35.5-97.4,48.3s-87.9,35.9-78.4,62.9s17,34.6,13,56.5
		c41.3-24.7,71.8-63.8,93.5-79.3s53.1-37.8,61.3-28.5c6.8,7.7-20.5,24.2-41.6,36.3c-20.2,5.8-38.9,19-51.9,30.7
		c-21.7,14.3-42.7,31.9-41,47.1c-2.9,2.1-5.8,4.5-8.7,7.2c-41.6,39.7-63.3,75.2-63.3,75.2s100.8-33.8,125.8-23.5
		c6.2,2.5,8.5,6.6-6.4,2.4c-15-4.3-83.3,12.5-112.2,32.6c-22.8,45.4-35.7,99-35.7,99s23-42.1,108.3-63.3
		c79.7-19.8,119.7-21.7,118.4-13.3c-1.3,8.4-65,5.6-128.4,26.7c-66.9,22.2-99.6,63.8-99.6,63.8s-4,45.4,1.9,92.5
		c46.4-48.1,105.4-77.4,126-89.4c20.2-11.7,72.8-40.4,73.6-25.2c0.8,15.3-59.5,19.1-115.3,59.6c-59,42.8-75.5,60.8-76.1,82.8
		c-0.5,22.1,27.9,45.6,27.9,45.6s4.9-37.4,52-66.5c45.1-27.9,66.5-41.1,69.1-35.1s-70.6,36.4-94.7,83.5c-24.8,48.6,16.7,77.6,5,117
		c33.6-22.1,73.8,22.4,108.7-12.5c34.9-34.9,39.2-119.9,48-119.9s8.8,23,8.8,70.1s-39.5,86.6-39.5,86.6s36-2.4,60.3-8.5
		c-57.3,26.5,5.1,87.4-26.5,113.8c-17.2,14.4-14.4-9.2-31.8-30s-49.3-27.6-119-57s-110.9,38.5-105.9,64.2
		c40.1-62.8,149.8,0.7,142,7.3c-7.9,6.6-149.1,13.3-149.1,13.3s-13.8,28-13.3,74.4c28.3-23.7,160.7-38.8,170.8-33.9
		c10.2,4.9-12.8,17.4-67.8,31.8c-55,14.3-95.1,32.7-95.1,32.7s6,59.6,26.3,113.8c13.7-71.8,133.4-134.7,141.8-124.7
		s-26.3,23.2-51.7,44.5c-25.4,21.3-72.6,79.8-61.8,92.7c10.8,12.9,60.3,88,60.3,88s1.2-53.1,24.8-99.3c23.5-46.2,91-89.4,96-83.5
		c4.9,5.9-1.2,21.5-33.7,48.7s-56.2,77.6-61.3,135.3c13.8,1.2,54,35.7,72.7,72.1c-7.7-47.4,16.8-99.5,30.2-143.6
		c13.4-44.1,40-69.6,60.8-67.7c20.7,1.8-20.1,58.4-41.8,100.3c-21.6,41.9-23,107.4-23,107.4s57.8,21.6,97.7,42
		c-27.7-63.7-18.8-129.5,5.9-166.6c24.7-37.1,14.4,39.6-0.9,82.5s3.9,95.9,3.9,95.9l40.5,12.1c0,0,8.2-43.4,4.3-70.6
		c-3.9-27.2,2.6-44.2,10.2-47.5s19.3,51.1,28.5,90.1c12.5-17.8,36.1-7.4,60.9,8.4c3.8-42.1,46.8-30,26.9-67.6s-72-72.6-64.3-79
		s52.1,21.6,72.8,46.3c20.7,24.7,18.1,46.4-2.2,50.6c22.5,8,45-17.9,51-47.5s-67.9-67.7-90.6-81c-12.1-7.1-31-17.4-44.6-27.1h38.3
		c5.3,3.6,10.4,7.3,15.1,10.7c23.1,16.5,55.1,56.8,97.8,84.5c-0.1,0.9-0.1,1.8-0.2,2.7c-0.5,22.1,27.9,45.6,27.9,45.6
		s4.9-37.4,52-66.5c45.1-27.9,66.5-41.1,69.1-35.1s-70.6,36.4-94.7,83.5c-24.8,48.6,16.7,77.6,5,117c33.6-22.1,73.8,22.4,108.7-12.5
		c34.9-34.9,39.2-119.9,48-119.9s8.8,23,8.8,70.1s-39.5,86.6-39.5,86.6s44.2-2.9,67.7-10.6c23.6-7.7,35.3-33,44.2-94.8
		c8.8-61.9-28.9-116.6-10-121.9c18.8-5.3,31.8,55.4,31.8,77.2c0,21.8-2.9,88.4-26.5,139.6c36.5-22.4,102.5-39.8,102.5-39.8
		s27.1-40.4,10.6-104s-63.6-121.4-54.2-126.1c9.4-4.7,34.8,33.6,63.6,112.5c28.9,78.9-2.6,117.5-2.6,117.5s58-40.6,97.5-75.7
		c6.5-31.8-25.6-95.2-40.4-107.1c-14.8-11.9-57.9-66.3-52.4-71.8s25.6,49.9,53.9,68.8c28.3,18.8,49.5,118.4,49.5,118.4
		s29.5-31.2,53-82.5c23.6-51.2-36.5-89.5-74.8-109.6C2062.3,957.5,2077.6,940.4,2114.7,954.6z M1207.8,179.5
		c6.8-6.3,14.6-12.3,22.2-17.3c7.6,0.8,14.3,2.3,20.5,4.3c-5.5,5.4-12.2,11.9-19.1,19C1223.8,182.7,1215.9,180.6,1207.8,179.5z
		 M1575.8-146.2c27.1,0.8,44.5,7.7,60,20.1c8.1,6.5,11.9,12.9,12,17.6c-8.3-0.4-19.8-1.1-32.5-1.9c-21.3-11.6-52.7-24.5-82.8-15.7
		C1540.3-132.1,1556.9-141,1575.8-146.2z M1373.7,667.3c-0.3,0-0.7,0-1,0c0.3-0.2,0.7-0.3,1-0.5V667.3z M1322.3,673.7
		c18.2-10.8,28.2-36.9,36-91.2c8.8-61.9-28.9-116.6-10-121.9c10.9-3.1,19.8,16,25.4,36.8v111.5c-3.3,19.2-8.4,39.6-15.9,58.6
		C1346.4,668.1,1334.5,670,1322.3,673.7z M1677.7,1035.9c-38.6,28-59,45.4-68.7,60.2c2-8.6,6.1-17.1,10.9-29.6
		c22.6-19.1,46-34.3,65.2-45.7h16.2C1693.5,1025.2,1685.6,1030.2,1677.7,1035.9z"/>
	<g>
		<path class="rlst2" d="M1543.4,3.1c27-27-37.4-78.6,18-106.8c61.6-31.4,124.8-3.6,124.8-3.6s-32.4-10.8-49.2,15
			c-16.8,25.8-10.8,36.6,1.2,30.6S1757-167.3,1802-83.3c0,0-73.3-2.3-90.6,15c-17.2,17.2-50.4,43.8-46.8,47.4s111.9-65.4,149.7-40.5
			c37.8,24.9,57,57.6,54.6,90.6c-20.7-24.3-40.8-39-77.1-39c-36.3,0-130.8,26.4-94.2,29.4c36.6,3,140.4,7.8,168.6,27.9
			s22.2,59.1,19.5,87.6c-25.8-25.8-53.1-41.4-96.3-54.9c-43.2-13.5-111.9-21.6-111.9-9.6s87,19.2,111.9,23.4
			c24.9,4.2,101.1,36.3,102.6,48.9s2.7,50.1-12.9,62.1c-24-42.6-43.2-63.9-81-73.2s-108.3-25.2-111.3-14.7s73.8,29.7,103.2,40.2
			c29.4,10.5,92.4,28.5,85.2,56.7c-7.2,28.2-14.1,36.6-8.1,58.5c-44.1-21.3-78.6-58.2-102-72s-57.3-33.6-64.8-23.4
			c-7.5,10.2,36.6,28.8,58.2,39s91.5,38.7,88.5,66s-21.3,52.5-42.3,47.1c18-5.4,18.6-25.2-2.1-45.9c-20.7-20.7-63.1-42.4-69.6-36
			c-6.4,6.4,43.5,33.9,64.5,66.3s-18.9,24.9-18.9,63.3c-23.7-12.3-45.9-19.8-55.8-2.7c-11.4-34.5-26.4-82.8-33-79.2
			c-6.6,3.6-11.1,19.5-5.4,43.8s1.8,64.2,1.8,64.2l-37.6-7.6c0,0-21.6-46.3-11.2-86.4c10.3-40,13.5-110.2-5.8-74.7
			s-22,95.8,8.1,151.2c-37.8-15.3-91.8-30.1-91.8-30.1s-4-59.4,12.1-99c16.2-39.6,48.6-94,29.7-94s-40.9,25.2-49.5,66.1
			c-8.5,40.9-26.5,90-15.7,132.3c-19.8-31.5-58.9-59.4-71.5-59.4c0-52.6,17.3-100.1,44.5-127.3s31.5-41.8,26.5-46.8
			c-5-4.9-62.5,39.6-80.1,83.2c-17.5,43.6-14.4,91.8-14.4,91.8s-50.8-63.9-61.6-74.7c-10.8-10.8,27.1-67.5,48.4-88.8
			s51.6-36,43.2-44.4s-111.6,58.2-118.2,124.2c-22.8-47.4-33-100.8-33-100.8s34.8-19.8,83.4-37.2s68.4-30.6,58.8-34.2
			c-9.6-3.6-128.1,20.7-151.8,44.4c-4.2-42,6-68.4,6-68.4s127.2-17.4,133.8-24c6.6-6.6-97.8-55.2-129,4.8
			c-6.6-22.8,25.2-87.6,90.6-66.6s94.8,24.6,112.2,42C1529.6-4.1,1529,17.5,1543.4,3.1z"/>
		<path class="rlst2" d="M1219.7,43.2c27-27-37.4-78.6,18-106.8c61.6-31.4,124.8-3.6,124.8-3.6s-32.4-10.8-49.2,15
			c-16.8,25.8-10.8,36.6,1.2,30.6s118.8-105.6,163.8-21.6c0,0-73.3-2.3-90.6,15c-17.2,17.2-50.4,43.8-46.8,47.4
			s111.9-65.4,149.7-40.5c37.8,24.9,57,57.6,54.6,90.6c-20.7-24.3-40.8-39-77.1-39c-36.3,0-130.8,26.4-94.2,29.4
			c36.6,3,140.4,7.8,168.6,27.9s22.2,59.1,19.5,87.6c-25.8-25.8-53.1-41.4-96.3-54.9c-43.2-13.5-111.9-21.6-111.9-9.6
			s87,19.2,111.9,23.4s101.1,36.3,102.6,48.9s2.7,50.1-12.9,62.1c-24-42.6-43.2-63.9-81-73.2s-108.3-25.2-111.3-14.7
			s73.8,29.7,103.2,40.2c29.4,10.5,92.4,28.5,85.2,56.7c-7.2,28.2-14.1,36.6-8.1,58.5c-44.1-21.3-78.6-58.2-102-72
			s-57.3-33.6-64.8-23.4c-7.5,10.2,36.6,28.8,58.2,39c21.6,10.2,91.5,38.7,88.5,66s-21.3,52.5-42.3,47.1c18-5.4,18.6-25.2-2.1-45.9
			c-20.7-20.7-63.1-42.4-69.6-36s43.5,33.9,64.5,66.3s-18.9,24.9-18.9,63.3c-23.7-12.3-45.9-19.8-55.8-2.7
			c-11.4-34.5-26.4-82.8-33-79.2c-6.6,3.6-11.1,19.5-5.4,43.8s1.8,64.2,1.8,64.2l-37.6-7.6c0,0-21.6-46.3-11.2-86.4
			c10.3-40,13.5-110.2-5.8-74.7s-22,95.8,8.1,151.2c-37.8-15.3-91.8-30.1-91.8-30.1s-4-59.4,12.1-99c16.2-39.6,48.6-94,29.7-94
			s-40.9,25.2-49.5,66.1c-8.5,40.9-26.5,90-15.7,132.3c-19.8-31.5-58.9-59.4-71.5-59.4c0-52.6,17.3-100.1,44.5-127.3
			s31.5-41.8,26.5-46.8c-4.9-4.9-62.5,39.6-80.1,83.2c-17.5,43.6-14.4,91.8-14.4,91.8s-50.8-63.9-61.6-74.7
			c-10.8-10.8,27.1-67.5,48.4-88.8s51.6-36,43.2-44.4s-111.6,58.2-118.2,124.2c-22.8-47.4-33-100.8-33-100.8s34.8-19.8,83.4-37.2
			s68.4-30.6,58.8-34.2S998.7,107.1,975,130.8c-4.2-42,6-68.4,6-68.4s127.2-17.4,133.8-24c6.6-6.6-97.8-55.2-129,4.8
			c-6.6-22.8,25.2-87.6,90.6-66.6s94.8,24.6,112.2,42C1205.9,36,1205.3,57.6,1219.7,43.2z"/>
		<path class="rlst3" d="M1727.8,360.3c56.4-40.3,114-57.6,159.6-12s74.4,140.4,50.4,199.2c-30-64.8-124.8-106.8-139.2-106.8
			c-14.4,0,51.6,48,80.4,76.8s66.6,96.6,14.4,148.8c-38.4-75.6-105.6-186-144-162c0,0,128.4,120,128.4,177.6
			C1840,719.6,1831,731,1831,731s-25.8-69-44.4-87.6s-51.6-96-69.6-87.6s109.8,163.8,92.4,181.2s-46.8,27.6-46.8,27.6
			s-22.8-80.1-30.9-60.3S1747,770,1747,770s-99,4.5-111.6,57.6c-58.5-49.5-166.5-126-94.5-178.2s104.4-55.2,97.2-75.3
			c-7.2-20.1-108-9.3-137.7,44.7c0-72,49.5-120.6,103.5-135c16.2-37.8-45.9-18.9-81-13.5s-111.6,61.2-111.6,61.2v-89.1
			c0,0,91.8-31.5,153-31.5s47.7,0,47.7-13.5s-95.4-51.3-212.4-3.6c9.9-54.9,34.2-90.9,81.9-90.9c47.7,0,123.3,26.1,132.3,17.1
			s-87.3-45.9-118.8-39.6c21.6-40.5,108.5-117,178-71.1s37.1,146.7,37.1,146.7S1713.5,370.5,1727.8,360.3z"/>
		<path class="rlst2" d="M1349.6,1161c11.9-40.1-30.4-69.6-5.1-119.1c24.5-48,99.1-78.9,96.4-85s-24.4,7.3-70.4,35.7
			c-47.9,29.7-53,67.7-53,67.7s-29-23.9-28.4-46.4c0.6-22.4,17.4-40.8,77.5-84.3c56.9-41.2,118.3-45.2,117.5-60.7
			s-54.3,13.7-75,25.6c-21,12.2-81.1,42-127.6,91c-6-47.9-2-94.2-2-94.2s33.3-42.4,101.4-65c64.5-21.4,129.4-18.6,130.7-27.2
			c1.3-8.5-39.4-6.6-120.6,13.6c-86.9,21.6-110.3,64.5-110.3,64.5s13.1-54.5,36.4-100.8c29.4-20.4,99-37.5,114.2-33.2
			c15.1,4.3,12.7,0.1,6.5-2.5c-25.5-10.5-128.1,23.9-128.1,23.9s22.1-36.2,64.5-76.5c40.6-38.7,92.2-15.5,120.5,0.9
			c27.8,16.1,37.8-1.2,15.5-19.1c-22.5-18-48.9-24.8-102.7-17.9c6.8-12,57.7-62.7,103.8-51.9c20.7,4.8,42.4,72.5,49.9,68.6
			c7.5-3.8-34.9-71.8-34.9-71.8s58.9-19.9,108.4-1.4c55.3,20.7,11.8,103.5,13.4,131.2c42.2-17.1,128-75.8,171.9-37.7
			c55.2,48,57.6,90,57.6,90s-93.6-12.6-93.6-3s99,19.8,118.2,39s7.5,111.3-3.6,122.4c-24-53.4-49.2-76.2-87-90.6
			c-37.8-14.4-53.4,3-14.4,23.4s100.2,59.4,76.2,111.6c-24,52.2-54,84-54,84s-21.6-101.4-50.4-120.6c-28.8-19.2-49.3-75.7-54.9-70
			c-5.6,5.6,38.2,61,53.3,73.1c15.1,12.1,47.8,76.7,41.2,109.1c-40.2,35.7-99.3,77.1-99.3,77.1s32.1-39.3,2.7-119.7
			s-55.2-119.4-64.8-114.6c-9.6,4.8,38.4,63.6,55.2,128.4c16.8,64.8-10.8,105.9-10.8,105.9s-67.2,17.7-104.4,40.5
			c24-52.2,27-120,27-142.2c0-22.2-13.2-84-32.4-78.6c-19.2,5.4,19.2,61.2,10.2,124.2s-21,88.8-45,96.6c-24,7.8-69,10.8-69,10.8
			s40.2-40.2,40.2-88.2s0-71.4-9-71.4s-13.3,86.5-48.9,122.1C1424.8,1183.8,1383.8,1138.5,1349.6,1161z"/>
		<path class="rlst2" d="M1148.8,880c11.9-40.1-30.4-69.6-5.1-119.1c24.5-48,99.1-78.9,96.4-85s-24.4,7.3-70.4,35.7
			c-47.9,29.7-53,67.7-53,67.7s-28.9-23.9-28.4-46.4c0.6-22.4,17.4-40.8,77.5-84.3c56.9-41.2,118.3-45.2,117.5-60.7
			s-54.3,13.7-75,25.6c-21,12.2-81.1,42-127.6,91c-6-47.9-2-94.2-2-94.2s33.3-42.4,101.4-65c64.5-21.4,129.4-18.6,130.7-27.2
			c1.3-8.5-39.4-6.6-120.6,13.6c-86.9,21.6-110.3,64.5-110.3,64.5s13.1-54.5,36.4-100.8c29.4-20.4,99-37.5,114.2-33.2
			c15.1,4.3,12.7,0.1,6.5-2.5c-25.5-10.5-128.1,23.9-128.1,23.9s22.1-36.2,64.5-76.6c40.6-38.7,92.2-15.5,120.5,0.9
			c27.8,16.1,37.8-1.2,15.5-19.1c-22.5-18-48.9-24.7-102.7-17.9c6.8-12,57.7-62.7,103.8-51.9c20.7,4.8,42.4,72.5,49.9,68.6
			c7.5-3.8-34.9-71.8-34.9-71.8s58.9-19.9,108.4-1.4c55.3,20.7,11.8,103.5,13.4,131.2c42.2-17.1,128.1-75.8,171.9-37.7
			c55.2,48,57.6,90,57.6,90s-93.6-12.6-93.6-3s99,19.8,118.2,39s7.5,111.3-3.6,122.4c-24-53.4-49.2-76.2-87-90.6
			c-37.8-14.4-53.4,3-14.4,23.4s100.2,59.4,76.2,111.6c-24,52.2-54,84-54,84s-21.6-101.4-50.4-120.6c-28.8-19.2-49.3-75.7-54.9-70
			c-5.6,5.6,38.2,61,53.3,73.1c15.1,12.1,47.8,76.7,41.2,109.1c-40.2,35.7-99.3,77.1-99.3,77.1s32.1-39.3,2.7-119.7
			s-55.2-119.4-64.8-114.6c-9.6,4.8,38.4,63.6,55.2,128.4c16.8,64.8-10.8,105.9-10.8,105.9s-67.2,17.7-104.4,40.5
			c24-52.2,27-120,27-142.2s-13.2-84-32.4-78.6c-19.2,5.4,19.2,61.2,10.2,124.2s-21,88.8-45,96.6s-69,10.8-69,10.8
			s40.2-40.2,40.2-88.2s0-71.4-9-71.4s-13.3,86.5-48.9,122.1C1224,902.9,1183,857.6,1148.8,880z"/>
		<path class="rlst4" d="M1349.6,926.3c11.9-40.1-30.4-69.6-5.1-119.1c24.5-48,99.1-78.9,96.4-85s-24.4,7.3-70.4,35.7
			c-47.9,29.7-53,67.7-53,67.7s-29-23.9-28.4-46.4c0.6-22.4,17.4-40.8,77.5-84.3c56.9-41.2,118.3-45.2,117.5-60.7
			s-54.3,13.7-75,25.6c-21,12.2-81.1,42-127.6,91c-6-47.9-2-94.2-2-94.2s33.3-42.4,101.4-65c64.5-21.4,129.4-18.6,130.7-27.2
			c1.3-8.5-39.4-6.6-120.6,13.6c-86.9,21.6-110.3,64.5-110.3,64.5s13.1-54.5,36.4-100.8c29.4-20.4,99-37.5,114.2-33.2
			c15.1,4.3,12.7,0.1,6.5-2.5c-25.5-10.5-128.1,23.9-128.1,23.9s22.1-36.2,64.5-76.5c40.6-38.7,92.2-15.5,120.5,0.9
			c27.8,16.1,37.8-1.2,15.5-19.1c-22.5-18-48.9-24.7-102.7-17.9c6.8-12,57.7-62.7,103.8-51.9c20.7,4.8,42.4,72.5,49.9,68.6
			c7.5-3.8-34.9-71.8-34.9-71.8s58.9-19.9,108.4-1.4c55.3,20.7,11.8,103.5,13.4,131.2c42.2-17.1,128-75.8,171.9-37.7
			c55.2,48,57.6,90,57.6,90s-93.6-12.6-93.6-3s99,19.8,118.2,39s7.5,111.3-3.6,122.4c-24-53.4-49.2-76.2-87-90.6
			c-37.8-14.4-53.4,3-14.4,23.4s100.2,59.4,76.2,111.6c-24,52.2-54,84-54,84s-21.6-101.4-50.4-120.6c-28.8-19.2-49.3-75.7-54.9-70
			c-5.6,5.6,38.2,61,53.3,73.1c15.1,12.1,47.8,76.7,41.2,109.1c-40.2,35.7-99.3,77.1-99.3,77.1s32.1-39.3,2.7-119.7
			s-55.2-119.4-64.8-114.6c-9.6,4.8,38.4,63.6,55.2,128.4c16.8,64.8-10.8,105.9-10.8,105.9s-67.2,17.7-104.4,40.5
			c24-52.2,27-120,27-142.2s-13.2-84-32.4-78.6c-19.2,5.4,19.2,61.2,10.2,124.2s-21,88.8-45,96.6s-69,10.8-69,10.8
			s40.2-40.2,40.2-88.2s0-71.4-9-71.4s-13.3,86.5-48.9,122.1C1424.7,949.1,1383.8,903.8,1349.6,926.3z"/>
		<path class="rlst4" d="M1159.8,788.6c11.9-40.1-30.4-69.6-5.1-119.1c24.5-48,99.1-78.9,96.4-85s-24.4,7.3-70.4,35.7
			c-47.9,29.7-53,67.7-53,67.7s-28.9-23.9-28.4-46.4c0.6-22.4,17.4-40.8,77.5-84.3c56.9-41.2,118.3-45.2,117.5-60.7
			s-54.3,13.7-75,25.6c-21,12.2-81.1,42-127.6,91c-6-47.9-2-94.2-2-94.2s33.3-42.4,101.4-65c64.5-21.4,129.4-18.6,130.7-27.2
			c1.3-8.5-39.4-6.6-120.6,13.6c-86.9,21.6-110.3,64.5-110.3,64.5s13.1-54.5,36.4-100.8c29.4-20.4,99-37.5,114.2-33.2
			c15.1,4.3,12.7,0.1,6.5-2.5c-25.5-10.5-128.1,23.9-128.1,23.9s22.1-36.2,64.5-76.5c40.6-38.7,92.2-15.5,120.5,0.9
			c27.8,16.1,37.8-1.2,15.5-19.1c-22.5-18-48.9-24.7-102.7-17.9c6.8-12,57.7-62.7,103.8-51.9c20.7,4.8,42.4,72.5,49.9,68.6
			c7.5-3.8-34.9-71.8-34.9-71.8s58.9-19.9,108.4-1.4c55.3,20.7,11.8,103.5,13.4,131.2c42.2-17.1,128-75.8,171.9-37.7
			c55.2,48,57.6,90,57.6,90s-93.6-12.6-93.6-3s99,19.8,118.2,39s7.5,111.3-3.6,122.4c-24-53.4-49.2-76.2-87-90.6s-53.4,3-14.4,23.4
			c39,20.4,100.2,59.4,76.2,111.6c-24,52.2-54,84-54,84S1608,592,1579.2,572.8s-49.3-75.7-54.9-70c-5.6,5.6,38.2,61,53.3,73.1
			c15.1,12.1,47.8,76.7,41.2,109.1c-40.2,35.7-99.3,77.1-99.3,77.1s32.1-39.3,2.7-119.7S1467,523,1457.4,527.8
			c-9.6,4.8,38.4,63.6,55.2,128.4c16.8,64.8-10.8,105.9-10.8,105.9s-67.2,17.7-104.4,40.5c24-52.2,27-120,27-142.2
			s-13.2-84-32.4-78.6c-19.2,5.4,19.2,61.2,10.2,124.2s-21,88.8-45,96.6s-69,10.8-69,10.8s40.2-40.2,40.2-88.2s0-71.4-9-71.4
			s-13.3,86.5-48.9,122.1C1235,811.4,1194,766.1,1159.8,788.6z"/>
		<path class="rlst5" d="M1579.4,246.7c27-27-37.4-78.6,18-106.8c61.6-31.4,124.8-3.6,124.8-3.6s-32.4-10.8-49.2,15
			c-16.8,25.8-10.8,36.6,1.2,30.6S1793,76.4,1838,160.3c0,0-73.3-2.3-90.6,15c-17.2,17.2-50.4,43.8-46.8,47.4s111.9-65.4,149.7-40.5
			s57,57.6,54.6,90.6c-20.7-24.3-40.8-39-77.1-39c-36.3,0-130.8,26.4-94.2,29.4c36.6,3,140.4,7.8,168.6,27.9s22.2,59.1,19.5,87.6
			c-25.8-25.8-53.1-41.4-96.3-54.9c-43.2-13.5-111.9-21.6-111.9-9.6s87,19.2,111.9,23.4c24.9,4.2,101.1,36.3,102.6,48.9
			s2.7,50.1-12.9,62.1c-24-42.6-43.2-63.9-81-73.2s-108.3-25.2-111.3-14.7s73.8,29.7,103.2,40.2c29.4,10.5,92.4,28.5,85.2,56.7
			c-7.2,28.2-14.1,36.6-8.1,58.5c-44.1-21.3-78.6-58.2-102-72s-57.3-33.6-64.8-23.4s36.6,28.8,58.2,39s91.5,38.7,88.5,66
			c-3,27.3-21.3,52.5-42.3,47.1c18-5.4,18.6-25.2-2.1-45.9s-63.1-42.4-69.6-36c-6.5,6.5,43.5,33.9,64.5,66.3
			c21,32.4-18.9,24.9-18.9,63.3c-23.7-12.3-45.9-19.8-55.8-2.7c-11.4-34.5-26.4-82.8-33-79.2s-11.1,19.5-5.4,43.8s1.8,64.2,1.8,64.2
			l-37.6-7.6c0,0-21.6-46.3-11.2-86.4c10.3-40,13.5-110.2-5.8-74.7s-22,95.8,8.1,151.2c-37.8-15.3-91.8-30.1-91.8-30.1
			s-4-59.4,12.1-99c16.2-39.6,48.6-94,29.7-94s-40.9,25.2-49.5,66.1c-8.5,40.9-26.5,90-15.7,132.3c-19.8-31.5-58.9-59.4-71.5-59.4
			c0-52.6,17.3-100.1,44.5-127.3s31.5-41.8,26.5-46.8c-4.9-5-62.5,39.6-80.1,83.2c-17.5,43.6-14.4,91.8-14.4,91.8
			s-50.8-63.9-61.6-74.7c-10.8-10.8,27.1-67.5,48.4-88.8s51.6-36,43.2-44.4s-111.6,58.2-118.2,124.2c-22.8-47.4-33-100.8-33-100.8
			s34.8-19.8,83.4-37.2c48.6-17.4,68.4-30.6,58.8-34.2s-128.1,20.7-151.8,44.4c-4.2-42,6-68.4,6-68.4s127.2-17.4,133.8-24
			c6.6-6.6-97.8-55.2-129,4.8c-6.6-22.8,25.2-87.6,90.6-66.6s94.8,24.6,112.2,42C1565.6,239.5,1565,261.1,1579.4,246.7z"/>
		<path class="rlst6" d="M1414.9-40.3c60.7-33.5,119.9-44,159.9,6.5c40,50.6,57.6,148,27,203.7c-22.3-67.8-111.6-120.5-125.9-122.2
			c-14.3-1.7,45.7,53.6,71,85.6c25.3,31.9,55,103.6-2.9,149.4c-29.4-79.5-83.4-196.9-124.3-177.5c0,0,113.6,134,107,191.2
			c-41.9,33.2-52.2,43.4-52.2,43.4s-17.6-71.5-34-92.1c-16.3-20.6-40.1-101.3-59-95c-18.8,6.3,90.1,175.4,70.8,190.6
			c-19.3,15.3-49.7,22-49.7,22s-13.4-82.2-23.7-63.5c-10.3,18.7,7.6,67,7.6,67s-98.8-7-117.5,44.3
			c-52.4-55.9-150.8-144.4-73.2-187.9c77.5-43.5,110.1-42.8,105.2-63.6c-4.8-20.8-123.4,12-159.2,62.2
			c-91.1-89.1,80.4-147.7,135.7-155.8c20.5-35.7-43.4-24.1-78.9-22.8s-117.9,47.9-117.9,47.9L1091,4.6c0,0,94.8-20.7,155.6-13.6
			c60.8,7.1,47.4,5.5,48.9-7.9c1.6-13.4-88.8-62-210.5-28.1c16.2-53.4,44.5-86.3,91.9-80.8c47.4,5.5,119.4,40.2,129.4,32.3
			s-81.4-55.7-113.4-53.1c26.1-37.7,121.3-103.6,185-50s19.8,150,19.8,150S1399.5-31.8,1414.9-40.3z"/>
		<g>
			<g>
				<path class="rlst7" d="M1263.3,267.6c0,0-21.3,68.9-71.6,84.2C1232.5,301,1218.4,304.6,1263.3,267.6z"/>
			</g>
			<g>
				<path class="rlst7" d="M1241.1,346c1.2-1.7,44.8-34.5,39.9-98.8C1267,266.6,1241.1,346,1241.1,346z"/>
			</g>
			<g>
				<path class="rlst7" d="M1274.3,360.3c0,0,35.5-93.4,26.1-140.1C1286,257.7,1274.3,360.3,1274.3,360.3z"/>
			</g>
			<g>
				<path class="rlst7" d="M1296,355.9c0,0,33-26.3,32-63.9c-0.9-37.6-1.2-79.1-11.1-99.5c-9,23.2-4.3,75.1-5.9,93.8
					S1313.1,339.9,1296,355.9z"/>
			</g>
			<g>
				<path class="rlst7" d="M1335.3,369.8c0,0,32.4-83.8,29.1-111.4s-32.6-89.8-32.6-89.8s3.3,65.4,10.1,89
					C1348.8,281.1,1335.3,369.8,1335.3,369.8z"/>
			</g>
			<g>
				<path class="rlst7" d="M1370.6,339.1c0,0,31.5-73.3,21.3-108.3s-46.1-87.7-46.1-87.7s-0.4,23.7,6.1,46.1s20.5,73.6,25.7,91.6
					C1382.9,298.7,1370.6,339.1,1370.6,339.1z"/>
			</g>
			<g>
				<path class="rlst7" d="M1411.8,301.5c0,0,32.4-34.2,15.9-66.8s-46.8-108.3-69.3-123.8c1.7,29.8,22.3,63.3,34.2,85.3
					C1404.5,218.2,1423.5,269.7,1411.8,301.5z"/>
			</g>
			<g>
				<path class="rlst7" d="M1458.8,247.8c0,0,8.5-45.8-14.5-75.3c-23-29.4-75.2-87.3-75.2-87.3s8.1,27.7,29.1,60.3
					C1419.3,178.1,1451.9,223.9,1458.8,247.8z"/>
			</g>
			<g>
				<path class="rlst7" d="M1497.8,241.3c0,0-23.2-82.6-57.8-117.4c-34.6-34.7-55.9-64.5-60.9-60.5c12.4,30.1,23.6,53.9,45.2,75.5
					C1445.8,160.5,1485.3,216.7,1497.8,241.3z"/>
			</g>
			<g>
				<path class="rlst7" d="M1385.7,39.8c0,0,58.7,68.2,77.5,90.8S1521,209,1521,209s-32.3-96.7-86-136.5
					C1411.8,55.3,1385.7,39.8,1385.7,39.8z"/>
			</g>
			<g>
				<path class="rlst7" d="M1389.5,20.3c17,17.3,82.3,59.6,109.5,87s22.3,90.4,22.3,90.4s22.2-75.8-25.9-112.2
					C1447.3,49.2,1415.3,24,1389.5,20.3z"/>
			</g>
			<g>
				<path class="rlst7" d="M1528,151.8c0,0,13.7-119.7-130.2-151.5c46.1,31.1,80,46.2,91.7,61.4C1505.8,82.8,1528,151.8,1528,151.8z"
					/>
			</g>
			<g>
				<path class="rlst7" d="M1172.7,327.9c1.8-1.3,37.5-81.6,107.6-81.1C1247.1,259.4,1172.7,327.9,1172.7,327.9z"/>
			</g>
			<g>
				<path class="rlst7" d="M1164.1,292.3c0,0,28.8-63.4,134.2-73.9C1257.7,239.6,1240.2,237.9,1164.1,292.3z"/>
			</g>
			<g>
				<path class="rlst7" d="M1151.8,275.3c0,0,6-46.5,67.6-61.2c43.1-10.3,68.7-23.3,94.7-20.9c-24,13.6-76.5,26.3-97.5,32.7
					C1195.7,232.3,1171.2,256.3,1151.8,275.3z"/>
			</g>
			<g>
				<path class="rlst7" d="M1163.2,249.2c0,0,29.3-55.3,60.5-64.2c31.3-8.9,104.9-18.1,104.9-18.1s-59.9,21.7-88.2,26.1
					C1212,197.4,1163.2,249.2,1163.2,249.2z"/>
			</g>
			<g>
				<path class="rlst7" d="M1170.1,224.3c0,0,15.5-49,67.5-67.3c39.5-13.9,81.9-17.1,105.3-14.4c-25.3,16-84,21.6-113.4,32.8
					C1208.5,181,1170.1,224.3,1170.1,224.3z"/>
			</g>
			<g>
				<path class="rlst7" d="M1186.7,194.3c0,0,31.5-61.6,72.4-70.1c41.3-8.5,55.1-12.5,94.9-13.1c-33,10.9-49,20.8-77.5,23.7
					C1247.9,137.8,1212.9,169.3,1186.7,194.3z"/>
			</g>
			<g>
				<path class="rlst7" d="M1187.1,153.8c0,0,51.8-59.1,101.8-69.4c40.7-8.4,77.1,0.1,77.1,0.1s-23.5,14.4-67.6,16.3
					C1254.4,102.6,1215,146.3,1187.1,153.8z"/>
			</g>
			<g>
				<path class="rlst7" d="M1206.8,134c0,0,18.6-66.6,102.6-75.2c53.5-5.5,43.8-3.8,64,0.1C1357.6,75.1,1287.1,51.8,1206.8,134z"/>
			</g>
			<g>
				<path class="rlst7" d="M1390.3,18.9c-25.9,1.1-55.2-0.5-85.8-4c-29.9-3.4-123.5,45-123.5,45s64.9-73.7,132.3-57.1
					C1340.8,8.5,1368.6,2.9,1390.3,18.9z"/>
			</g>
			<g>
				<path class="rlst7" d="M1382.6,44.6c0,0-41.8-1.3-88.2,1.3c-46.4,2.6-91.8,40.4-91.8,40.4S1245.4,23,1316.5,27
					C1387.5,31,1382.6,44.6,1382.6,44.6z"/>
			</g>
			<g>
				<path class="rlst7" d="M1204.3,42.8c0,0,35.2-58.7,68.8-65.6c41.3-8.5,97.4,3.5,121.6,24.8c-53.5-10.4-70.3-12.5-80.4-15.8
					C1272.8-26,1204.3,42.8,1204.3,42.8z"/>
			</g>
			<g>
				<path class="rlst7" d="M1401.5-16.4c128.9,26.7,141.5,86.3,149.9,98.6c20.4,29.9-19.9,84.1-19.9,84.1s28-49.5,3.7-87.9
					c-24.4-38.4-45.3-53-81-66.5C1418.6-1.6,1401.5-16.4,1401.5-16.4z"/>
			</g>
			<g>
				<path class="rlst7" d="M1416.7-48c0,0-0.4,1.3-1,3.9c-0.7,2.5-1.7,6.2-3,10.9s-3,10.3-4.9,16.8s-4.2,13.7-6.8,21.6
					c-2.6,7.9-5.4,16.4-8.5,25.4c-1.6,4.5-3.2,9.1-4.9,13.8c-1.7,4.7-3.5,9.5-5.3,14.3c-1.8,4.9-3.7,9.8-5.6,14.8c-2,5-4,10-6,15
					c-4.1,10.1-8.4,20.3-12.9,30.4l-3.4,7.6c-1.2,2.5-2.3,5-3.5,7.5c-2.3,5-4.7,9.9-7.1,14.8c-4.8,9.8-9.8,19.3-14.8,28.4
					c-2.5,4.6-5.1,9-7.5,13.3c-2.5,4.3-5.1,8.5-7.5,12.6c-2.5,4-5,7.9-7.4,11.7c-2.5,3.8-4.9,7.3-7.3,10.8
					c-4.8,6.8-9.3,13-13.6,18.2c-1.1,1.3-2.1,2.6-3.1,3.8s-2,2.4-3,3.4c-2,2.1-3.8,4.1-5.5,5.9c-1.6,1.8-3.2,3.3-4.6,4.5
					c-1.4,1.3-2.6,2.4-3.5,3.2c-1,0.9-1.7,1.5-2.2,2c-0.5,0.4-0.8,0.7-0.8,0.7c-0.1,0.1-0.2,0.1-0.3,0c-0.1-0.1-0.1-0.2,0-0.3l0,0
					c0,0,0.2-0.3,0.6-0.8s1-1.4,1.8-2.4s1.8-2.3,2.9-3.8s2.5-3.1,3.9-5.1c2.8-3.9,6.5-8.4,10.3-13.9c2-2.7,4.1-5.5,6.2-8.7
					c1.1-1.5,2.2-3.1,3.3-4.7c1.1-1.6,2.3-3.3,3.4-5c2.2-3.5,4.6-7,6.9-10.8s4.7-7.7,7.1-11.8c2.3-4.1,4.7-8.3,7.1-12.6
					c2.3-4.4,4.8-8.8,7.1-13.4c4.7-9.2,9.4-18.7,14-28.5c2.3-4.9,4.6-9.8,6.7-14.9c1.1-2.5,2.2-5,3.3-7.5l3.2-7.6
					c4.3-10.1,8.4-20.3,12.4-30.4c1.9-5.1,3.8-10.1,5.7-15c1.8-5,3.7-9.9,5.4-14.7c1.7-4.9,3.4-9.6,5-14.3s3.2-9.3,4.7-13.8
					c3-9,5.8-17.4,8.3-25.3s4.7-15.1,6.6-21.5s3.5-12,4.8-16.6s2.3-8.3,3-10.7c0.7-2.5,1-3.8,1-3.8v-0.1c0.7-2.6,3.4-4.2,6.1-3.5
					C1415.8-53.3,1417.4-50.6,1416.7-48z"/>
			</g>
		</g>
		<g>
			<g>
				<path class="rlst8" d="M1482.9,789.8c0,0,24.3,81.1-9.3,122.7C1477.1,839.6,1467.3,850.5,1482.9,789.8z"/>
			</g>
			<g>
				<path class="rlst8" d="M1512.2,881c0-2.4,17-58.4-26.8-121.2C1485.4,786.8,1512.2,881,1512.2,881z"/>
			</g>
			<g>
				<path class="rlst8" d="M1549.4,878.3c0,0-27.3-113.4-64-156C1496.2,767.9,1549.4,878.3,1549.4,878.3z"/>
			</g>
			<g>
				<path class="rlst8" d="M1565.2,862.6c0,0,12-43.8-12-81.6s-49.8-79.8-70.8-95.4c6.6,28.2,42.6,78.6,52.8,98.4
					C1545.4,803.8,1570,837.4,1565.2,862.6z"/>
			</g>
			<g>
				<path class="rlst8" d="M1607.4,856.3c0,0-24-102-43.8-128.4c-19.8-26.4-83.2-74.4-83.2-74.4s43.2,64.8,63.5,85.2
					C1564.3,759.1,1607.4,856.3,1607.4,856.3z"/>
			</g>
			<g>
				<path class="rlst8" d="M1618.7,806.7c0,0-18.3-90.9-48.6-121.2c-30.3-30.3-93.5-65.3-93.5-65.3s14.2,24.3,33.6,43.7
					s62.9,64.2,78.5,79.8C1604.3,759.3,1618.7,806.7,1618.7,806.7z"/>
			</g>
			<g>
				<path class="rlst8" d="M1630.7,747.2c0,0,6.6-51.6-27.6-76.2s-106.8-85.8-135.6-90c19.8,29.4,58.1,52.8,81.8,69
					C1573.1,666.2,1621.1,708.8,1630.7,747.2z"/>
			</g>
			<g>
				<path class="rlst8" d="M1637.9,668.2c0,0-21-51-58.8-69s-118.2-49.8-118.2-49.8s24,24,62.1,46.2
					C1561.1,617.8,1617.2,647.5,1637.9,668.2z"/>
			</g>
			<g>
				<path class="rlst8" d="M1667.1,641.4c0,0-70.8-72-121.8-89.4s-87.6-36.6-89.4-30c29.2,24.2,53.4,42.6,85.2,53.4
					C1573,586.2,1641.3,622.8,1667.1,641.4z"/>
			</g>
			<g>
				<path class="rlst8" d="M1447.1,494.6c0,0,92.2,38.9,122.2,52.1s97.8,49.8,97.8,49.8s-87.3-81.6-157.7-94.2
					C1478.9,496.8,1447.1,494.6,1447.1,494.6z"/>
			</g>
			<g>
				<path class="rlst8" d="M1438.3,472.8c25.2,8.7,107.1,17.9,147.3,31.7c40.2,13.8,74.8,80.3,74.8,80.3s-27.7-88.6-91.3-100.6
					C1505.5,472.2,1462.6,463.2,1438.3,472.8z"/>
			</g>
			<g>
				<path class="rlst8" d="M1637.9,534.7c0,0-62.1-128.9-204.7-86.6c58.6,7.7,96.9,5.5,116.3,14.9
					C1576.3,476.1,1637.9,534.7,1637.9,534.7z"/>
			</g>
			<g>
				<path class="rlst8" d="M1442.6,898c0.7-2.3-18.2-102.4,42-138.2C1464,789.8,1442.6,898,1442.6,898z"/>
			</g>
			<g>
				<path class="rlst8" d="M1413.3,866.3c0,0-14.4-79.4,69.2-144.7C1460.8,764.1,1444.8,771.5,1413.3,866.3z"/>
			</g>
			<g>
				<path class="rlst8" d="M1392.2,855.4c0,0-23.6-50.4,20.1-97.3c30.5-32.8,44.4-59.3,68.1-70.4c-12.1,26.3-49.2,66.5-63.2,83.8
					C1403.3,788.9,1397.2,825.9,1392.2,855.4z"/>
			</g>
			<g>
				<path class="rlst8" d="M1385.9,822.9c0,0-9.1-71.5,12.2-96.7c21.3-25.2,78.5-72.7,78.5-72.7s-37.9,53.1-59.4,72.3
					C1395.8,745,1385.9,822.9,1385.9,822.9z"/>
			</g>
			<g>
				<path class="rlst8" d="M1376.5,793.9c0,0-16.9-57.9,16.3-103.4c25.2-34.6,59.6-59.8,81.1-69.3c-11.8,29.4-58.5,65.5-76.7,92.2
					C1382.7,730.1,1376.5,793.9,1376.5,793.9z"/>
			</g>
			<g>
				<path class="rlst8" d="M1372.2,754.9c0,0-11.1-79,18.7-108.8c30.1-30.1,39.4-41.3,73.1-62.5c-21.4,28.2-29.1,46.6-51.7,64.3
					C1389.7,665.7,1379.2,715.9,1372.2,754.9z"/>
			</g>
			<g>
				<path class="rlst8" d="M1347.5,713.5c0,0,7.9-86.9,44.3-123.3c29.6-29.6,66-39.9,66-39.9s-11.2,26.9-47.7,51.6
					C1373.6,626.6,1366.8,691.4,1347.5,713.5z"/>
			</g>
			<g>
				<path class="rlst8" d="M1352.2,683.2c0,0-25.2-77.4,41.4-129.7c42.4-33.3,35.1-26.6,54.8-33
					C1444.8,545.1,1370.2,557.9,1352.2,683.2z"/>
			</g>
			<g>
				<path class="rlst8" d="M1438.2,471c-21.5,14.5-47.5,28.1-75.9,40.5c-27.7,12.1-77.9,109.8-77.9,109.8s10-108.5,77.9-126.7
					C1389.4,486.1,1409.7,466,1438.2,471z"/>
			</g>
			<g>
				<path class="rlst8" d="M1447.4,501.1c0,0-36.6,20.4-74.6,47.1c-38.1,26.7-53.6,88.7-53.6,88.7s-2.5-86.5,60.8-119.4
					C1443.2,484.7,1447.4,501.1,1447.4,501.1z"/>
			</g>
			<g>
				<path class="rlst8" d="M1293.8,591.8c0,0-6.1-77.9,18.4-102.3c30.1-30.1,85.4-47,119.3-37.9c-52.1,17.2-67.8,23.8-78.5,25.6
					C1310,486.3,1293.8,591.8,1293.8,591.8z"/>
			</g>
			<g>
				<path class="rlst8" d="M1277.9,540.5c0,0,2.8-105.7,163.7-112.7c-52.1,17.2-95.1,28.9-118.2,41
					C1312.8,470.7,1277.9,540.5,1277.9,540.5z"/>
			</g>
			<g>
				<path class="rlst8" d="M1426,429.3c126.7-39.7,174.3,14.4,189,22.5c35.9,19.8,34.8,95.8,34.8,95.8s-6.5-64.9-51-91.3
					s-71.4-30.4-110.2-25.6C1449.7,435.4,1426,429.3,1426,429.3z"/>
			</g>
			<g>
				<path class="rlst8" d="M1432.8,429.8c0,0,1.6,5.5,4.5,15.1c1.4,4.8,3.1,10.6,5,17.4c1.9,6.7,4,14.3,6.2,22.6
					c2.2,8.3,4.5,17.3,6.9,26.8c2.3,9.5,4.7,19.6,7.1,30.1s4.7,21.3,6.9,32.3c2.2,11,4.3,22.3,6.3,33.6c1.9,11.3,3.7,22.6,5.2,33.8
					c1.6,11.2,2.8,22.2,3.9,32.9c0.5,5.4,1,10.6,1.4,15.8c0.2,2.6,0.4,5.1,0.6,7.6c0.1,2.5,0.3,5,0.4,7.5c0.6,9.8,0.8,19.1,0.9,27.7
					c0,4.3-0.1,8.4-0.1,12.3c-0.1,3.9-0.3,7.6-0.5,11.1c-0.3,3.5-0.6,6.8-0.9,9.8c-0.2,1.5-0.3,2.9-0.5,4.3
					c-0.2,1.4-0.4,2.7-0.6,3.9c-0.7,5-1.6,8.8-2.1,11.5c-0.3,1.3-0.5,2.3-0.7,3s-0.2,1-0.2,1c0,0.1-0.2,0.2-0.3,0.2
					c-0.1,0-0.2-0.1-0.2-0.2l0,0c0,0,0-0.4,0-1.1c0-0.7,0-1.7,0-3.1c0-1.3,0.1-3,0.1-4.9c0-0.5,0-1,0.1-1.5c0-0.5,0-1.1,0-1.6
					c0-1.1,0-2.3,0-3.5c0-2.5,0.2-5.2,0.1-8.2c0-3,0.1-6.2,0.1-9.7s0-7.1,0-11c-0.1-3.9-0.1-7.9-0.2-12.2
					c-0.3-8.5-0.7-17.7-1.5-27.4c-0.2-2.4-0.4-4.9-0.6-7.4s-0.5-5-0.7-7.6c-0.5-5.1-1.1-10.3-1.7-15.6c-1.3-10.6-2.8-21.5-4.7-32.5
					c-1.8-11-3.8-22.2-5.9-33.4s-4.4-22.3-6.8-33.2s-4.8-21.7-7.3-32c-2.5-10.4-5-20.3-7.5-29.8c-2.4-9.5-4.8-18.4-7.1-26.6
					c-2.2-8.2-4.4-15.7-6.3-22.4c-1.9-6.6-3.6-12.4-5-17.2c-2.9-9.5-4.5-15-4.5-15l0,0c-0.9-2.9,0.8-5.9,3.6-6.7
					S1431.9,426.9,1432.8,429.8z"/>
			</g>
		</g>
		<g>
			<g>
				<path class="rlst9" d="M1711.3,919c0,0-12.7,83.7-60.8,106.9C1684.8,961.6,1671.2,967.3,1711.3,919z"/>
			</g>
			<g>
				<path class="rlst9" d="M1698.8,1014c1-2.2,40.3-45.5,27.5-121C1714.8,917.3,1698.8,1014,1698.8,1014z"/>
			</g>
			<g>
				<path class="rlst9" d="M1733.6,1027.4c0,0,23.8-114.2,8.7-168.4C1732.6,904.9,1733.6,1027.4,1733.6,1027.4z"/>
			</g>
			<g>
				<path class="rlst9" d="M1754.7,1020c0,0,29.6-34.5,24-78.9s-10.9-93.4-23.3-116.5c-6.1,28.3,4.9,89.2,5.7,111.5
					C1761.9,958.4,1769.8,999.2,1754.7,1020z"/>
			</g>
			<g>
				<path class="rlst9" d="M1795.5,1032.3c0,0,21.9-102.5,15.2-134.8c-6.6-32.3-43.5-102.8-43.5-102.8s11.3,77,21,104.1
					C1798,926,1795.5,1032.3,1795.5,1032.3z"/>
			</g>
			<g>
				<path class="rlst9" d="M1826.9,992.3c0,0,22.3-90,7.8-130.3s-56.7-99-56.7-99s2.5,28,11.8,53.9s24.2,52.1,31.7,72.8
					C1828.9,910.5,1826.9,992.3,1826.9,992.3z"/>
			</g>
			<g>
				<path class="rlst9" d="M1859.3,953.7c0,0,28-43.8,7.6-80.7c-20.4-36.8-59.9-123.2-84.2-139.3c5.3,35,30,72.6,44.5,97.3
					C1841.8,855.9,1867,914.9,1859.3,953.7z"/>
			</g>
			<g>
				<path class="rlst9" d="M1898.9,892.9c0,0,2.8-55.1-23.7-87.5s-85.6-95.5-85.6-95.5s11.4,31.9,36.4,68.3
					C1851,814.6,1889,865.4,1898.9,892.9z"/>
			</g>
			<g>
				<path class="rlst9" d="M1938.7,882.1c0,0-38-91-71.9-132.8c-58-71.6-68-65.3-68-65.3s30.1,61.3,54.2,84.7
					C1877.1,792,1923.3,854.3,1938.7,882.1z"/>
			</g>
			<g>
				<path class="rlst9" d="M1805,655.6c0,0,66.8,74.6,88.3,99.3s91.1,78.2,91.1,78.2s-103.7-122.6-126.3-143.9
					C1835.5,667.9,1805,655.6,1805,655.6z"/>
			</g>
			<g>
				<path class="rlst9" d="M1805.5,623.2c0,0,97.4,73.2,127.9,102.9c30.4,29.6,68,57,68,57s-32.1-53-82.5-93.7
					C1816.5,606.6,1805.5,623.2,1805.5,623.2z"/>
			</g>
			<g>
				<path class="rlst9" d="M1985.3,733.2c0,0-47.8-122.1-181.2-148.6c46.1,29.7,85,52.7,102.1,68.8
					C1914,660.8,1985.3,733.2,1985.3,733.2z"/>
			</g>
			<g>
				<path class="rlst9" d="M1635.4,1011c1.5-1.9,18.3-102.4,87.2-115.2C1692.8,916.9,1635.4,1011,1635.4,1011z"/>
			</g>
			<g>
				<path class="rlst9" d="M1625.5,974.6c0,0,14-79.5,115-111.8C1705.4,895.2,1687.8,896.6,1625.5,974.6z"/>
			</g>
			<g>
				<path class="rlst9" d="M1612.6,956.3c0,0-4.6-55.5,52.5-84.3c40-20.2,62.2-40.3,88.2-42.5c-20.5,20.5-69.2,45.3-88.3,56.8
					C1646,897.8,1627.5,930.4,1612.6,956.3z"/>
			</g>
			<g>
				<path class="rlst9" d="M1591.5,954.5c0,0,12.9-79.2,68-120.3c26.4-19.8,107-38.1,107-38.1s-60.8,37-87.5,47.8
					C1632,862.9,1591.5,954.5,1591.5,954.5z"/>
			</g>
			<g>
				<path class="rlst9" d="M1575.3,907.8c0,0,17.3-59,64.2-90.2c35.7-23.7,109.4-50.6,132.9-52c-21.3,23.5-89.7,41.4-116,60.1
					C1637.1,836.3,1575.3,907.8,1575.3,907.8z"/>
			</g>
			<g>
				<path class="rlst9" d="M1592.4,858.4c0,0,16.9-62.2,55.2-79.8c38.6-17.8,74.6-39.1,131.8-44.9c-29.9,19.1-70.5,39.1-97.8,48
					C1654.2,790.6,1612.4,824.3,1592.4,858.4z"/>
			</g>
			<g>
				<path class="rlst9" d="M1598.3,809.8c0,0,57.8-85.5,99.1-92.2c41.3-6.6,85.3-11.4,85.3-11.4s-42.5,19.2-85.3,29.8
					C1654.6,746.6,1624,795.7,1598.3,809.8z"/>
			</g>
			<g>
				<path class="rlst9" d="M1608.9,783.8c0,0,33-79.1,86-89c87.6-16.4,99.2-9.7,99.2-9.7s-30,18.1-107.6,28.1
					C1655.5,716.3,1642.2,772.1,1608.9,783.8z"/>
			</g>
			<g>
				<path class="rlst9" d="M1808.8,623.6c0,0-55.2,7.5-85.3,9.3c-30.1,1.7-93.4,69.6-93.4,69.6s22.7-78,103.5-82.8
					C1761.9,618,1808.8,623.6,1808.8,623.6z"/>
			</g>
			<g>
				<path class="rlst9" d="M1798.8,653.8c-28.8,15.3-68.5,6.6-112.9,18.3c-45,11.9-73.3,93.4-73.3,93.4s7.3-95.6,78-104.5
					C1761.2,652.1,1778,644.4,1798.8,653.8z"/>
			</g>
			<g>
				<path class="rlst9" d="M1627.4,651.6c0,0,114.5-111.1,183.2-62.5C1728.9,577.5,1627.4,651.6,1627.4,651.6z"/>
			</g>
			<g>
				<path class="rlst9" d="M1625.5,619.3c0,0,50.4-110.8,191-57.7c-54.8-1.9-82.9-4.2-112.7,2.6
					C1693.2,566.5,1625.5,619.3,1625.5,619.3z"/>
			</g>
			<g>
				<path class="rlst9" d="M1821.8,547.8c0,0-0.2,1.5-0.5,4.4s-0.8,7-1.5,12.3s-1.5,11.7-2.6,19.1c-1,7.4-2.3,15.7-3.8,24.7
					s-3.1,18.8-5,29.1c-0.9,5.2-1.9,10.4-3,15.8c-1,5.4-2.2,10.9-3.3,16.5c-1.1,5.6-2.4,11.3-3.6,17c-1.3,5.7-2.6,11.6-3.9,17.4
					c-2.8,11.7-5.6,23.6-8.8,35.4c-0.8,2.9-1.6,5.9-2.4,8.8c-0.8,2.9-1.7,5.9-2.5,8.8c-1.6,5.9-3.4,11.7-5.1,17.4
					c-1.7,5.8-3.6,11.4-5.3,17c-1.8,5.6-3.7,11.1-5.5,16.5c-1.9,5.4-3.8,10.7-5.7,15.9c-1.9,5.2-3.9,10.2-5.8,15.1
					c-2,4.9-4,9.6-5.9,14.1c-2,4.5-4,8.9-5.8,13.1c-3.9,8.3-7.5,15.9-11.2,22.4c-0.9,1.6-1.8,3.2-2.6,4.7c-0.8,1.5-1.7,3-2.6,4.3
					c-1.7,2.7-3.3,5.3-4.8,7.5c-1.4,2.3-2.8,4.2-4.1,5.9c-1.2,1.7-2.3,3.1-3.2,4.2c-0.9,1.1-1.5,2-2,2.6s-0.7,0.9-0.7,0.9
					c-0.1,0.1-0.2,0.1-0.3,0c-0.1-0.1-0.1-0.2-0.1-0.3l0,0c0,0,0.2-0.3,0.5-1s0.8-1.7,1.4-2.9c0.6-1.3,1.4-2.9,2.4-4.7
					c0.9-1.8,2.1-3.9,3.2-6.3c2.3-4.8,5.3-10.5,8.4-17.2c1.6-3.3,3.4-6.8,5-10.6c0.9-1.9,1.7-3.8,2.6-5.8s1.8-4,2.7-6.1
					c1.7-4.2,3.6-8.5,5.5-13.1c1.8-4.6,3.6-9.3,5.5-14.1c1.8-4.9,3.6-9.9,5.4-15.1c1.7-5.2,3.6-10.5,5.3-15.9
					c1.7-5.4,3.5-10.9,5.1-16.5s3.4-11.3,4.9-17c1.6-5.7,3.2-11.5,4.7-17.4c0.8-2.9,1.5-5.8,2.3-8.8c0.7-2.9,1.4-5.9,2.2-8.8
					c2.9-11.7,5.6-23.6,8.2-35.2c1.2-5.8,2.4-11.6,3.7-17.3c1.1-5.7,2.3-11.4,3.3-17c1.1-5.6,2.1-11.1,3-16.5
					c1-5.4,1.9-10.7,2.8-15.8c1.8-10.3,3.3-20,4.7-29c1.4-9,2.6-17.2,3.6-24.5s1.8-13.7,2.5-18.9c0.7-5.3,1.2-9.4,1.5-12.2
					s0.5-4.3,0.5-4.3v-0.1c0.3-3,3-5.1,6-4.8C1820,542.1,1822.2,544.8,1821.8,547.8z"/>
			</g>
			<g>
				<path class="rlst9" d="M1809.4,563.2c131.5,18.2,176.7,98.6,186.6,112.3c24,33.2-5.9,79.2-5.9,79.2s19.5-39.3-9.4-82.2
					s-75.9-72.3-113-84.6C1830.5,575.7,1809.4,563.2,1809.4,563.2z"/>
			</g>
		</g>
		<g>
			<g>
				<path class="rlst9" d="M1322.3,924.8c0,0,12.7,83.7,60.8,106.9C1348.8,967.4,1362.4,973.1,1322.3,924.8z"/>
			</g>
			<g>
				<path class="rlst9" d="M1334.8,1019.8c-1-2.2-40.4-45.5-27.5-121C1318.8,923.2,1334.8,1019.8,1334.8,1019.8z"/>
			</g>
			<g>
				<path class="rlst9" d="M1300,1033.3c0,0-23.8-114.2-8.7-168.4C1301,910.7,1300,1033.3,1300,1033.3z"/>
			</g>
			<g>
				<path class="rlst9" d="M1279,1025.8c0,0-29.6-34.5-24-78.9s10.9-93.4,23.3-116.5c6.1,28.3-4.9,89.2-5.7,111.5
					C1271.8,964.2,1263.9,1005.1,1279,1025.8z"/>
			</g>
			<g>
				<path class="rlst9" d="M1238.2,1038.2c0,0-21.9-102.5-15.2-134.8c6.6-32.3,43.5-102.8,43.5-102.8s-11.3,77-21,104.1
					C1235.7,931.8,1238.2,1038.2,1238.2,1038.2z"/>
			</g>
			<g>
				<path class="rlst9" d="M1206.8,998.2c0,0-22.3-90-7.8-130.3s56.7-99,56.7-99s-2.5,28-11.8,53.9s-24.2,52.1-31.7,72.8
					C1204.7,916.4,1206.8,998.2,1206.8,998.2z"/>
			</g>
			<g>
				<path class="rlst9" d="M1174.3,959.5c0,0-28-43.8-7.6-80.7c20.4-36.8,59.9-123.2,84.2-139.3c-5.3,35-30,72.5-44.5,97.3
					C1191.8,861.7,1166.6,920.7,1174.3,959.5z"/>
			</g>
			<g>
				<path class="rlst9" d="M1134.8,898.8c0,0-2.8-55.1,23.7-87.5s85.6-95.5,85.6-95.5s-11.4,31.9-36.4,68.3
					C1182.7,820.4,1144.6,871.2,1134.8,898.8z"/>
			</g>
			<g>
				<path class="rlst9" d="M1094.9,888c0,0,38-91,71.9-132.8c58-71.6,68-65.3,68-65.3s-30.1,61.3-54.2,84.7
					C1156.5,797.9,1110.3,860.2,1094.9,888z"/>
			</g>
			<g>
				<path class="rlst9" d="M1228.6,661.5c0,0-66.8,74.6-88.3,99.3s-91.1,78.2-91.1,78.2s103.7-122.6,126.3-143.9
					C1198.1,673.8,1228.6,661.5,1228.6,661.5z"/>
			</g>
			<g>
				<path class="rlst9" d="M1228.1,629.1c0,0-97.4,73.2-127.9,102.9c-30.4,29.6-68,57-68,57s32.1-53,82.5-93.7
					C1217.2,612.5,1228.1,629.1,1228.1,629.1z"/>
			</g>
			<g>
				<path class="rlst9" d="M1048.3,739.1c0,0,47.8-122.1,181.2-148.6c-46.1,29.7-85,52.7-102.1,68.8
					C1119.6,666.6,1048.3,739.1,1048.3,739.1z"/>
			</g>
			<g>
				<path class="rlst9" d="M1398.3,1016.9c-1.5-1.9-18.3-102.4-87.2-115.2C1340.8,922.7,1398.3,1016.9,1398.3,1016.9z"/>
			</g>
			<g>
				<path class="rlst9" d="M1408.2,980.4c0,0-13.9-79.5-115-111.8C1328.2,901,1345.8,902.4,1408.2,980.4z"/>
			</g>
			<g>
				<path class="rlst9" d="M1421,962.2c0,0,4.7-55.5-52.5-84.3c-40-20.2-62.2-40.3-88.2-42.5c20.5,20.5,69.2,45.3,88.3,56.8
					C1387.6,903.6,1406.2,936.3,1421,962.2z"/>
			</g>
			<g>
				<path class="rlst9" d="M1442.1,960.3c0,0-12.9-79.2-68-120.3c-26.4-19.7-107-38-107-38s60.8,37,87.5,47.8
					C1401.6,868.8,1442.1,960.3,1442.1,960.3z"/>
			</g>
			<g>
				<path class="rlst9" d="M1458.3,913.6c0,0-17.3-59-64.2-90.2c-35.7-23.7-109.4-50.6-132.9-52c21.3,23.5,89.7,41.4,116,60.1
					C1396.6,842.1,1458.3,913.6,1458.3,913.6z"/>
			</g>
			<g>
				<path class="rlst9" d="M1441.3,864.3c0,0-16.9-62.2-55.2-79.8c-38.6-17.8-74.6-39.1-131.8-44.9c29.9,19.1,70.5,39.1,97.8,48
					C1379.4,796.4,1421.2,830.2,1441.3,864.3z"/>
			</g>
			<g>
				<path class="rlst9" d="M1435.3,815.6c0,0-57.8-85.5-99.1-92.2c-41.3-6.6-85.3-11.4-85.3-11.4s42.5,19.2,85.3,29.8
					C1379,752.4,1409.6,801.6,1435.3,815.6z"/>
			</g>
			<g>
				<path class="rlst9" d="M1424.7,789.6c0,0-33-79.1-86-89c-87.6-16.4-99.2-9.7-99.2-9.7s30,18.1,107.6,28.1
					C1378.1,722.1,1391.4,777.9,1424.7,789.6z"/>
			</g>
			<g>
				<path class="rlst9" d="M1224.8,629.4c0,0,55.2,7.5,85.3,9.3c30.1,1.7,93.4,69.6,93.4,69.6s-22.7-78-103.5-82.8
					C1271.7,623.8,1224.8,629.4,1224.8,629.4z"/>
			</g>
			<g>
				<path class="rlst9" d="M1234.8,659.7c28.8,15.3,68.5,6.6,112.9,18.3c44.9,11.9,73.3,93.4,73.3,93.4s-7.3-95.6-78-104.5
					C1272.4,657.9,1255.6,650.2,1234.8,659.7z"/>
			</g>
			<g>
				<path class="rlst9" d="M1406.2,657.4c0,0-114.5-111.1-183.2-62.5C1304.7,583.3,1406.2,657.4,1406.2,657.4z"/>
			</g>
			<g>
				<path class="rlst9" d="M1408.2,625.2c0,0-50.4-110.8-191-57.7c54.8-1.9,82.9-4.2,112.7,2.6
					C1340.4,572.4,1408.2,625.2,1408.2,625.2z"/>
			</g>
			<g>
				<path class="rlst9" d="M1219,534.1c0,0,0.2,1.6,0.5,4.5c0.4,2.9,0.9,7.3,1.6,12.8s1.6,12.2,2.7,19.9s2.4,16.3,3.8,25.7
					c0.8,4.7,1.5,9.6,2.3,14.7c0.9,5.1,1.7,10.3,2.6,15.7s1.9,10.9,2.9,16.5c0.5,2.8,1,5.7,1.5,8.5c0.5,2.9,1.1,5.8,1.6,8.7
					c2.2,11.7,4.7,23.8,7.2,36c1.3,6.1,2.7,12.3,4.1,18.4c1.5,6.2,2.8,12.4,4.4,18.5c1.5,6.2,3,12.4,4.6,18.5
					c0.8,3.1,1.6,6.1,2.3,9.2c0.8,3,1.6,6.1,2.5,9.1c0.8,3,1.6,6,2.5,9s1.7,5.9,2.6,8.9c1.7,5.9,3.5,11.7,5.2,17.3
					c3.5,11.4,7.2,22.2,11,32.5c3.7,10.2,7.5,19.8,11.2,28.6c1.8,4.4,3.7,8.5,5.5,12.5c0.9,2,1.7,3.9,2.6,5.8
					c0.9,1.8,1.8,3.6,2.6,5.4c1.6,3.5,3.1,6.8,4.6,9.8s2.9,5.7,4.1,8.2c0.6,1.2,1.2,2.5,1.7,3.5c0.6,1.1,1.1,2.1,1.6,3.1
					c1,1.9,1.8,3.6,2.5,4.9c0.7,1.3,1.2,2.4,1.5,3.1c0.3,0.7,0.5,1.1,0.5,1.1l0,0c0.1,0.1,0,0.3-0.1,0.3c-0.1,0.1-0.2,0-0.3-0.1
					c0,0-0.2-0.3-0.7-0.9c-0.5-0.6-1.2-1.5-2.1-2.7s-2-2.7-3.3-4.5c-0.6-0.9-1.3-1.8-2.1-2.8c-0.7-1-1.4-2.2-2.2-3.3
					c-1.5-2.4-3.1-5-4.9-7.9c-0.9-1.4-1.7-3-2.6-4.6s-1.8-3.3-2.7-5c-0.9-1.7-1.9-3.5-2.8-5.3c-0.9-1.9-1.8-3.8-2.8-5.8
					c-1.9-4-3.9-8.1-5.8-12.5c-3.9-8.8-7.9-18.4-11.9-28.6c-4-10.3-7.9-21.2-11.8-32.5c-1.9-5.7-3.9-11.5-5.7-17.4
					c-0.9-2.9-1.8-5.9-2.8-8.9c-0.9-3-1.8-6-2.7-9c-0.9-3-1.8-6.1-2.7-9.1c-0.9-3.1-1.7-6.1-2.6-9.2c-1.7-6.1-3.3-12.3-5-18.5
					c-1.6-6.2-3.1-12.4-4.6-18.6c-1.5-6.2-2.9-12.4-4.3-18.5c-2.8-12.3-5.4-24.4-7.8-36.1c-0.6-2.9-1.2-5.8-1.8-8.7
					c-0.6-2.9-1.1-5.7-1.7-8.6c-1.1-5.7-2.1-11.2-3.1-16.6c-2-10.8-3.7-21-5.2-30.5s-2.9-18.1-4-25.8s-2.1-14.4-2.8-20
					c-0.7-5.6-1.2-9.9-1.6-12.9c-0.3-3-0.5-4.6-0.5-4.6c-0.3-3,1.8-5.6,4.7-6S1218.6,531.1,1219,534.1L1219,534.1z"/>
			</g>
			<g>
				<path class="rlst9" d="M1224.2,569c-131.5,18.2-176.7,98.6-186.6,112.3c-24,33.2,5.9,79.2,5.9,79.2s-19.5-39.3,9.4-82.2
					c29-42.9,75.9-72.3,113-84.6C1203.2,581.5,1224.2,569,1224.2,569z"/>
			</g>
		</g>
	</g>
</g>
</svg>
