<?xml version="1.0" encoding="utf-8"?>
<!-- Generator: Adobe Illustrator 24.2.1, SVG Export Plug-In . SVG Version: 6.00 Build 0)  -->
<svg version="1.1" id="Layer_1" xmlns="http://www.w3.org/2000/svg" xmlns:xlink="http://www.w3.org/1999/xlink" x="0px" y="0px"
	 viewBox="0 0 1920 1080" style="enable-background:new 0 0 1920 1080;" preserveAspectRatio="xMidYMax slice" xml:space="preserve">
<style type="text/css">
	.shrubst0{fill:#0A150A;}
</style>
<g>
	<path class="shrubst0" d="M825.8,806.6c0.2-0.3,0.3-0.4,0.3-0.4C826.2,806,826.1,806.2,825.8,806.6z"/>
	<path class="shrubst0" d="M1900.7,748.9c0.5-2.4,1-4.7,1.5-7C1901.6,743.7,1901.1,746.1,1900.7,748.9z"/>
	<path class="shrubst0" d="M-0.2,757.3v322.3h1864.6c0.3-4.5,6.9-10.2,19.2-17.4c14.1,4.2,27.2,9.3,36.6,14.2v-50.8
		c-6.4,1.3-12.8,2.9-18.9,4.7c-27.1,9.3-33.5-11.5-15.1-21.5c3.7-1.3,18.9-3.6,34-4V827.3c-1.4-3.8-2.6-6.8-3.6-7
		c-17.9,45.3-20.9-39.9-15.9-71.4c-5,25.3-5.9,50.4-30.4,18.3c24.5-29.3-30.1-76.5,25.5-78.4c-16.3-7.3-19.5-35.1,0.3-34
		c3.1,9.5,19.1,16.7,8.6,33c10.1,14.6,9.6,15.2-18,21.2c0.8,13.7,25.7,3.9,20.7,22.8c4.8-3.7,9-6.2,12.8-7.7v-80.1
		c-4.5-2.9-11.8-7-22.1-5.6c-3.2-6-2.5-14.3-2.7-22.2c1.3,19.2,15.5-4.5,24.8,6.5v-63.6c-4.9-3.8-6.2-11.2,0-20v-9.7
		c-22.3,3.1-24-7.1-35.1-34c7.3-16.1,21.5-24.3,35.1-30.3V438c-5.1,6.9-9.7,14.5-13.2,22.1c-4.8,14.2-12.2,9.7-19.2,1.4
		c-25.1,32.6-10.2-19.3-4.1-32.8c18.4-6.6,23.6-33.2,6.7-42.6c0.5,16-16.4,23.9-31.4,39.9c-25.6-41.5,48-56.3,61.1-80.1v-2.3
		c-78.5,58.5-50-41.6-66.6,0.7c-8,25.9-55.5,15.3-44.1-16.8c-47.6-7.4-12.3-34.4-61-29.7c22.3,33.1,42.3,63,64,95.3
		c-19.9-3.9-29.3-25.3-48.4-15.6c-21.8-1.2-7.9,26.7-35.1,21.3c-25.8-4.2-18.7-31.2-22.4-52c-16.6,45.3-8.6,54.7-55.6,16.9
		c6.3,32.2,45,25.3,60.8,53.8c-20.4,14.5,2.7,11.6,12.1,19.9c-2.6,7.2-3.6,18.2,10.6,18.6c60.5-12.3-80,119.3-52.8,11.1
		c-23.9-8.7-5.6-30.7-14.3-43.1c-11.9,10,0.1,68.9-18.2,21c-19.8,15,20.4,82-11.9,74c12.2,24.6,35.1,8.9,38,45.6
		c-21-15.7-54.6,0.2-65.7-15.8c-7.9-26.1-20.6-25.9-37.2-8.5c-20.5-49.9-6.5,20.4,0.2,39.2c-19-6.9-36.4-13.3-56.3-20.6
		c9,17.3,31,51,0.3,35.4c-18.3-17.3-29.3-0.7-42.3,9.6c24.4-11.8,101.1-9,74.9,25.7c2.9,11.5,24.5,33.3-2.2,24
		c15.6,9.7,21.5,18.6,18.1,39c0,0-12.3,179.6-12.3,179.6L1555,666c0,0-12.3,39.1-21.9,73.1c-2-27.5-8.3-101-8.3-101l-8.3,105.6
		c0,0-1.3-107.2-23.5-139.8c-6.6,166-0.3,244.6-27.9,32.4c-10.1,75.7-10.6,182.2-10.6,182.2c-11-134.7-83.7-220.2-83.7-220.2
		c60.6,218.2,100.6,271.7-52,39.5c118.1,253.8,114.2,185.1-55,78.6c82.1,84.2,128.5,120.2,128.5,120.2l-145.4-66
		c-8.2,0.9,44.2,22.4,65.4,52c-34.9-12.2-61.8-19.9-82.2-25.5c90.2,42.9,23.2,48.7-9.9,27.6c11.4,9.1,67.7,23.5,55.1,48.9
		c0,0-39.2-13.8-39.2-13.8c-11.7-21.9-7.6-14.4-3.5-1.2c0,0-10.9-3.8-17.5-6.2c29.5,13.3,42.3,73.3,48.1,88
		c-24.7-26.6-63.4-86.7-82.8-109.9c-33.5-25.4-16.5,68.1-32.5,81.7c-5,0.3-2.4-0.7-0.2-1.6c-7.2,2.8-10.1-9.3-12.5-16.3
		c2.4,0-22.7-115.1-46.2-27.9c-93.6,38.5-90.3,57.1,21.3-54.9c-123.7,77.9-126.5,128-40.2-57.4c-111.3,169.8-82.7,130.4-38-28.9
		c0,0-53.2,62.5-61.2,161c0,0-0.3-77.9-7.7-133.2c-20.3,155.8-15.6,97-20.4-23.7c-16.2,23.9-17.1,102.2-17.1,102.2l-6-77.2
		c0,0-4.6,53.8-6.1,73.8c-7-24.9-16-53.4-16-53.4l1.6,150.7c-11.4-144-6.2-218.7-27.4-8.5c0.8-152.9-0.3-190.3-18.2-18.1
		c1-144.4,3.2-136.4-21.5,15.8c5.4-147.9,16.3-92.8-22,5.8c0.4-99.2,31.7-164.8-10.9-50c-5.1,5.7-15.6,34.4-13.9,83
		c-7.9-0.2-2.5-10-5.9-18.2c-3.7-8.7,3.1-25.5,3.1-25.5s-20.6,5-22.5,29.5c-1.9,24.5,18.5,34.4,10,43.7
		c-35.5,19.5-10.8-23.8-11.3-41.5c-3.4-47.1,7.3-101.2-29.2-140c-31.5,11.4-19,75.3-44.5,87.4c-17.2-16.7-0.5-134.2-41.5-80.7
		c-19.5,12.9-27.7,46.7-38.1,62c3.9,27.4,4.3,36.7-16.6,11.6c-148.9-65.4-40.3-27.6-43.4,85.7c-27.2,58.7-21.9-122.1-67.9-107
		c-118.3-28.5,21,43.6,3,106.6c-41.9,42.2-10.9-109.4-59.6-86.1c-8.8,8.8-29.4,11.6-29-4.4c0.2-2.1-4,23.1-13.9,20.9
		c-10-26.1-68.2-49.1-64-89.1c0,0-15.8,10.2-30.8,24.1c-15.8,5.2-60,61-57.2,15.6c-71.9,114.9-3,1.3,32.5-84.2
		c-110.4,169.8-83.4,130.4-38-28.9c-3.6,0.7-29.8,67.1-66.1,53c-10-33.6,33.3-20.1,39.2-28.8c-45.3,7.5-20.3-37.7,9-17
		c-4.6-9.7-4.8-19.1,7.1-21.5c15.8-7.3,22.6-0.6,32.6,14.4c20.7-19,50,4.6,70.1,14.4c23.4,18.2,57.7,9.4,76.6,6.7
		c-47.6-26.1,16.9-26.7,36.5-33.4c-40.8-17.2-165,34.9-132.7-43.5c34.6-35.2,112.8-78.7,111.3-124c-13.9,34-45.7,5.2-72.4,14.2
		c-9.8,11.8-8.3,1.7-18.8-7.8c7.2-2,1.4-1-0.3-0.2c-85.3-17.9,7.8-49.8,20.5-57.1c0,0-118.1,41.7-118.1,41.7
		c-7.3-53.3,80.9-34.7,102.7-76.1c-6.5-28.5-62.1,27.4-102.1,18.3c27-44.2,70.1-83.3,48.2-139c5.3,51.8-19.4,91.3-54.3,124.8
		c-11-10.4-10.4-14.4,6.7-32.5c-20.2,13.3-42.7,6.3-32.5-16.1c-26.8-23.4-6.7-38.1,8.1-53.5c-22.6-38.6-16.8,13.8-32.3,33.4
		c-11,4.9-17.7-7.1-9.3-19.4c-22,11.1,3-21.5-21.1-4.3c7.1-86.8,1.7,21.1-29.8,45c-3.8-16.6-13.6,21.8-25.3,8.9
		c-3.7-14.3,8.8-56.3-9.8-33.4c-17.3,20.2-7.1-12.6-16.7-9.4c-11.3,22.9,7.1,38,19.8,56.8c-21.8-9.2,7.3,19,2.7,28.6
		c0.8,20.1-2.3,40.3-4,64.2c-12.6-7.6-51.1-40.3-35.1-18.2c76.1,40.9,11.9,42.7-31.3,55.3V618c21.8-10.3,49-27.4,61-17.2
		c0,0-34.3,12.1-61,21.5v26.9c17.9-8,36.4-15.9,41.4-6.5c-0.1,2.6-21.5,5.9-41.4,11.5v16.4c11.7-4.6,23.3-8.2,32.3-5.3
		c0,0-16.3,5-32.3,9.9v33.9c41.7-15,34.8-7.9,0,5.1V743c3.5-2.5,8-3.8,14-5.1C9.3,745.2,6.6,753.5-0.2,757.3z M1601.6,715.8
		c16-4.3,21.3,28.1,5.2,26.7C1605.2,732.5,1603.4,723.6,1601.6,715.8z M1614.6,818.7c-1.1-26.6-3.6-50-6.7-69.7
		C1623.7,754.4,1615.7,789.4,1614.6,818.7z M1621.7,719.7c12.5-25.8,67.8,23.4,16.7,20.4c-2.7-7.4-4.5-11.5-4.5-11.5
		C1639.4,755.1,1620.3,733.8,1621.7,719.7z M1628.4,749c22.5,6.2,11.4,65.4,16,116.1C1640.1,815,1634,776.7,1628.4,749z
		 M1641.6,749.1c51.1-0.6,31.6,95.2,28.3,156.9C1660,848.8,1655,775.3,1641.6,749.1z M1665,727.8c4.6,2.4,8.5,3.9,6.3,9.9
		C1668.2,736.5,1667.2,730.2,1665,727.8z M1683.3,1078.7c-13.5,2.9-6-7.7-3.7-16C1700.9,1067.6,1720.5,1075,1683.3,1078.7z
		 M1713.6,980.2c-19.1-7-5.9-30.4-6.6-45.1C1725,961.3,1748,999.7,1713.6,980.2z M1759.1,931c-27.6-7.8-39-119.4-39-119.4
		c-18.2,61.3-65.7-94.9-16.2-47.5c20.2,15.7,48.8,21,54.4,52c16.4,4.3-69.4,3.9,0.2,76.1C1773.4,904,1786.7,938.8,1759.1,931z
		 M1715.4,735.1c14.1-7,28.2-26.9,38-4.2C1741.1,731,1722.8,743.1,1715.4,735.1z M1812.9,678.8c18.6,0.9,26.2,2.7,41.3-2.1
		C1878.5,762.3,1833.3,739.9,1812.9,678.8z M1856.6,573c6.5,6.7,32.6,12.6,20.9,22.7C1865.8,596.9,1847.6,585.2,1856.6,573z
		 M1817.8,751.9c3-11.1-1.2-28.1,14.2-22.9C1833.7,745,1837,755.7,1817.8,751.9z M1837.5,1061.1c-16.5-17.2,11-20.2,22.4-8.7
		C1851.9,1054.3,1837.9,1057.3,1837.5,1061.1z M1873.5,803.7c12-0.7,38.3,48.2,21.1,56.8C1878.1,845.3,1872.4,826.1,1873.5,803.7z
		 M1876.8,944c-10.5-0.1,13.9,6.5,18.2,9c11.1,21-48,20.5-41.4-9.2C1856.5,890,1955.7,953.9,1876.8,944z M1880.1,659.7
		c-13.6,39.8-23.9-18.2-14.1-28.7C1882.8,620.3,1887,648.2,1880.1,659.7z M1914,569c5.4,29.2,11.1,43.5-18.8,43.6
		C1888.8,587.8,1881.2,574.8,1914,569z M1891.1,533.9c-13.9,10.2-26.7,19.6-41.9,30.8C1838.8,530.5,1872.2,493.2,1891.1,533.9z
		 M1843.3,450.5c10.7,16,18.5,27.6,28,41.7C1843.5,491.8,1823.9,475,1843.3,450.5z M1834.5,584.1c18.1,14.4,34.7,114.7,7.5,77.5
		c-6.1-9.7-7.9-14.6,5.7-24.5c-20.3-7.6-26.2,5-37.8,18.6c4-33.3-37.4-31.1-1.9-54.1c-45.1,24.7-8.3-22.1,1.7-46.6
		C1827.1,564.9,1798.6,613.8,1834.5,584.1z M1767.6,397.8c-5.4,9.4-3.7,31-17.6,25.9C1748.4,404.7,1745.2,392.8,1767.6,397.8z
		 M1695.3,518.7c23.4,45.2,15.2-40,47.7,3.7c81.4-2,22.1-1.8,44.9,23.5c-10.7,89.1-42.3-72.8-37.5,82.4c6.5-7.6,26.5-6.1,18.2,8.9
		c-7.6,19-27.5-0.4-40.8-2.7c16.7-27.2,4.5-58.2-9.6-16c-40.9-25.9,54.8-51.8-5.7-36.8c24.4-59.4-8-6.2-16.6,8.6
		c8.7-28.6-28-30.4,2.3-50.6C1680.3,546.8,1668,517.9,1695.3,518.7z M1704.9,711.9c5.5,2.8,7.5,12.8-0.6,15.2
		C1653.3,736,1645.5,682.6,1704.9,711.9z M1660.7,632c-3,15.1-10.7,45.7-25.8,22.9C1602,645.7,1632,630.8,1660.7,632z M1604,620.3
		c29.6-12.4,25.8,1.8,3.6,20.3C1606,632.4,1602.5,621.1,1604,620.3z M1604.4,694.6c15.9,1.4,8.1,16.3-3.5,17.9
		C1599.7,702.7,1591.3,692,1604.4,694.6z M1590.2,860.4c-8.1-66.6-15-167.5-23.5-191.2C1609.1,689.6,1586.5,757.1,1590.2,860.4z
		 M1570.5,549.2c21.7-2,17.1,12.5,18.8,22.9C1579.5,580.1,1576.6,555.8,1570.5,549.2z M1558.4,606.4c29.1-5,39.1,10.9,17.1,35.3
		C1568.9,628.1,1563.7,617.2,1558.4,606.4z M1417.4,979.4c1-2.6,6.4,1.3,9.8,2.6C1424.2,981.2,1417.4,979.4,1417.4,979.4z
		 M1437.2,959.9c0,0,14.6,7,18.3,8.8C1451.1,967.1,1434.3,965.3,1437.2,959.9z M1434.2,958.5c0.9,7.4-13,1.9-14.3-3.4
		c-1,2.2-3,4.2-6.3,1.8C1411.9,941.6,1429,958,1434.2,958.5z M1412.5,978.2l-4.1-1.1C1408,973.3,1414.5,975.5,1412.5,978.2z
		 M1410.7,947.1c-2,4.2-2.7,9.9-8.3,6.5C1404.3,947,1403.8,942.2,1410.7,947.1z M1404.3,1036.7c-1.2-0.2-3.1-0.1-3.2-0.9
		C1402.1,1036.1,1403.2,1036.4,1404.3,1036.7z M1281,942.8c-1-1.7-7-12.9-14.7-27.2C1279.7,913.8,1281.7,941.8,1281,942.8z
		 M1293.3,936.7c-0.4-2.3-3.4-13.1,2.2-8.7C1294.7,931.9,1293.9,934.9,1293.3,936.7z M1296.5,923.3c-10.8-2.8-5.2-21.6-9.4-35.6
		C1307.5,890.8,1298.5,910.4,1296.5,923.3z M1282.8,857.2c10,5.5,28.9,10.4,20.5,26.1C1288.5,881.1,1282.5,873.1,1282.8,857.2z
		 M1332.6,933.6c-4.1,1.6,5.7-21.1,5-21.7C1348.8,914.3,1332.9,929.2,1332.6,933.6z M1318.8,876c0,0,18.5,9.6,18.5,9.6
		C1332.9,900.4,1312.8,889.4,1318.8,876z M1342.2,1005.2c1-2.1,3.6-8.5,4.2-7.4L1342.2,1005.2z M1350.6,900c-6.6-1.6-9.8-3.3-6-10.6
		C1349.3,892,1356.6,893.5,1350.6,900z M1354.5,983.4c-3.1,0.7,0.8-7,2.5-4.5L1354.5,983.4z M1355.1,927.4c0.5-1.5,1.4-5,3.2-5.5
		C1358.3,921.9,1356,925.8,1355.1,927.4z M1364.8,1009.3c0.5-1.4,1-2.8,1.5-4.1C1367.3,1005.9,1365.5,1007.9,1364.8,1009.3z
		 M1372.4,987.5c0.2-2.6,1.9-0.9,3.5-0.4C1375.5,989.1,1373.8,987.7,1372.4,987.5z M1388.5,1062.1c1.1-2.2,1.7-4.4,4.4-2.9
		C1391.7,1060.8,1390.8,1062.9,1388.5,1062.1z M1398.3,974.4l-2.4-0.6C1396.4,968.4,1401.7,969.9,1398.3,974.4z M1393,914.6
		c0.2,0.6-5.9-1.9-5.9-1.8C1386.9,910.2,1392.3,914.7,1393,914.6z M1390.2,937.3c9.1,2.6,7.1,6.1,3,13.7
		C1382.8,950.3,1388,944.4,1390.2,937.3z M1384,970.6c0-0.2-6.7-1.4-6.1-1.9C1378.7,960.3,1389.6,963.8,1384,970.6z M1380.5,879.5
		c-1.3-0.5-3.7-1.4-7-2.5C1375,875.2,1378.7,878.2,1380.5,879.5z M1374.2,904.8c0.4,1,12.4,4.3,7.8,6.2
		C1380.1,909.6,1370.1,909.3,1374.2,904.8z M1378,931.4l4.4,2.1c-2.2,2.3-5.9,16.1-10.9,11.3C1371.5,944.8,1378,931.4,1378,931.4z
		 M1365.9,900.5c3.4,1.2,3.8,2.4,1.5,5.4C1363.6,905.4,1364.7,903.6,1365.9,900.5z M1367.9,926.5c-1.1,1.2-2.2,2.4-3.2,3.6
		C1365.5,928.8,1365.5,924.5,1367.9,926.5z M1368.5,958.3l-4,7.1C1359.3,966.2,1365.4,954.3,1368.5,958.3z M1352.3,864
		c16,7.1,14.5,12-1.5,5L1352.3,864z M1347.6,867.9c-10.6-5.5-32.8-3.9-28.9-22.2C1328.8,854.4,1354.3,857.8,1347.6,867.9z
		 M1341.4,833.1c-8.7-5.5-25.3-3.8-25.9-15.1C1323.4,822.9,1332.1,828,1341.4,833.1z M1325.9,906.3c-5.8,6.9-7.3,23.4-15.2,21.1
		C1315.9,916.2,1310.6,894.5,1325.9,906.3z M1304.4,947.7c1.4-4.6,3.3-9.5,4.5-14C1313,935.6,1306.5,944.1,1304.4,947.7z
		 M1277.5,823.2c11.7,6.4,22.4,12.3,32.2,17.7C1309.9,867.8,1272.5,844.1,1277.5,823.2z M1238.7,864.3c0,0,37.1,17.9,37.1,17.9
		C1285.6,952.5,1251.5,892.5,1238.7,864.3z M1219.5,1004.1c0.3-13.3,17.3,14.5,26.9,24.1C1239.5,1022,1219.5,1004.1,1219.5,1004.1z
		 M1223.3,1022.7c-2-2-4.2-4.1-6.6-6.1C1217.4,1013.8,1220.9,1020,1223.3,1022.7z M1225.7,938.5c-7.6-25.2,15.4,12.7,22.1,22.9
		C1244.3,957.7,1235.7,948.8,1225.7,938.5z M1244.8,982.6c-7.3-7.5-27.7-27.3-25.1-27.8C1221.6,943.9,1238.2,973.1,1244.8,982.6z
		 M1239.8,927.4c-7.8-8.5-14.9-15.9-21.4-22.4C1217.3,882,1230.5,917.5,1239.8,927.4z M1262.7,1027c-11.4-10.6-43.7-40.6-43.7-40.6
		C1201.5,932.1,1247.9,1008.8,1262.7,1027z M1223.3,1039.8c-3.3-2.6-6.5-5.1-9.5-7.4C1213.9,1026.2,1220.6,1038,1223.3,1039.8z
		 M1221.2,1051.5c-3.1-2.4-6.1-4.6-9.1-6.7C1212.9,1042,1217.9,1048.6,1221.2,1051.5z M1208.8,1059.4c3.8,3.3,7.8,6.8,11.7,10.2
		C1215.9,1066.2,1208.3,1064.3,1208.8,1059.4z M1102.7,1042.9c2.6,2.8,5.8,6.1,7.4,8.6C1116.3,1061.5,1079.9,1044.7,1102.7,1042.9z
		 M1021.3,1012.4c1.3-0.6,2.7-1.1,4-1.7C1026.3,1011.4,1022.9,1011.9,1021.3,1012.4z M1070.1,947.8c6.8,20.6-1.8,20.8-18.2,24.8
		C1045.5,959.2,1059.9,951.3,1070.1,947.8z M1071.6,979.2c-5.4,3.6-11.5,3.7-15.6,0.1C1062.9,976.4,1082.9,965.9,1071.6,979.2z
		 M1055.8,942.6c0.2-9.4,14.5-14.3,20.7-17.7C1073.7,934.6,1065.7,941.1,1055.8,942.6z M1085,878.1c-4,13.8-18.4,12.5-31.3,18.7
		C1065.5,890.2,1076,883.9,1085,878.1z M1082,899.6c4.5,19.5-27,19.3-39.9,21.8C1051.7,916.2,1065.1,908.9,1082,899.6z
		 M1029.6,1024.8c2.1-0.8,4.2-1.6,6.3-2.4C1035,1024,1032.7,1024.8,1029.6,1024.8z M1028.4,995.7c-8.9-4,2.6-5.8,6.7-7.9
		C1035.8,993.5,1032.7,995.1,1028.4,995.7z M1031.3,978.5c-6.9,2.4-13.4,5.2-15.5-4.6C1022.9,968.4,1027.3,971.3,1031.3,978.5z
		 M1017.2,955.7c0.6,0.6-2.3,1.1-2.4,1.3C1014.8,957,1017.2,955.7,1017.2,955.7z M1006.3,999.4c8.1,2.4-10.9,4.1-11.2,5.1
		C996.2,1002.2,1003.2,1001.3,1006.3,999.4z M993.4,989.4c-2,0.1-9.2,4.3-9.8,0.1C986.9,988,991.2,984.4,993.4,989.4z M974.7,993.7
		c0.1,1.5-4.2,2-5,2.4C969.7,996.2,974.7,993.7,974.7,993.7z M745.6,1032.7c0.4,4.6-7.9,7.1-18,5.9
		C731.9,1032.4,741.7,1022,745.6,1032.7z M719.3,1064.1c2.1,1.3,1.8,2.5-1,2.9C718.4,1066.3,719.2,1065,719.3,1064.1z M602.7,930.1
		c10.7,8.3,7.2,26.9-0.3,33.7C593.1,972,599.7,952.5,602.7,930.1z M423.7,1046.4c7.7,10-23,16.1-25.4,14.1
		C386.8,1060,409.9,1047,423.7,1046.4z M374.5,1007c0.2,15.3-9.1,11.6-20.4,10.6C352.9,1014.3,373.8,983,374.5,1007z M180,807.8
		c-3.9,10-7.6,20.9-10.7,32.6C144.6,841.6,157.1,802.1,180,807.8z M165,858c-9.1,2.6-6.1-6.8-6.9-13.9
		C172.9,839.1,166.8,847.1,165,858z M159.4,890.5c-0.1-6.2-0.3-17.2-0.7-30.8C169.8,856.3,160.7,877.5,159.4,890.5z M180.2,999.9
		l-22,6.3C162.1,1004.9,176.3,995,180.2,999.9z M239,1073.2c-14-0.3-32,0.4-52.9,3.4C210.7,1071.6,285.6,1046.3,239,1073.2z
		 M211.6,1021.9c5.1-2.2,11.5-7.5,14-3.8C220.7,1019.3,216,1020.5,211.6,1021.9z M242.6,1050.5c4.4-0.7,8-0.8,10.6-0.2
		C249.9,1050.2,246.3,1050.3,242.6,1050.5z M224.7,974.2c0,0,34.1-16.4,34.1-16.4C258.2,975.8,240.1,988.1,224.7,974.2z
		 M265.6,898.3c-5.1,1.8-10.5,3.7-16.2,5.8C251,900.8,263,891.9,265.6,898.3z M261.4,858.7c-4.8,7.8-6.2,19.3-3.9,26.8
		C224.6,900.9,241.3,871.9,261.4,858.7z M253.8,949.2c0,0-38.6,13.6-38.6,13.6C214.6,959.7,251.4,937.6,253.8,949.2z M230.3,931.5
		c4.1,4.1-10.4,7.1-15.9,8.6C217,938.7,222.4,935.8,230.3,931.5z M212.4,903.1c3.3,3.4-6.3,4.9-7.6,6.2
		C204.9,909.3,207.4,907.3,212.4,903.1z M211.6,1007.1c0,0-32,8.5-32,8.5C189.4,1012.7,201.1,1003.2,211.6,1007.1z M187.8,789.4
		c-0.2,16.2-33,26.2-32.7,6.9C168.6,793.4,179.7,791.1,187.8,789.4z M312.3,727.5c14.5,4.1,67.1-14.2,54.8,14.5
		C354.5,778.3,261.4,718,312.3,727.5z M42.2,900.8c-0.7,0.2-0.4-0.6-0.5-1.1C42.4,899.7,42.3,900.3,42.2,900.8z M65.5,690.5
		c-3.2-1-27.7,15.3-19.7,1.2C52.2,690.7,63.4,679.9,65.5,690.5z M50.5,654.8c5.2-2.2,5.8-1.9,3.8,3.7
		C51.6,660.2,51.6,656.7,50.5,654.8z M60,656.8c0.3-5.6,3.7-6.8,8.4-8C66.2,652.2,64.4,656.4,60,656.8z M113.9,712.3
		c19.6,19.6-42.6,23.2-48.9,27.7C67.9,718.1,95.6,702.8,113.9,712.3z M78.4,705.2c1.6-8.9,8.4-9.2,14.6-4.3
		C88.2,702.3,83.3,703.8,78.4,705.2z M87,745c33.7-22,26.9,19-1,17.1C84.5,753.3,99.2,744.3,87,745z M82.3,857.5
		c4.3-1.4,5-0.3,4.5,4.1C83.1,862.4,82,861.5,82.3,857.5z M84.3,887c6-15.9,1.4,11.8,2.9,12.8C83.4,902.4,85.1,888.1,84.3,887z
		 M87.4,911.1c0,0,0.2,16,0.2,22C87.1,926.9,84.7,909.5,87.4,911.1z M102,838.1c-0.6-4.6-6.6-13.8,1.1-13.9
		C102.6,829.6,102.3,834.4,102,838.1z M94.2,811.4c-1.9-4.3,7.5-2.9,10.2-4.5C105.3,812.9,98.1,810.3,94.2,811.4z M88.7,793.4
		c-5.3-9.8,12-10.6,17.9-12.7C108.5,794.4,99.2,792.5,88.7,793.4z M113.9,839.4c-0.4-4.9-1.4-17.3-1.4-17.3
		C116.5,823.7,114.6,834.6,113.9,839.4z M115.7,809.4c-3.6,0.9-4.7,0-4.4-3.9C115.7,804.1,116.7,804.6,115.7,809.4z M110.2,791.4
		l-0.9-11.1C123.3,771.2,121.9,792.6,110.2,791.4z M131.2,739.2c-16,38.1-21.1,10.3,2.7-11.3c14.1-5,3.8,25.8-2.5,26.6
		C131.2,748.1,131.2,742.8,131.2,739.2z M136.4,869.2c-0.2-1.2-1.3-5.2,0.8-5.4L136.4,869.2z M135.7,858.9
		c0.4-4.1-3.2-12.4,3.9-11.6C138.7,848.7,139.5,861.1,135.7,858.9z M140.5,840.7c-10.4,2.2-10.4-28.9,3.6-25.3
		C144.1,815.4,140.5,840.7,140.5,840.7z M133.3,807.9c-2.9-9.8,7.2-7.8,13.4-9.8C147.3,808.2,141.5,807.5,133.3,807.9z M148,788.6
		c-25.2,6.5-18.6-21.3,2.8-19.4C150.8,769.2,148,788.6,148,788.6z M143.7,732.9c-1.1-17.8,37.8-18.5,39-23
		C175.6,731.5,163.6,737.8,143.7,732.9z M143.7,719.5c-46.9-18.7,31.3-35.4,45.6-44.3C192.1,710.9,169.4,714.6,143.7,719.5z
		 M171.9,664.7c35.6,22.8-42.4,13.8-70.9,33.8c18.2-30.8,108.8-51.2,97.1-55.1c0,0-112.3,39.8-112.3,39.8
		c28.2-32.5,98.7-42.4,121.6-59.7C206.3,647.3,192.1,664,171.9,664.7z M109.7,607.6c11.6,20.6,31.7-28.8,36.9,3.7
		C135.4,615.9,73.9,634.9,109.7,607.6z M99.1,576.7c5.2-2.2,10.4-4.5,15.5-6.8C111.2,581.6,109,585.8,99.1,576.7z M133.8,534.9
		c-3.1-24.4,42.8-55.9,36.3-17.8C171.7,525.4,137.7,532.3,133.8,534.9z M148.4,561.5c14.5,9.9-13.1,10.7-17.2,14.5
		C136.9,571.2,142.7,566.3,148.4,561.5z M153.6,628l-60.8,18.7C99.6,634.5,147.1,614.8,153.6,628z M182.9,627.8
		c9-3.5,17.5-6.9,25.5-10C209.8,619.3,188.9,625.7,182.9,627.8z M160.3,625.9c-2.6-14.4,69.8-39.5,50-15.4L160.3,625.9z
		 M308.2,572.3c2.7,9.7-28.5,11.4-31.4,2.9C290,570.7,297.3,564.5,308.2,572.3z M296.9,566.5l-21.6,6.4
		C267.8,560.1,292.7,561,296.9,566.5z M275.2,590.6c0,0-47.5,14.6-47.5,14.6c21-37,72.2-20.2,107-21.9
		c102.9-1.5-26.5,67.7-55.8,99.4c-66.8,42.5-37.5-13.1-65.6-40.7c37.1-17-3.3-21.8,23.6-32.9c-6.3,2.2-13.3,4.6-13.3,4.6
		C248.2,598.2,277.8,591.4,275.2,590.6z M239.5,493.1c39-3.8-26.3,11.8-26.9,14.2C208.3,489.9,228.9,495.7,239.5,493.1z
		 M189.4,508.5c8.9-16.4,14.4-19.5,14.6,1.8C199.6,510.1,181.7,522.9,189.4,508.5z M191.5,576.7c69.1,7.2-18.7,26.2-31.2,30.6
		C131.3,589.9,169.2,579.4,191.5,576.7z M177.5,433.9c2.3,24.8,9.5,52.9-23.6,40.1C162.3,458.4,152.7,435.5,177.5,433.9z
		 M77.1,458.7c11.5-21.3,91.4-66.5,75.7-11.1c-31.8-30.1,6.3,62.1-30.9,76.1c26,15.1-42.4,31.6-38.3,24.8
		C61.5,515.8,94,475,77.1,458.7z M82.4,618.8c10.3,6.7-10.3,16.3-16.9,16.7C66.1,624.4,73.2,621.7,82.4,618.8z M68,589.9
		c1,5.8-0.5,4.4-4.3,1.8C65.1,591.1,66.5,590.5,68,589.9z M60.5,637c-5.8,1-17.8,8.9-18.2-2.5C52,632.4,68.6,618.8,60.5,637z
		 M63.9,709.5c-7.7,2.3-15.5,4.6-23.4,7C44.5,713.4,67.4,701.7,63.9,709.5z M58.2,723.8c-4.2,8.2-9.7,16.2-15.9,22.1
		C23.1,749.3,43.9,721.7,58.2,723.8z M29.4,738.7c-0.5,3.9,2.8,11.1-2.6,11.2C26.7,746.4,27.8,742.4,29.4,738.7z M29.3,765.6
		c0.8,3.7-3.4,5.7-4.2,1.5C26.5,766.6,27.9,766.1,29.3,765.6z"/>
	<path class="shrubst0" d="M237,609.1c5.3-1.8,10.1-3.5,10.1-3.5C243,606.9,239.7,608,237,609.1z"/>
	<path class="shrubst0" d="M27.9,720.2C27.4,720.3,27.7,720.3,27.9,720.2C27.8,720.3,27.4,720.3,27.9,720.2z"/>
	<path class="shrubst0" d="M1418.1,1065.5C1417.1,1065.2,1417.6,1065.3,1418.1,1065.5C1417.6,1065.3,1416.5,1065.5,1418.1,1065.5z"/>
	<path class="shrubst0" d="M1395.9,1016.6c0.3,0.1,0.6,0.2,0.9,0.3C1396.5,1016.8,1395.8,1017,1395.9,1016.6z"/>
	<path class="shrubst0" d="M1616.3,700.4C1616.3,700.4,1616.3,700.4,1616.3,700.4C1616.2,700.2,1616.2,700.2,1616.3,700.4z"/>
	<path class="shrubst0" d="M1545.8,653.3c1.4,0.4,1,0,0.1-0.7C1545.8,652.6,1545.8,653.3,1545.8,653.3z"/>
	<path class="shrubst0" d="M1593.2,523.8c0.1,0.4,0.3,0.1,0.5-0.1C1593.7,523.7,1593.2,523.8,1593.2,523.8z"/>
	<path class="shrubst0" d="M408.4,552.7c-0.3,0.7-0.3,0.7,0.4,0.4C408.8,553,408.4,552.7,408.4,552.7z"/>
	<path class="shrubst0" d="M315.8,459.6c0.1,0.2,0.1,0.6,0.3,0.4L315.8,459.6z"/>
	<path class="shrubst0" d="M97.9,421.4L97.9,421.4C97.6,420.4,97.6,420.5,97.9,421.4z"/>
	<path class="shrubst0" d="M772,107.5C772,107.4,772,107.4,772,107.5C771.9,107.3,771.9,107.4,772,107.5z"/>
	<path class="shrubst0" d="M1921,137.3v-25.4c-6.5,3.5-16.5,6-16.6-19.5c-11.7-11.2-38.5-12.5-11.7,5.3c-31.1,0.7-35.8,0.3-26.3,29.1
		c-22.5-41.4-66.9-33.9-86.1-78.1c55.8-10.3-45.5-34.6-59.7-5.3c-20.7-23.9-35.3,22.9-53,25.4c-47.2-3.2-174.1,53.8-155.3-36.6
		c-29.1,6,4.6,27.7-9.3,47.1c-2.2,1.9,17.2-4.3,10.6,13.5c24.2,4.9-45.6,31.6-55.1,1.6c-19.5-6.6-57.3,6.2-60.2-22.9
		c-14.8-69.2-17.8-38-1.3,14.8c-85-1.5-132.4-85.4-218.9-62.1c-18.5,2.2-35.9,1.5-33.9-24.2c-9.2,39.9-46.9,14.3-74,9.2
		c-23.6,18.1-62.3,15.4-91.4,22.1c68.1,11.2-75.1,74.1-104.8,52.4c-34.2-6.7-65.5,12-59.8-41.6c-2.3,10.8-3.5,18.2-5.6,25.2
		c-2,22.3-15.9,18-31.2,14c-17.3,11.4-19.8,31.1,7.9,12.8c27.2,6.9,115.4-27.5,106.2,20.3c64.8-36.5,98.2-29.7,168.3-48.5
		c19.2,6.5,33.4,7.6,55.2-4.3c58.8,4,113.4,35.3,173.7,21.9c174,18.3,265.1,38.6,44,123.8c82.7-0.4,121.4-83.7,183.3-76.6
		c39,12.9,92.5,9.4,124.6,28.2c-17.6,12.3-26.9,13-26.1,37.3c53.8-71.5,163.7-18.1,243.4-45.1c-3.5,5.4-6.1,9.3-8.4,12.9
		C1862,148,1896.3,141.8,1921,137.3z M1002.4,43.5c16.8-13.4,33.2-9.8,45.2,10.1C1032.9,64.7,1000.9,64.3,1002.4,43.5z M1046.6,43.1
		c29.3-27.2,61.9-10.5,93.6-14.5C1152.1,65,1064.5,54.9,1046.6,43.1z M1218.4,69.9c-20.6-13.7-87.5,1.9-71.1-39.2
		C1222.2,6.5,1387.1,88.2,1218.4,69.9z M1541.5,95.9c28.2-2.6,77.2,17.6,96.4,43.7C1615,131.5,1483.3,129.9,1541.5,95.9z M1561,84
		c35.2-3.5,67.3-6.6,99.4-9.8C1652,137.7,1606.7,100.9,1561,84z M1691.7,80.4c14.9,12.6,29.7,25.2,46.3,39.3
		c-9-63.2,106.6-32.4,112.3,15.1C1785.8,130,1663.2,194.8,1691.7,80.4z"/>
	<path class="shrubst0" d="M1069.3,37C1069.3,37,1069.3,37,1069.3,37C1069.3,37,1069.3,37,1069.3,37z"/>
</g>
</svg>
