<?xml version="1.0" standalone="no"?>
<!DOCTYPE svg PUBLIC "-//W3C//DTD SVG 20010904//EN"
 "http://www.w3.org/TR/2001/REC-SVG-20010904/DTD/svg10.dtd">
<svg version="1.0" xmlns="http://www.w3.org/2000/svg"
 width="320.000000pt" height="320.000000pt" viewBox="0 0 320.000000 320.000000"
 preserveAspectRatio="xMidYMid meet">
<metadata>
Created by potrace 1.11, written by Peter Selinger 2001-2013
</metadata>
<g transform="translate(0.000000,320.000000) scale(0.100000,-0.100000)"
fill="#000000" stroke="none">
<path d="M850 2861 c0 -6 -9 -8 -20 -6 -25 5 -80 -14 -80 -27 0 -5 -3 -7 -7
-5 -5 2 -18 -7 -30 -20 -12 -13 -20 -23 -17 -23 2 0 -1 -10 -8 -22 -7 -14 -13
-72 -14 -145 -1 -67 -5 -127 -9 -133 -3 -5 -3 -10 2 -10 9 0 8 -94 -2 -109 -3
-6 -3 -11 2 -11 9 0 8 -94 -2 -109 -3 -6 -3 -11 2 -11 9 0 8 -94 -2 -109 -3
-6 -3 -11 2 -11 9 0 8 -94 -2 -109 -3 -6 -3 -11 2 -11 4 0 8 -47 7 -105 0 -58
2 -105 6 -105 3 0 6 -21 5 -47 0 -27 1 -52 4 -58 3 -5 6 -14 7 -20 6 -34 14
-73 19 -95 4 -14 8 -32 10 -40 1 -8 5 -22 8 -30 37 -103 61 -176 59 -182 -1
-5 3 -8 9 -8 6 0 9 -7 5 -15 -3 -8 -1 -15 3 -15 5 0 17 -20 28 -45 10 -25 21
-45 26 -45 4 0 7 -5 7 -10 0 -6 11 -28 25 -50 14 -22 23 -40 20 -40 -3 0 3 -9
13 -19 32 -36 42 -50 42 -60 0 -5 8 -16 18 -23 10 -7 23 -20 28 -30 5 -9 25
-33 44 -55 19 -21 34 -41 33 -45 -2 -4 6 -10 17 -13 10 -3 22 -15 25 -26 4
-10 10 -19 16 -19 16 0 48 -33 42 -43 -3 -6 -1 -7 5 -3 6 4 17 -2 24 -14 7
-11 18 -20 25 -20 7 0 16 -6 20 -13 4 -7 25 -23 46 -36 20 -12 37 -26 37 -31
0 -4 11 -11 25 -14 14 -4 25 -11 25 -16 0 -6 7 -10 15 -10 8 0 15 -5 15 -11 0
-5 4 -8 9 -4 6 3 14 -2 19 -11 5 -9 11 -15 13 -14 10 3 79 -31 79 -40 0 -5 6
-7 14 -4 8 3 17 0 21 -5 3 -6 11 -9 16 -6 5 4 9 1 9 -5 0 -6 5 -8 10 -5 5 3
10 2 10 -3 0 -5 6 -9 13 -9 10 -1 64 -19 147 -50 8 -3 24 -7 35 -9 30 -5 60
-12 60 -14 0 -2 35 -9 85 -16 25 -3 49 -8 53 -11 5 -3 59 -6 120 -8 80 -2 120
2 139 12 15 7 31 14 35 15 9 3 57 50 61 61 1 4 5 20 8 37 4 18 11 27 18 23 8
-5 8 -3 1 8 -6 8 -12 28 -13 44 -4 44 -52 107 -97 129 -22 11 -62 20 -90 20
-27 1 -56 5 -62 9 -7 5 -13 4 -13 -1 0 -5 -7 -9 -15 -9 -8 0 -15 3 -15 7 0 3
-17 6 -37 7 -48 2 -103 12 -124 24 -9 4 -19 6 -22 2 -4 -3 -14 0 -23 8 -10 8
-20 13 -23 12 -20 -9 -251 91 -251 108 0 4 -11 10 -25 13 -14 4 -25 11 -25 16
0 6 -7 10 -15 10 -7 0 -18 7 -23 16 -5 9 -12 15 -16 14 -14 -3 -162 131 -211
192 -41 51 -95 126 -95 133 0 5 -6 16 -14 24 -27 32 -67 114 -62 128 3 8 2 12
-3 9 -10 -7 -33 42 -26 55 4 5 1 9 -4 9 -6 0 -11 8 -11 18 0 10 -3 22 -7 26
-7 6 -13 29 -15 54 -1 6 -4 12 -7 12 -3 0 -7 10 -8 23 -2 24 -10 62 -13 62 -3
0 -7 38 -13 105 -3 30 -9 64 -13 74 -5 13 -4 17 4 12 8 -4 8 3 1 26 -11 41
-11 41 1 33 6 -4 7 2 2 17 -9 27 -8 70 2 86 3 6 3 13 -2 16 -10 6 -9 57 1 74
5 6 4 12 0 12 -5 0 -9 9 -10 20 -1 11 2 18 8 15 5 -4 5 3 0 18 -5 13 -6 30 -1
37 5 7 4 24 -1 37 -12 32 -11 36 4 27 9 -5 9 -4 0 6 -8 9 -9 19 -3 31 7 11 7
20 0 24 -5 3 -10 11 -10 16 0 6 6 7 13 3 9 -6 9 -5 0 7 -10 12 -10 18 -1 27 7
7 8 12 2 12 -5 0 -10 9 -11 20 -1 13 2 18 10 14 9 -5 9 -4 0 6 -8 9 -9 19 -3
31 7 11 7 20 0 24 -5 3 -10 11 -10 16 0 6 4 7 10 4 9 -5 1 26 -11 46 -2 3 2
13 10 22 7 10 9 17 4 17 -5 0 -9 9 -10 20 -1 11 2 18 6 16 11 -7 -8 73 -25
105 -7 14 -10 29 -6 33 4 4 3 6 -3 5 -5 -2 -21 4 -35 13 -38 26 -100 49 -100
39z"/>
<path d="M1547 2864 c-3 -3 -21 -7 -39 -9 -48 -4 -69 -15 -105 -54 -30 -33
-37 -51 -36 -88 1 -7 -2 -13 -6 -13 -6 0 -7 -117 -1 -130 1 -3 1 -9 0 -15 -8
-38 -8 -65 0 -65 6 0 10 -5 10 -11 0 -5 -3 -8 -8 -6 -9 6 -9 -154 0 -169 4 -5
3 -16 -2 -24 -5 -8 -5 -21 0 -31 5 -9 6 -19 2 -23 -9 -10 -9 -216 1 -216 4 0
7 -5 7 -11 0 -5 -3 -8 -8 -5 -4 2 -7 -18 -7 -45 0 -27 2 -49 5 -49 3 0 5 -11
5 -25 0 -14 -4 -25 -9 -25 -6 0 -5 -5 2 -12 7 -7 12 -29 12 -50 0 -21 3 -38 8
-38 4 0 8 -10 9 -22 1 -13 4 -35 5 -50 2 -15 9 -33 16 -40 6 -6 12 -18 12 -25
0 -33 111 -218 152 -254 10 -9 18 -21 18 -27 0 -5 10 -12 22 -15 12 -4 19 -9
16 -13 -4 -3 21 -27 55 -52 34 -26 64 -49 67 -52 3 -4 20 -13 38 -21 17 -8 32
-17 32 -21 0 -5 3 -7 8 -6 4 0 25 -7 47 -17 22 -9 47 -18 54 -20 8 -1 17 -7
19 -13 2 -7 8 -10 13 -6 5 3 24 1 42 -5 49 -15 96 -22 164 -24 35 -1 63 -5 63
-8 0 -3 7 -6 15 -6 8 0 12 4 9 9 -3 4 0 9 5 9 21 3 26 4 39 12 6 5 12 5 12 2
0 -9 21 13 52 55 22 30 26 45 26 103 0 37 -4 67 -9 67 -5 0 -9 7 -9 15 0 8 -4
15 -10 15 -5 0 -10 7 -10 15 0 8 -7 15 -15 15 -8 0 -15 5 -15 10 0 6 -7 10
-15 10 -8 0 -15 4 -15 8 0 9 -6 11 -60 14 -19 2 -40 6 -47 11 -6 4 -14 3 -18
-3 -4 -6 -11 -8 -16 -4 -8 5 -32 10 -76 18 -7 1 -16 5 -19 9 -4 4 -16 7 -26 7
-10 0 -26 8 -36 18 -10 9 -25 18 -33 20 -16 4 -80 51 -91 66 -4 6 -4 14 -1 20
3 5 1 6 -6 2 -12 -8 -65 43 -56 53 3 2 -4 10 -15 18 -11 8 -20 25 -20 39 0 14
-4 22 -10 19 -5 -3 -11 -1 -11 4 -3 21 -4 26 -12 39 -5 6 -6 12 -2 12 3 0 1 8
-4 19 -21 38 -24 97 -27 506 -1 231 -4 431 -7 445 -5 30 -35 80 -49 80 -5 0
-6 5 -3 10 4 6 3 10 -2 9 -15 -4 -43 13 -37 22 3 5 -2 6 -11 3 -8 -4 -21 -1
-29 5 -7 6 -16 8 -19 5z"/>
<path d="M2201 2863 c-1 -6 -9 -10 -18 -9 -21 3 -57 -17 -94 -54 -26 -24 -42
-64 -42 -105 -1 -11 -6 -23 -11 -27 -7 -5 -7 -8 2 -8 6 0 12 -7 12 -16 0 -9
-5 -12 -12 -8 -8 5 -8 3 -2 -7 13 -20 12 -92 0 -101 -7 -5 -6 -8 3 -8 11 0 11
-3 0 -17 -10 -11 -10 -14 -1 -9 6 4 12 3 12 -1 0 -5 -6 -15 -12 -22 -11 -11
-10 -13 0 -7 14 8 12 -19 -2 -43 -6 -10 -5 -12 2 -7 7 4 12 1 12 -8 0 -9 -4
-16 -10 -16 -5 0 -10 -5 -10 -11 0 -5 5 -7 10 -4 6 4 10 -5 8 -24 -1 -17 -7
-31 -13 -31 -7 0 -7 -3 0 -8 6 -4 11 -16 11 -27 0 -11 -5 -23 -11 -27 -6 -5
-6 -8 3 -8 6 0 12 -7 12 -16 0 -9 -5 -12 -12 -8 -9 5 -9 2 1 -9 11 -14 11 -17
0 -17 -9 0 -10 -3 -4 -8 9 -6 13 -47 6 -62 -8 -17 -8 -39 0 -34 5 3 9 -2 9
-11 0 -10 -5 -13 -12 -9 -7 5 -8 3 -2 -7 11 -17 14 -100 3 -94 -4 3 -6 -3 -4
-12 2 -10 4 -18 5 -18 1 0 4 -13 6 -30 3 -32 21 -72 42 -93 6 -7 12 -16 12
-20 0 -9 49 -32 67 -32 7 0 13 -3 13 -8 0 -11 61 -7 93 6 16 7 31 12 34 12 15
0 76 83 80 109 6 36 3 800 -3 838 -3 23 -15 50 -25 59 -10 9 -16 21 -12 27 3
6 1 7 -5 3 -7 -4 -12 -2 -12 3 0 6 -7 11 -15 11 -8 0 -15 5 -15 10 0 6 -11 10
-25 10 -14 0 -25 5 -25 10 0 7 -6 7 -19 0 -14 -7 -21 -6 -24 3 -4 8 -6 8 -6 0z"/>
</g>
</svg>
