<?xml version="1.0" encoding="utf-8"?>
<!-- Generator: Adobe Illustrator 24.2.1, SVG Export Plug-In . SVG Version: 6.00 Build 0)  -->
<svg version="1.1" id="Layer_1" xmlns="http://www.w3.org/2000/svg" xmlns:xlink="http://www.w3.org/1999/xlink" x="0px" y="0px"
	 viewBox="0 0 272 484" style="enable-background:new 0 0 272 484;" xml:space="preserve">
<style type="text/css">
	.st0{fill:#A59BCB;}
	.st1{fill:url(#SVGID_1_);}
	.st2{fill:url(#SVGID_2_);}
	.st3{fill:url(#SVGID_3_);}
	.st4{fill:url(#SVGID_4_);}
	.st5{fill:#9B93C8;}
	.st6{fill:url(#SVGID_5_);}
	.st7{fill:url(#SVGID_6_);}
	.st8{fill:#CBCBCB;}
	.st9{fill:#969696;}
	.st10{fill:none;stroke:#E0E0E0;stroke-width:5.437;stroke-linecap:round;stroke-miterlimit:10;}
	.st11{fill:#DFDFDF;}
	.st12{fill:url(#SVGID_7_);}
	.st13{fill:url(#SVGID_8_);}
</style>
<g>
	<path class="st0" d="M66.5,327.1c0.7,7.7,1.2,15.5,1.4,23.4l13.2,10.3v10c0.6,0.5,2.2,0.9,4.5,1.3v11.8H189v-11.8l0,0
		c2.3-0.4,3.9-0.8,4.5-1.3v-10l13.2-10.3c0.1-7.8,0.6-15.7,1.4-23.4L66.5,327.1L66.5,327.1z"/>
	
		<linearGradient id="SVGID_1_" gradientUnits="userSpaceOnUse" x1="85.6" y1="348.15" x2="189" y2="348.15" gradientTransform="matrix(1 0 0 -1 0 772)">
		<stop  offset="0" style="stop-color:#C9C9C9"/>
		<stop  offset="0.4" style="stop-color:#F2F2F2"/>
		<stop  offset="0.6" style="stop-color:#F2F2F2"/>
		<stop  offset="0.8551" style="stop-color:#D4D4D4"/>
		<stop  offset="1" style="stop-color:#C9C9C9"/>
	</linearGradient>
	<path class="st1" d="M189,387.9v-15.8c-13.6,2.1-51.7,2.1-51.7,2.1s-38.1,0.1-51.7-2.1v14.6l4.2,2.8l-4.2,5.2c0,0,4.7,6.2,5.1,9
		c0.5,2.8-5.1,5.6-5.1,8.1s5.2,6.1,5.2,8.8s-5.2,8.9-5.2,10.7s6,5.5,6,8.6s-4.1,3.7-4.1,6.5c0,1.7,4.1,7.8,17.1,12l15.8,17.2h36.4
		l11.2-17.3c17.1-6.2,19.1-16.8,19.1-18.8c0-2.8-4.1-3.4-4.1-6.5s6-6.8,6-8.6c0-1.9-5.2-8-5.2-10.7s5.2-6.4,5.2-8.8
		c0-2.5-5.6-5.3-5.1-8.1C184.4,394.1,189,387.9,189,387.9z"/>
	<g>
		<g>
			<g>
				
					<linearGradient id="SVGID_2_" gradientUnits="userSpaceOnUse" x1="219.3076" y1="727.7871" x2="70.2995" y2="569.3679" gradientTransform="matrix(1 0 0 -1 0 772)">
					<stop  offset="0" style="stop-color:#FF0000"/>
					<stop  offset="0.25" style="stop-color:#FFFB00"/>
					<stop  offset="0.5" style="stop-color:#00FF62"/>
					<stop  offset="0.75" style="stop-color:#0015FF"/>
					<stop  offset="1" style="stop-color:#FB00FF"/>
				</linearGradient>
				<circle class="st2" cx="137.3" cy="131.4" r="123"/>
				
					<radialGradient id="SVGID_3_" cx="137.3" cy="640.6" r="123" gradientTransform="matrix(1 0 0 -1 0 772)" gradientUnits="userSpaceOnUse">
					<stop  offset="0.1986" style="stop-color:#FFFFFF;stop-opacity:0"/>
					<stop  offset="0.8753" style="stop-color:#FFFFFF;stop-opacity:0.7141"/>
					<stop  offset="0.9567" style="stop-color:#FFFFFF;stop-opacity:0.8"/>
					<stop  offset="1" style="stop-color:#FFFFFF;stop-opacity:0.9"/>
				</radialGradient>
				<circle class="st3" cx="137.3" cy="131.4" r="123"/>
			</g>
		</g>
	</g>
	
		<linearGradient id="SVGID_4_" gradientUnits="userSpaceOnUse" x1="26.4" y1="504.4" x2="248.1" y2="504.4" gradientTransform="matrix(1 0 0 -1 0 772)">
		<stop  offset="0" style="stop-color:#D9D9D9"/>
		<stop  offset="0.4" style="stop-color:#F2F2F2"/>
		<stop  offset="0.6" style="stop-color:#F2F2F2"/>
		<stop  offset="0.7867" style="stop-color:#E4E4E4"/>
		<stop  offset="1" style="stop-color:#D9D9D9"/>
	</linearGradient>
	<path class="st4" d="M248.1,184.6c0,0-39.9,81.8-41.4,165.9c0,0-1.2,5.5-69.4,5.5c-53.2,0-65.6-3.4-68.5-4.8l0,0l-0.9-0.7
		c-1.6-84.1-41.5-165.9-41.5-165.9s44.6-5.4,110.8-5.4S248.1,184.6,248.1,184.6z"/>
	<path class="st5" d="M84.2,361.6c-0.1,0-0.3,0-0.4-0.1c-0.3,0-0.5-0.1-0.7-0.1c-1.2-0.3-1.8-0.4-1.9-0.5L84.2,361.6z"/>
	
		<linearGradient id="SVGID_5_" gradientUnits="userSpaceOnUse" x1="68.8" y1="414.25" x2="205.8" y2="414.25" gradientTransform="matrix(1 0 0 -1 0 772)">
		<stop  offset="0" style="stop-color:#D9D9D9"/>
		<stop  offset="0.4" style="stop-color:#F2F2F2"/>
		<stop  offset="0.6" style="stop-color:#F2F2F2"/>
		<stop  offset="0.7867" style="stop-color:#E4E4E4"/>
		<stop  offset="1" style="stop-color:#D9D9D9"/>
	</linearGradient>
	<path class="st6" d="M205.8,351.2l-12.3,9.6l0,0l-3.1,0.7c-5.5,1-19.9,2.8-53.1,2.8s-47.5-1.8-53.1-2.8l-3.1-0.7l0,0l-12.3-9.6
		c2.9,1.5,15.3,4.8,68.5,4.8S202.9,352.7,205.8,351.2z"/>
	
		<linearGradient id="SVGID_6_" gradientUnits="userSpaceOnUse" x1="81.1" y1="404.4997" x2="193.5" y2="404.4997" gradientTransform="matrix(1 0 0 -1 0 772)">
		<stop  offset="0" style="stop-color:#D9D9D9"/>
		<stop  offset="0.4" style="stop-color:#F2F2F2"/>
		<stop  offset="0.6" style="stop-color:#F2F2F2"/>
		<stop  offset="0.7867" style="stop-color:#E4E4E4"/>
		<stop  offset="1" style="stop-color:#D9D9D9"/>
	</linearGradient>
	<path class="st7" d="M193.5,360.8v10c-0.6,0.5-2.2,0.9-4.5,1.3c-13.6,2.1-51.7,2.1-51.7,2.1s-38.1,0.1-51.7-2.1
		c-2.3-0.4-3.9-0.8-4.5-1.3v-10l0,0c0.1,0.1,0.7,0.3,1.9,0.5c0.2,0,0.5,0.1,0.7,0.1c0.1,0,0.3,0,0.4,0.1c5.5,1,19.9,2.8,53.1,2.8
		s47.5-1.8,53.1-2.8C192.4,361.2,193.3,360.9,193.5,360.8L193.5,360.8z"/>
	<path class="st8" d="M150.3,396.9c0,0-32.4-2.4-60.7-7.2l-4.1,5.1c0,0,0.7,0.9,1.5,2.1C107.8,400.9,150.3,396.9,150.3,396.9z"/>
	<path class="st8" d="M188.3,403.2c-1.5-2-4.8-4.2-4.4-6.4c0.1-0.7,0.5-1.5,0.9-2.5c-29,12.3-59.8,10.4-90.6,8.5
		C124.4,411.2,157.3,409.8,188.3,403.2z"/>
	<path class="st8" d="M184,412.8c0.9-2.5,4.7-5.5,5-7.7c-33.5,7.6-68.4,9.2-103.3,6.2c0,0.1-0.1,0.3-0.1,0.4c0,1.5,1.9,3.5,3.4,5.4
		C120.9,420.2,153.9,421.8,184,412.8z"/>
	<path class="st8" d="M189,424.5c0-0.9-4.4-8.5-4.9-9.5c-26.8,7.7-62.7,11.6-93.7,7c-0.6,1.5-3.7,7-4.7,8.7
		C118.2,433.8,157,434.5,189,424.5z"/>
	<path class="st9" d="M183.5,431.6c-0.1,0-0.3,0.1-0.4,0.1C183.2,431.7,183.3,431.7,183.5,431.6L183.5,431.6z"/>
	<path class="st8" d="M187,441c-32.1,6.6-66.1,11.8-97.3,2.3c-1,0.9-2.1,1.8-2.1,3.2c0,0.9,1.1,3,4.1,5.4
		c28.8,3.4,54.1,5.4,87.5,0.6C184.7,448.1,186.5,443.4,187,441z"/>
	<path class="st8" d="M91.4,440.9c30.1,0.1,62.9,1.1,91.6-9.2c-30.7,7.9-62.7,5-94.7,3.3c1.6,1.6,3.2,3.4,3.2,5
		C91.6,440.3,91.5,440.6,91.4,440.9z"/>
	<g>
		
			<image style="overflow:visible;opacity:0.2;enable-background:new    ;" width="163" height="213" xlink:href="../../../../../../../../lalelum/website/root/images/E18BC15E.png"  transform="matrix(0.2336 0 0 0.2336 113.8562 302.3482)">
		</image>
		<g>
			<g>
				<path class="st10" d="M143.9,344.1c-12.1,0-21.9-9.7-21.9-21.8v-11.8"/>
				<path class="st10" d="M143.8,333.1c-6,0-10.9-4.8-10.9-10.9v-11.8"/>
				<line class="st10" x1="143.8" y1="310.5" x2="143.8" y2="322.2"/>
			</g>
		</g>
	</g>
	<g>
		<g>
			<g>
				<path class="st11" d="M66.4,293.1c-2-8.3-4.1-16.6-6.2-24.8c-2.2-8.2-4.5-16.4-7-24.6c-2.4-8.2-5.1-16.3-7.7-24.3
					c-2.7-8.1-5.5-16.1-8.3-24.2c3.7,7.7,7.1,15.6,10.1,23.6c3.1,8,5.8,16.1,8.3,24.3c2.4,8.2,4.6,16.5,6.5,24.8
					C63.9,276.2,65.4,284.6,66.4,293.1z"/>
			</g>
		</g>
		<g>
			<path class="st11" d="M75.9,293.1c-1.8-8.3-3.6-16.5-5.5-24.7s-3.9-16.4-6.1-24.5c-2.1-8.2-4.4-16.3-6.7-24.4l-7.1-24.3
				c3.3,7.8,6.3,15.7,8.9,23.7c2.7,8,5.1,16.1,7.2,24.3c2.1,8.2,4,16.4,5.5,24.8C73.8,276.3,75,284.7,75.9,293.1z"/>
		</g>
		<g>
			<path class="st11" d="M85.3,293.1l-4.8-24.6c-1.7-8.2-3.3-16.4-5.2-24.5c-1.8-8.2-3.7-16.3-5.6-24.4l-5.9-24.4
				c2.9,7.9,5.4,15.8,7.7,23.9c2.3,8.1,4.3,16.2,6.2,24.4c1.8,8.2,3.4,16.4,4.6,24.7C83.7,276.4,84.7,284.8,85.3,293.1z"/>
		</g>
		<g>
			<path class="st11" d="M94.8,293.1l-4.1-24.6c-1.4-8.2-2.8-16.3-4.3-24.5c-1.4-8.2-3-16.3-4.5-24.4c-1.6-8.1-3.1-16.3-4.6-24.5
				c2.4,7.9,4.6,16,6.5,24.1s3.6,16.2,5.1,24.4c1.4,8.2,2.7,16.4,3.7,24.7C93.6,276.5,94.4,284.8,94.8,293.1z"/>
		</g>
		<g>
			<path class="st11" d="M104.2,293.1c-1.2-8.2-2.3-16.3-3.4-24.5s-2.2-16.3-3.4-24.5l-3.5-24.5c-1.2-8.2-2.3-16.3-3.4-24.5
				c2,8,3.8,16.1,5.3,24.2s2.9,16.3,4,24.4c1.1,8.2,2.1,16.4,2.8,24.6C103.5,276.6,104,284.9,104.2,293.1z"/>
		</g>
		<g>
			<path class="st11" d="M113.7,293.1c-1-8.2-1.9-16.3-2.7-24.5l-2.5-24.5l-2.4-24.5c-0.8-8.2-1.5-16.3-2.2-24.5
				c1.6,8.1,2.9,16.2,4.1,24.3c1.2,8.1,2.1,16.3,2.9,24.5s1.5,16.4,1.9,24.6C113.4,276.7,113.7,284.9,113.7,293.1z"/>
		</g>
		<g>
			<path class="st11" d="M123.1,293.1c-0.8-8.2-1.4-16.3-2-24.5c-0.6-8.2-1.1-16.3-1.6-24.5s-1-16.3-1.3-24.5
				c-0.4-8.2-0.7-16.3-0.9-24.5c1.1,8.1,2.1,16.2,2.8,24.4c0.8,8.1,1.4,16.3,1.9,24.5c0.5,8.2,0.9,16.3,1.1,24.5
				C123.3,276.8,123.3,284.9,123.1,293.1z"/>
		</g>
		<g>
			<path class="st11" d="M132.6,293.1c-0.6-8.2-1.1-16.3-1.5-24.5s-0.6-16.3-0.8-24.5c-0.1-8.2-0.2-16.3-0.2-24.5s0.2-16.3,0.5-24.5
				c0.6,8.1,1.1,16.3,1.5,24.5s0.6,16.3,0.8,24.5c0.1,8.2,0.2,16.3,0.2,24.5S132.9,285,132.6,293.1z"/>
		</g>
		<g>
			<path class="st11" d="M142,293.1c-0.3-8.2-0.5-16.3-0.5-24.5s0.1-16.3,0.2-24.5c0.2-8.2,0.4-16.3,0.8-24.5
				c0.3-8.2,0.8-16.3,1.5-24.5c0.3,8.2,0.5,16.3,0.5,24.5s-0.1,16.3-0.2,24.5c-0.2,8.2-0.4,16.3-0.8,24.5
				C143.2,276.8,142.7,285,142,293.1z"/>
		</g>
		<g>
			<path class="st11" d="M151.5,293.1c-0.2-8.2-0.2-16.4,0.1-24.6c0.2-8.2,0.6-16.4,1.1-24.5c0.5-8.2,1.1-16.3,1.9-24.5
				c0.7-8.1,1.7-16.3,2.8-24.4c-0.2,8.2-0.5,16.4-0.9,24.5c-0.4,8.2-0.9,16.3-1.3,24.5c-0.5,8.2-1,16.3-1.6,24.5
				C152.9,276.8,152.3,285,151.5,293.1z"/>
		</g>
		<g>
			<path class="st11" d="M160.9,293.1c0-8.2,0.3-16.4,0.8-24.6s1.1-16.4,1.9-24.6c0.8-8.2,1.8-16.3,2.9-24.5
				c1.1-8.1,2.5-16.2,4.1-24.3c-0.6,8.2-1.3,16.4-2.2,24.5l-2.4,24.5l-2.5,24.5C162.8,276.8,161.9,285,160.9,293.1z"/>
		</g>
		<g>
			<path class="st11" d="M170.4,293.1c0.2-8.3,0.7-16.5,1.5-24.7c0.7-8.2,1.7-16.4,2.8-24.6c1.2-8.2,2.5-16.3,4-24.4
				s3.3-16.2,5.3-24.2c-1.1,8.2-2.2,16.4-3.4,24.5l-3.5,24.5c-1.2,8.2-2.3,16.3-3.4,24.5C172.7,276.8,171.6,285,170.4,293.1z"/>
		</g>
		<g>
			<path class="st11" d="M179.8,293.1c0.4-8.3,1.1-16.6,2.2-24.8c1-8.3,2.3-16.5,3.7-24.7c1.5-8.2,3.2-16.3,5.1-24.4
				c1.9-8.1,4.1-16.1,6.5-24.1c-1.5,8.2-3.1,16.3-4.6,24.5c-1.5,8.1-3.1,16.3-4.5,24.4c-1.5,8.1-2.9,16.3-4.3,24.5L179.8,293.1z"/>
		</g>
		<g>
			<path class="st11" d="M189.3,293.1c0.6-8.4,1.6-16.7,2.9-25c1.3-8.3,2.9-16.5,4.6-24.7c1.8-8.2,3.8-16.3,6.2-24.4
				c2.3-8.1,4.9-16,7.7-23.9l-5.9,24.4c-1.9,8.1-3.8,16.3-5.6,24.4s-3.5,16.3-5.2,24.5L189.3,293.1z"/>
		</g>
		<g>
			<path class="st11" d="M198.7,293.1c0.8-8.4,2-16.8,3.6-25.1c1.5-8.3,3.4-16.6,5.5-24.8c2.2-8.2,4.5-16.3,7.2-24.3
				s5.6-16,8.9-23.7l-7.1,24.3c-2.3,8.1-4.6,16.2-6.7,24.4c-2.2,8.1-4.1,16.3-6.1,24.5C202.4,276.6,200.5,284.9,198.7,293.1z"/>
		</g>
		<g>
			<g>
				<path class="st11" d="M208.2,293.1c1-8.5,2.5-16.9,4.3-25.3s4-16.6,6.5-24.8s5.2-16.3,8.3-24.3c3-8,6.4-15.9,10.1-23.6
					c-2.8,8.1-5.5,16.1-8.3,24.2c-2.7,8.1-5.3,16.2-7.7,24.3c-2.5,8.1-4.8,16.3-7,24.6C212.3,276.6,210.2,284.8,208.2,293.1z"/>
			</g>
		</g>
	</g>
	<g>
		
			<radialGradient id="SVGID_7_" cx="-235.6635" cy="664.2357" r="79.6123" gradientTransform="matrix(0.7822 0 0 -1 257.5331 772)" gradientUnits="userSpaceOnUse">
			<stop  offset="1.444043e-02" style="stop-color:#FFFFFF;stop-opacity:0.5"/>
			<stop  offset="1" style="stop-color:#FFFFFF;stop-opacity:0"/>
		</radialGradient>
		<path class="st12" d="M100,159.5c-7.1-11.7-11.4-26.4-11.4-42.4c0-19.8,6.5-37.6,16.9-50.2H64.3c-10.4,12.6-16.9,30.4-16.9,50.2
			c0,16,4.3,30.7,11.4,42.4H100z"/>
	</g>
	<g>
		
			<radialGradient id="SVGID_8_" cx="2690.4424" cy="664.2357" r="79.6123" gradientTransform="matrix(-0.7822 0 0 -1 2305.9509 772)" gradientUnits="userSpaceOnUse">
			<stop  offset="1.444043e-02" style="stop-color:#FFFFFF;stop-opacity:0.5"/>
			<stop  offset="1" style="stop-color:#FFFFFF;stop-opacity:0"/>
		</radialGradient>
		<path class="st13" d="M174.6,159.5c7.1-11.7,11.4-26.4,11.4-42.4c0-19.8-6.5-37.6-16.9-50.2h41.2c10.4,12.6,16.9,30.4,16.9,50.2
			c0,16-4.3,30.7-11.4,42.4H174.6z"/>
	</g>
</g>
</svg>
